<svg xmlns="http://www.w3.org/2000/svg" width="114.055" height="21.007" viewBox="0 0 114.055 21.007"><g transform="translate(0)"><path d="M193.245,5.806c0-1.355-1.14-1.83-2.352-1.83a10.082,10.082,0,0,0-4.195,1.07l-.849-2.5a13.6,13.6,0,0,1,5.578-1.307c3.564,0,5.286,1.759,5.286,4.231,0,4.326-6.062,5.538-7.081,8.842h7.3v2.757H185.315C185.97,9.347,193.245,8.9,193.245,5.806Z" transform="translate(-107.546 -1.147)" fill="#636363" fill-rule="evenodd"/><path d="M217.161,10.6h1.455V8.908a28.984,28.984,0,0,1,.146-2.923l-3.613,4.682C215.439,10.644,216.6,10.6,217.161,10.6Zm-5.7.547,8-9.983h2.377V10.6h2.377v2.615h-2.377v3.731h-3.225V13.211h-7.154V11.143Zm19.9-.765a4.13,4.13,0,0,1-4.165-4.1,4.165,4.165,0,0,1,8.33,0A4.13,4.13,0,0,1,231.36,10.379Zm0-9.361a5.31,5.31,0,0,0-5.354,5.265,5.355,5.355,0,0,0,10.709,0A5.311,5.311,0,0,0,231.36,1.018Z" transform="translate(-122.66 -1.018)" fill="#636363" fill-rule="evenodd"/><path d="M258.4,7.949V9.7h1.785v1.17h-2.975V7.949h1.19Z" transform="translate(-149.102 -5.024)" fill="#636363" fill-rule="evenodd"/><path d="M5.129,16.995c2.057,0,2.91-.643,2.91-1.994a1.748,1.748,0,0,0-.81-1.609A4.557,4.557,0,0,0,5,12.984H4.014v4.01H5.13ZM1.016,5.264H10.49l-.744,2.38H4.014V10.6H5a8.768,8.768,0,0,1,4,.751,3.708,3.708,0,0,1,2.035,3.6c0,2.531-1.554,4.439-5.974,4.439H1.016V5.264Zm11.64,3.989h2.866v4.053a21.73,21.73,0,0,1-.088,2.23H15.5c.241-.407.744-1.265,1.335-2.1l2.954-4.182h2.888V19.4H19.79V15.343a21.08,21.08,0,0,1,.109-2.231h-.066c-.241.408-.766,1.265-1.335,2.1L15.545,19.4H12.656V9.252Zm14.289,2.4H23.86v-2.4h9.759l-.766,2.4H29.9V19.4H26.946V11.655Zm11.794,5.576c1.772,0,2.648-1.137,2.648-2.917a2.63,2.63,0,0,0-2.91-2.938,3.074,3.074,0,0,0-1.006.129v5.511A3.821,3.821,0,0,0,38.739,17.231ZM34.516,9.661A12.827,12.827,0,0,1,38.608,9c3.851,0,5.8,2.123,5.8,5.319a5.106,5.106,0,0,1-5.448,5.3,5.774,5.774,0,0,1-1.488-.193V24.48H34.516V9.661Zm11.291-.408h2.866v4.053a21.865,21.865,0,0,1-.087,2.23h.065c.241-.407.744-1.265,1.335-2.1L52.94,9.253h2.888V19.4H52.94V15.343a21.08,21.08,0,0,1,.109-2.231h-.066q-.637,1.07-1.335,2.1L48.695,19.4H45.807V9.252Zm11.925,0h2.954v3.882H61.78c1.247,0,1.2-2.059,2.123-3.26A2.249,2.249,0,0,1,65.85,9a4.589,4.589,0,0,1,1.182.15v2.466a1.829,1.829,0,0,0-.613-.107.854.854,0,0,0-.722.322c-.525.644-.612,1.952-1.379,2.423v.043a2.147,2.147,0,0,1,1.182,1.2l1.86,3.9H64.165l-1.225-3.174c-.262-.622-.525-.9-.809-.9H60.686V19.4H57.732V9.253Zm10.109,5.126A5.356,5.356,0,0,1,73.421,9a5.285,5.285,0,0,1,2.866.73v2.423a4.02,4.02,0,0,0-2.538-.858,2.836,2.836,0,0,0-2.888,3.066A2.617,2.617,0,0,0,73.617,17.3,4.6,4.6,0,0,0,76,16.609l.831,1.973a6.533,6.533,0,0,1-3.632,1.03,4.973,4.973,0,0,1-5.361-5.233Z" transform="translate(-1.016 -3.472)" fill="#636363" fill-rule="evenodd"/></g></svg>