<svg xmlns="http://www.w3.org/2000/svg" width="99.738" height="18.37" viewBox="0 0 99.738 18.37"><g transform="translate(0 0)"><path d="M192.249,5.233c0-1.184-1-1.6-2.057-1.6a8.816,8.816,0,0,0-3.668.935l-.742-2.183a11.892,11.892,0,0,1,4.877-1.143c3.117,0,4.622,1.538,4.622,3.7,0,3.783-5.3,4.843-6.192,7.732h6.383v2.411H185.315C185.888,8.33,192.249,7.935,192.249,5.233Z" transform="translate(-117.308 -1.159)" fill="#0065a3" fill-rule="evenodd"/><path d="M216.445,9.394h1.272V7.918a25.345,25.345,0,0,1,.127-2.556l-3.16,4.094C214.94,9.436,215.958,9.394,216.445,9.394Zm-4.983.478,7-8.73h2.078V9.394h2.078V11.68h-2.078v3.263h-2.82V11.68h-6.256V9.872Zm17.4-.669a3.612,3.612,0,0,1-3.642-3.581,3.643,3.643,0,0,1,7.284,0A3.612,3.612,0,0,1,228.863,9.2Zm0-8.186a4.644,4.644,0,0,0-4.682,4.6,4.683,4.683,0,0,0,9.365,0A4.644,4.644,0,0,0,228.863,1.018Z" transform="translate(-133.807 -1.018)" fill="#0065a3" fill-rule="evenodd"/><path d="M258.249,7.949V9.484h1.561v1.023h-2.6V7.949h1.041Z" transform="translate(-162.673 -5.391)" fill="#0065a3" fill-rule="evenodd"/><path d="M4.613,15.522c1.8,0,2.545-.562,2.545-1.744a1.529,1.529,0,0,0-.708-1.407A3.985,3.985,0,0,0,4.5,12.015H3.637v3.507h.976ZM1.016,5.264H9.3L8.65,7.346H3.637V9.934H4.5A7.667,7.667,0,0,1,8,10.59,3.243,3.243,0,0,1,9.78,13.741c0,2.213-1.359,3.882-5.224,3.882H1.016V5.264ZM11.2,8.752H13.7V12.3a19,19,0,0,1-.077,1.95h.058c.21-.356.651-1.106,1.167-1.838l2.583-3.657h2.526v8.871H17.433V14.078a18.434,18.434,0,0,1,.1-1.951h-.058c-.21.356-.67,1.107-1.167,1.838l-2.583,3.657H11.2V8.751Zm12.5,2.1h-2.7v-2.1h8.534l-.67,2.1H26.274v6.77H23.691v-6.77ZM34,15.729c1.55,0,2.315-.994,2.315-2.551a2.3,2.3,0,0,0-2.545-2.569,2.688,2.688,0,0,0-.88.113v4.82a3.342,3.342,0,0,0,1.11.188Zm-3.693-6.62a11.217,11.217,0,0,1,3.578-.582c3.368,0,5.07,1.857,5.07,4.651A4.465,4.465,0,0,1,34.2,17.81a5.049,5.049,0,0,1-1.3-.169v4.426H30.311V9.109Zm9.873-.356h2.507V12.3a19.121,19.121,0,0,1-.076,1.95h.057c.21-.356.651-1.106,1.167-1.838l2.583-3.657h2.525v8.871H46.422V14.078a18.434,18.434,0,0,1,.1-1.951H46.46q-.557.936-1.167,1.838L42.71,17.622H40.184V8.751Zm10.428,0H53.2v3.395h.956c1.091,0,1.052-1.8,1.856-2.851a1.967,1.967,0,0,1,1.7-.769,4.013,4.013,0,0,1,1.034.131v2.157a1.6,1.6,0,0,0-.536-.094.747.747,0,0,0-.632.281c-.459.563-.535,1.707-1.206,2.119v.038a1.878,1.878,0,0,1,1.034,1.05l1.626,3.413H56.238l-1.072-2.776c-.229-.544-.459-.788-.708-.788H53.2v3.563H50.612V8.752Zm8.84,4.482a4.684,4.684,0,0,1,4.879-4.707,4.621,4.621,0,0,1,2.506.638v2.119a3.515,3.515,0,0,0-2.22-.75,2.48,2.48,0,0,0-2.525,2.682A2.289,2.289,0,0,0,64.5,15.785a4.027,4.027,0,0,0,2.086-.6l.727,1.725a5.713,5.713,0,0,1-3.176.9,4.349,4.349,0,0,1-4.688-4.576Z" transform="translate(-1.016 -3.697)" fill="#3a475b" fill-rule="evenodd"/></g></svg>