<svg xmlns="http://www.w3.org/2000/svg" width="17.714" height="9.808" viewBox="0 0 17.714 9.808"><path d="M277.854,270.191h3.088a.3.3,0,0,1,.277.18,18.1,18.1,0,0,0,2.615,4.168.209.209,0,0,0,.37-.029c.326-.791.926-2.716-.236-4.082a.239.239,0,0,1,.086-.374,4.183,4.183,0,0,1,3.447-.06.656.656,0,0,1,.389.6l.262,3.964a.282.282,0,0,0,.333.28c1.29-.274,2.051-2.208,2.8-4.226a.634.634,0,0,1,.593-.416h2.843a.377.377,0,0,1,.377.436,11.452,11.452,0,0,1-2.462,4.184.829.829,0,0,0,0,1.069l2.542,3.028a.334.334,0,0,1-.256.549h-3.218a.946.946,0,0,1-.7-.3l-2.25-1.873a.308.308,0,0,0-.448-.039c-.279.339-.257.757-.389,1.707a.607.607,0,0,1-.608.51h-2.2a2.107,2.107,0,0,1-.9-.2c-1.263-.6-4.712-2.72-6.652-8.659A.312.312,0,0,1,277.854,270.191Z" transform="translate(-277.544 -269.649)" fill="#3a475b"/></svg>