<svg xmlns="http://www.w3.org/2000/svg" xmlns:xlink="http://www.w3.org/1999/xlink" width="1440" height="362" viewBox="0 0 1440 362"><defs><linearGradient id="a" x1="0.37" y1="7.82" x2="0.726" y2="6.886" gradientUnits="objectBoundingBox"><stop offset="0" stop-color="#6e3df7"/><stop offset="1" stop-color="#6d43e5"/></linearGradient><clipPath id="b"><rect width="1440" height="362" transform="translate(0 1246)" fill="url(#a)"/></clipPath></defs><g transform="translate(0 -3473)"><rect width="1439" height="362" transform="translate(0 3473)" fill="#4c3b7b"/><g transform="translate(0 2227)" clip-path="url(#b)"><path d="M-543.261,1350.661a6.168,6.168,0,0,0-5.02,2.172l-52.49-41.554a6.326,6.326,0,0,0,1.23-3.13,6.331,6.331,0,0,0-5.93-6.7,6.324,6.324,0,0,0-6.7,5.93,2.33,2.33,0,0,0,.11.694l-297.91,53.337a6.247,6.247,0,0,0-5.55-4.392,6.178,6.178,0,0,0-6,3.441l-155.05-61.416a6.036,6.036,0,0,0,.34-1.322,6.35,6.35,0,0,0-5.86-6.716,6.3,6.3,0,0,0-6.71,5.853,5.94,5.94,0,0,0,.19,1.631l-213.88,67.3a6.271,6.271,0,0,0-5.29-3.8,6.14,6.14,0,0,0-6.25,4.352l-240.95-50.618c-.01-.077.07-.09.06-.167a6.337,6.337,0,0,0-5.93-6.7,6.324,6.324,0,0,0-6.7,5.93,6.627,6.627,0,0,0,.76,3.2l-151.67,95.306a6.487,6.487,0,0,0-4.53-2.5,6.34,6.34,0,0,0-6.27,4.2l-215.61-51.935c-.02-.154.12-.257.09-.411a6.325,6.325,0,0,0-5.93-6.7,6.152,6.152,0,0,0-6.4,4.852l-277.09-32.248a6.261,6.261,0,0,0-5.851-6.24,5.894,5.894,0,0,0-4.278,1.415l-222.954-217.423a6.128,6.128,0,0,0,1.354-3.31,6.328,6.328,0,0,0-5.928-6.7,6.289,6.289,0,0,0-6.7,5.93,5.135,5.135,0,0,0,.177,1.079l-308.294,76.811a6.547,6.547,0,0,0-5.408-4.018,6.3,6.3,0,0,0-6.713,5.852,5.748,5.748,0,0,0,.648,2.981l-242.009,148.39a6.613,6.613,0,0,0-4.513-2.424,6.327,6.327,0,0,0-6.7,5.93,6.236,6.236,0,0,0,1.544,4.574l-192.319,219.136a5.725,5.725,0,0,0-3.04-1.162,6.326,6.326,0,0,0-6.7,5.93,5.842,5.842,0,0,0,.189,1.631l-276.009,93.19a6.263,6.263,0,0,0-5.178-3.581,6.289,6.289,0,0,0-6.7,5.93,6.329,6.329,0,0,0,5.929,6.7,6.155,6.155,0,0,0,4.5-1.53l123.543,120.5a6.3,6.3,0,0,0-1.483,3.489,6.292,6.292,0,0,0,5.928,6.7,6.171,6.171,0,0,0,5.615-2.9l217.729,109.606a6.356,6.356,0,0,0-.5,1.745,6.328,6.328,0,0,0,5.929,6.7,6.327,6.327,0,0,0,6.7-5.93,6.342,6.342,0,0,0-.559-2.916l213.786-125.148a6.525,6.525,0,0,0,4.615,2.565,6.173,6.173,0,0,0,6.454-5.019l282.681,22.939a6.194,6.194,0,0,0,5.815,6.009,6.272,6.272,0,0,0,5.409-2.71l251.442,136.595a6.266,6.266,0,0,0-.479,1.9,6.329,6.329,0,0,0,5.929,6.7,6.336,6.336,0,0,0,6.712-5.853,6.451,6.451,0,0,0-.443-2.7l108.11-52.287a6.139,6.139,0,0,0,4.947,3.144,6.279,6.279,0,0,0,6.1-3.774l234.576,72.484c-.04.244-.16.5-.2.744a6.331,6.331,0,0,0,5.93,6.7,6.324,6.324,0,0,0,6.7-5.93,5.68,5.68,0,0,0-.87-3.34l231.96-163.359a6.214,6.214,0,0,0,4.29,2.064,6.349,6.349,0,0,0,5.95-3.274l243.31,97.247c-.09.411-.27.757-.36,1.168a6.293,6.293,0,0,0,5.93,6.7,6.325,6.325,0,0,0,6.7-5.93,6.336,6.336,0,0,0-1.11-3.855l154.88-127.335a6.481,6.481,0,0,0,4.02,1.871,6.325,6.325,0,0,0,6.7-5.93,6,6,0,0,0-.54-2.839l234.41-133.924a6.325,6.325,0,0,0,4.62,2.566,6.324,6.324,0,0,0,6.7-5.93,6.243,6.243,0,0,0-1.81-4.768l51.55-61.35,256.59-42.824a6.066,6.066,0,0,0,5.57,4.468,6.336,6.336,0,0,0,6.7-5.93,6.13,6.13,0,0,0-.55-2.839l245.16-143.208a6.219,6.219,0,0,0,4.52,2.5,6.324,6.324,0,0,0,6.7-5.93A6.571,6.571,0,0,0-543.261,1350.661ZM-3527.22,1661.612l276-93.268a5.94,5.94,0,0,0,1.511,1.968l-148.2,216.076a5.392,5.392,0,0,0-2.489-.7,6.1,6.1,0,0,0-4.5,1.531l-123.544-120.5a6.307,6.307,0,0,0,1.484-3.49A11.646,11.646,0,0,0-3527.22,1661.612Zm2168.339,90.773a6.553,6.553,0,0,0-2.37-1.431l30.62-152.1a6.116,6.116,0,0,0,4.06-4.626l151.27,16.762Zm-665.35,202.087a8.383,8.383,0,0,0-1.94.239l-103.59-261.9a6.244,6.244,0,0,0,3.31-4.9l153.35.511a6.2,6.2,0,0,0,4.2,5.326l-55.1,260.687Zm-246.331-76.17a6.336,6.336,0,0,0-3.121.751l-139.656-215.131a6.384,6.384,0,0,0,2.035-3.5l272.363,27.088a6.305,6.305,0,0,0,2.17,4.551l-131.123,187.07A6.279,6.279,0,0,0-2270.562,1878.3Zm-1126.169-91,148.2-216.077a6.58,6.58,0,0,0,2.5.776,6.336,6.336,0,0,0,2.093-.265l51.448,137.738a6.362,6.362,0,0,0-3.657,5.192,8.232,8.232,0,0,0,.24,1.939l-199.389,72.677A5.252,5.252,0,0,0-3396.731,1787.3Zm356.184-445.783,167.346,129.446a5.92,5.92,0,0,0-.969,2.771l-152.053,1.1a6.193,6.193,0,0,0-5.764-5.7l-.462.076-11.593-125.847A6.931,6.931,0,0,0-3040.547,1341.52Zm567.725-232.815.879,208.9a6.235,6.235,0,0,0-5.622,5.752c.013.077.026.154.051.308l-144.3,9.242a6.266,6.266,0,0,0-2.046-3.779l148.823-220.929A5.692,5.692,0,0,0-2472.822,1108.7Zm226.209,220.371a5.388,5.388,0,0,0,.177,1.554l-99.2,50.188-119.844-55.174a5.887,5.887,0,0,0,.3-1.078Zm1159.372-27.569a6.368,6.368,0,0,0,3.22,1.766l-27.39,246.317-141.43-131.1Zm175.71,66.252a5.494,5.494,0,0,0,1.72-3.45l212.88,13.678c.01.077.02.154.05.308l-176.07,36.944Zm214.89,12a6.3,6.3,0,0,0,1.5,2.366l-100.74,119.3A5.71,5.71,0,0,0-799,1500.2a6.272,6.272,0,0,0-3.86,1.108l-68.94-84.836Zm2.39,3.01a5.771,5.771,0,0,0,3.13,1.227,6.324,6.324,0,0,0,6.7-5.93,2.855,2.855,0,0,0-.12-.77l11.44-1.644-114.27,117.334Zm9.63-6.411c-.03-.154.01-.4-.09-.539l18.8-7.444-6.02,6.214Zm-277.98,53.78a6.39,6.39,0,0,0-2.77-.97,7.824,7.824,0,0,0-2.32.3l41.39-51.923Zm-9.42,4.794c.01.077-.06.089-.05.166a6.048,6.048,0,0,0,1.3,4.061l-15.34,13.525Zm10.05-4.344,42.82-61.973a6.376,6.376,0,0,0,2.77.969,6.292,6.292,0,0,0,3.85-1.108l38.28,47.055-85.58,17.951A5.784,5.784,0,0,0-961.971,1430.588Zm352.9-85.57-52.15,20.607,18.69-19.142,33.35-2.159A2.331,2.331,0,0,1-609.071,1345.018Zm-.3-2.325-31.48,2.009,31.29-32.055a5.792,5.792,0,0,0,3.38,1.342,1.24,1.24,0,0,0,.54-.088l1.81,23.052A6.3,6.3,0,0,0-609.371,1342.693Zm-33.66,2.21-7.75.483,36.92-30.451Zm-1.7,1.7-19.76,20.346-20.58,8.133a4.7,4.7,0,0,0-.55-.939l32.75-26.993Zm-41.41,26.756a6.569,6.569,0,0,0-4.13-2.012,6.172,6.172,0,0,0-6.49,5.262l-207.83-13.32,250.22-16.13Zm-283.81,56.321-4.42-5.21,47.83-49.34Zm-.72.91-22.58,28.25-99.05,87.129,117.12-120.653Zm-537.27,297.3a6.327,6.327,0,0,0-2.79-1.6l27.39-146.189,34.86,3.134,34.8,71.611Zm-618.61-41.079a6.576,6.576,0,0,0-1.66-3.843l66.86-83.26,89.45,84.472a6.453,6.453,0,0,0-1.3,3.143Zm-284.608-27.925a6.287,6.287,0,0,0-.547-2.364l178.375-107.611,96.3,133.845a6.338,6.338,0,0,0-1.76,3.219Zm-615.106-182.39c.039-.244.168-.424.13-.655l152.065-1.019a6.1,6.1,0,0,0,3.776,5.157l-11.115,42.117Zm785.429-141.648a6.7,6.7,0,0,0,1.232-.2l20.463,99.93a6.084,6.084,0,0,0-3.58,2.727l-59.413-27.355,39.3-75.72A7.044,7.044,0,0,0-2240.836,1334.855Zm180.335,263.771,103.3-128.671-10.28,211.764a6.478,6.478,0,0,0-3.49,1.366Zm-237.358-145.718,50.4,19.258-22,24.039-29.844-41.477A4.753,4.753,0,0,0-2297.859,1452.908Zm.31-1a6.033,6.033,0,0,0,.337-1.322c-.013-.077-.025-.154-.038-.231l73.729-8.245a6.294,6.294,0,0,0,1.22,2.571l-24.421,26.653Zm76.518-6.248a5.623,5.623,0,0,0,3.2,1.214,6.532,6.532,0,0,0,1.71-.2l14.39,41.8-43.311-16.545Zm54.08,61.395-22.31,13.484-10.33-30.121,32.42,12.4a3.732,3.732,0,0,0-.34,1.322A6.458,6.458,0,0,0-2166.951,1507.054Zm.78,1.376a6.361,6.361,0,0,0,4.52,2.424,2.632,2.632,0,0,0,.77-.127l26.45,169.551-54.34-158.237Zm-.77-6.6-33.1-12.683-14.73-42.933a8.2,8.2,0,0,0,1.16-.665l47.97,54.563A5.839,5.839,0,0,0-2166.941,1501.828Zm-142.849-51.707-215.522,24.117a1.681,1.681,0,0,0-.1-.616l150.762-76.318,65.755,49.583a6.69,6.69,0,0,0-.956,2.848C-2309.828,1449.889-2309.726,1450.031-2309.79,1450.121Zm5.865,6.317a5.744,5.744,0,0,0,3.34-.865l30.049,41.759-143.334,156.625-.013-.077,107.97-197.985A5.818,5.818,0,0,0-2303.925,1456.438Zm-108.676,198.5,143.076-156.265,35.284,49.052-178.233,107.509C-2412.5,1655.077-2412.512,1655-2412.6,1654.935Zm144.144-157.47,22.681-24.7,44.495,16.985,10.8,31.547-42.4,25.573Zm78.466,25.331,54.53,158.917a.56.56,0,0,0-.28.2l-96.29-133.767Zm57.66,158.244a2.63,2.63,0,0,0-.77.127l-26.62-170.553a6.787,6.787,0,0,0,2.57-1.214l94.59,89.247-66.92,83.35A6.691,6.691,0,0,0-2132.331,1681.04Zm-23.98-172.806a6.521,6.521,0,0,0,1.36-3.31,7.958,7.958,0,0,0-.22-1.31l198.9-53.046-.81,16.755-104.63,130.234Zm200.89-40.471,13.99-17.418a8.9,8.9,0,0,0,1.86.723l-25.53,215.3Zm11.08-22.086c.02.077.04.231.05.308l-10.23,2.712.18-3.2Zm.27,1.619a5.356,5.356,0,0,0,1.37,2.07l-12.61,15.688.7-15Zm20.54,16.648,143.3,173.768-2.2,8.752-6.72,1.5Zm435.15-109.384,74.49,114.715-56.48,54.483a6.156,6.156,0,0,0-3.58-1.549c-.15.025-.3.051-.46.076l-17.17-169.414Zm180.54,95.616a6.709,6.709,0,0,0-.49,1.822,8.438,8.438,0,0,0,.31,2.4l-9.36,4.152,1.38-12.734Zm-27.54,137.11-60.3-92.906,76.79-33.918-13.75,126.214A6.7,6.7,0,0,0-1335.381,1587.286Zm-133.96-62.589,56.19-54.278,15.37,23.674-71.1,31.478A2.675,2.675,0,0,0-1469.341,1524.7Zm.88,5.87a5.535,5.535,0,0,0,.44-1.655,8.429,8.429,0,0,0-.31-2.4l71.17-31.491,60.4,93.047a7.822,7.822,0,0,0-1.45,1.743Zm150.89-70.719,10.1-4.509a5.868,5.868,0,0,0,3.4,2.845l-2.34,11.782-24.43,112.22Zm-1.23-.747-77.6,34.289-15.67-24.1,49.71-47.988,45.07,23.856Zm-93.92,9.111-72.88-112.131,122.04,64.63Zm-168.97,101.315-63.05-5.7c-.02-.155-.03-.232-.06-.386l162.84-32.71Zm-186.11,72.553,71.91-47.681-65.22,45.076Zm-9.88-1.383a5.876,5.876,0,0,0-1.81,3.938,6.46,6.46,0,0,0,.19,1.156l-1.6.343,1.82-7.187Zm-3.56,6.758,2.07-.419a6.784,6.784,0,0,0,1.33,2.315l-2.11,2.088a7.085,7.085,0,0,0-2.03-1.25Zm1.94,4.589c-.09-.065-.11-.219-.2-.283l2.11-2.088a4.924,4.924,0,0,0,.73.592Zm12.14-8.486.29-.128-.28.2Zm10.37-5.742,100.97-69.714a11.949,11.949,0,0,0,1.11,1l-21.77,37.458Zm103.3-68.039a9.012,9.012,0,0,0,2.08.608,6.293,6.293,0,0,0,3.85-1.109l16.21,19.657-42.98,16.724Zm6.97-1.384a6.6,6.6,0,0,0,1.64-3.04l59.84,5.438-45.06,17.541Zm-10.39-5.969c-.09.411-.27.757-.35,1.245a5.853,5.853,0,0,0,.88,3.417l-111.95,74.209a6.053,6.053,0,0,0-2.95-2.048l24.88-113.875Zm-125.86,85.362-.53,2.066c-.17-.052-.33-.1-.5-.155a6.241,6.241,0,0,0-3.49.891l-1.22-1.621Zm4.02,5.2,3.12-2.175a5.708,5.708,0,0,0,1.49.388l-.4,6.715-3.47-.933a4.2,4.2,0,0,0,.14-.577A6.013,6.013,0,0,0-1778.751,1652.982Zm11.72-8.1,4.4-3.1,84.84-33.1-32.88,56.539-56.51-18.887c.02-.32.23-.513.26-.834A1.741,1.741,0,0,0-1767.031,1644.881Zm188.96-75,98.3-38.326a6.046,6.046,0,0,0,3.65,2.962l-8.21,43.856Zm103.26-35.1c.08-.013.09.064.17.051a5.723,5.723,0,0,0,2.55-.341l22.85,47.06-33.73-3.081Zm3.87-1.032a6.963,6.963,0,0,0,2.17-2.178l130.32,59.23a3.042,3.042,0,0,0-.19.744l-108.99-9.862Zm163.82-84.955-.44-.245-8.27-4.577,7.57-69.474.08-.013,5.3,71.712A6.475,6.475,0,0,0-1307.121,1448.791Zm-416.74-25.513a6.407,6.407,0,0,0,2.69-.443l67.05,135.885a5.9,5.9,0,0,0-2.25,2.19l-89.75-37.168,21.92-100.567C-1724.031,1423.227-1723.941,1423.291-1723.861,1423.278ZM-1944.2,1443.6a4.071,4.071,0,0,1-.15.578l-9.92-.189.25-4.237Zm-279.17-4.916a4.743,4.743,0,0,0-.39,1.489c.02.077.04.231.05.308l-73.728,8.245a6.149,6.149,0,0,0-2.777-3.9l17.348-33.564Zm-152.716-42.407-150.107,75.972a6.075,6.075,0,0,0-2.331-2.15l55.4-140.424a6.28,6.28,0,0,0,1.334.414,6.165,6.165,0,0,0,4.959-2.082Zm-98.025-66.836-55.4,140.425a6.194,6.194,0,0,0-1.334-.414,5.943,5.943,0,0,0-3.416.879l-50.914-74.819,109.041-67.8A6.109,6.109,0,0,0-2474.112,1329.438Zm-154.2,10.632a5.936,5.936,0,0,0,3.416-.878l37.875,55.671-116,72.183,72.638-127.507A9.081,9.081,0,0,0-2628.315,1340.07Zm-77.3,128.512-17.3,10.759a3.054,3.054,0,0,0-.743-.669.4.4,0,0,1-.205-.283l86.35-129.287Zm-24,20.567a10.243,10.243,0,0,0,1.411.4,4.412,4.412,0,0,0,1-.164l2.837,11.96-30.573,53.706Zm4.108-.042a6.385,6.385,0,0,0,4.08-5.5l-.012-.078,7.471-.278-9.083,15.979Zm3.89-6.655a6.675,6.675,0,0,0-.445-1.748l14.857-9.25-6.068,10.734Zm-141.143-4.735a7.2,7.2,0,0,0,1.007-2.54l117.712,7.558a6.18,6.18,0,0,0,5.84,6.164,6.165,6.165,0,0,0,4.959-2.082c.192.206.448.322.641.528a5.6,5.6,0,0,0,2.165,1.622l-25.71,66.917a10.213,10.213,0,0,0-1.411-.4,5.975,5.975,0,0,0-4.959,2.082Zm151.118,4.282,6.931-12.221,118.514-73.707,50.914,74.819a6.56,6.56,0,0,0-2.359,4.425l.013.077Zm746.076,199.878,27.28-230.626a7.355,7.355,0,0,0,3.11-.828l144.42,197.884-170.33,37.663A6.026,6.026,0,0,0-1965.561,1681.877Zm289.94-73.951,45.44-17.681,113.38,137.607a6.7,6.7,0,0,0-1.23,1.7l-191.14-63.873Zm163.56,117.959a6.341,6.341,0,0,0-3.86,1.108L-1629,1589.734l47.59-18.511,96.87,8.769-27.36,145.945C-1511.971,1725.949-1511.991,1725.872-1512.061,1725.885Zm181.22-138.871,12.16-55.982-11.33,56.241A1.8,1.8,0,0,0-1330.841,1587.014Zm34.58-132.331a7.454,7.454,0,0,0,.55-1.912,5.744,5.744,0,0,0-.86-3.34l32.11-22.694,57.74,75.438Zm-13.3-80.371-7.48,68.987-43.2-24.006,48.02-46.284A5.976,5.976,0,0,0-1309.561,1374.312Zm-177.74-20.88-1.47-2.211a8.385,8.385,0,0,0,1.06-1.282l125.05,69.515Zm-11.65-4.494.78.425a6.017,6.017,0,0,0,1.2,1.544l-31.36,43.15-13.11-32.118Zm3.08,2.9a6.872,6.872,0,0,0,2.67.828c.15-.026.31-.051.46-.076l17.25,169.876c-.15.026-.38.064-.54.089l-51.71-126.849Zm18.66,171.228a5.983,5.983,0,0,0-2.4,2.216l-107.36-48.046,58.39-80.364Zm-2.97,3.576a9.764,9.764,0,0,0-.4,1.411,4.412,4.412,0,0,0,.18,1.079l-164.52,33.066a6.077,6.077,0,0,0-1.81-2.79l58.84-80.992Zm-167.71,31.929-.27-.194,33.13-92.041,25.79,11.512Zm-1.67-.518a2.433,2.433,0,0,0-.99-.233,6.5,6.5,0,0,0-2.7.443l-67.04-135.884a6,6,0,0,0,2.11-2.089l101.8,45.555Zm-97.75-34.824-2.2-.9,16.95-66.744Zm-.36,1.643-24.85,114.03c-.08.012-.17-.052-.24-.039a5.728,5.728,0,0,0-2.98.648l-2.46-3.871,28.34-111.595Zm-31.6,109.045-103.92-165.2,131.95,54.687Zm-1.03,1.436-153.38-185.963a6.738,6.738,0,0,0,.92-1.179l46.95,19.43Zm-163.37-193.343-10.3-3.926,3.41-69.741s-.01,0,.07-.012l11.07,70.684A6.04,6.04,0,0,0-1943.671,1442.006Zm-12.03-2.852-.22,4.866-112.18-1.818,43.64-29.576Zm-.29,6.381-.19,3.672-199.2,53.1c-.12-.218-.23-.437-.35-.655l85.57-58Zm-200.49,54.891a6.339,6.339,0,0,0-4.4-2.205,6.339,6.339,0,0,0-2.4.315l-25.55-56.747,116.22,1.866Zm-7.81-1.25a2.466,2.466,0,0,0-.72.435l-47.97-54.563a6.35,6.35,0,0,0,1.77-3.617l21.18.317Zm-47-59.235c-.03-.154-.04-.231-.07-.385l17.9-5.237,2.72,5.964Zm-.46-1.824a6.38,6.38,0,0,0-5.31-3.877,5.838,5.838,0,0,0-1.15.19l-20.468-99.93.308-.051,44.28,98.469Zm-71.964-27.19-17.36,33.486a5.157,5.157,0,0,0-1.989-.543,6.162,6.162,0,0,0-4.959,2.081l-65.292-49.183,28.05-14.19Zm-91.126-15.254-91.025-68.54,118.639,54.581Zm-102.152-69.323-109.106,67.885-37.875-55.67a6.554,6.554,0,0,0,2.358-4.425c-.012-.077-.025-.154-.05-.308l144.227-9.229A6.4,6.4,0,0,0-2476.993,1326.35Zm-154.811,12.236-92.878,139.146a5.511,5.511,0,0,0-3.3-1.278,3.725,3.725,0,0,0-.925.152l-15.734-73.559,111.732-65.388A10.145,10.145,0,0,0-2631.8,1338.586Zm-98.665,138.119a6.661,6.661,0,0,0-2.558,1.766,6.617,6.617,0,0,0-4.4-2.2,6.186,6.186,0,0,0-6.545,5.429l-117.712-7.558a5.037,5.037,0,0,0-.547-2.363l116.127-68.011Zm-138.247,3.734a.824.824,0,0,0,.41.091,6.035,6.035,0,0,0,4.959-2.082l100.308,79.758a7.113,7.113,0,0,0-.567.884l-116.238-36.611Zm114.46,76.323,30.392-53.36,9.745,40.982-38.281,14.526A5.985,5.985,0,0,0-2754.256,1556.762Zm31.629-55.463,10.255-17.992,174.951-6.682a2.12,2.12,0,0,0,.114.694l-175.245,66.491ZM-2525,1476.165c-.013-.077-.039-.231-.051-.308l215.522-24.118a6.357,6.357,0,0,0,2.483,3.549l-107.97,197.986a6.86,6.86,0,0,0-1.988-.544,7.344,7.344,0,0,0-3.134.673L-2527.5,1480.692A6.048,6.048,0,0,0-2525,1476.165Zm735.124,173.184,1.52,2.045a6.286,6.286,0,0,0-2.07,4.22,3.622,3.622,0,0,0,.15.925l-151.07,26.343Zm11.46,9.04,3.73,1.048-7.54,117.754-1.43-115.013A5.877,5.877,0,0,0-1778.411,1658.389Zm-3.24,125.673,7.97-124.314,56.98,15.96-63.29,108.794C-1780.491,1784.347-1781.071,1784.2-1781.651,1784.062Zm8.11-125.842.44-6.958a6.124,6.124,0,0,0,5.59-3.532l56.18,18.783-4.56,7.874Zm63.55,8.707,168.86,56.376-173.36-48.592Zm263.11-83.551,107.95,9.8a5.516,5.516,0,0,0,.97,3.007l-74.6,57.78Zm109.65,13.87a6.854,6.854,0,0,0,2.89,1.663l-26.18,140.131-2.29,11.538-.08.013a5.767,5.767,0,0,0-2.56.341l-46.6-95.79Zm3.95,1.884c.08-.013.17.051.25.039a2.116,2.116,0,0,0,.69-.114l-12.7,63.274Zm4.7-10.9,26.09-129.589.07-.013a6.516,6.516,0,0,0,4.64-1.633l123.64,110.511-152.43,23.8A6.946,6.946,0,0,0-1328.581,1588.226Zm31.58-132.235c.08-.012.07-.09.15-.1l92.05,48.82,46.26,60.466-13.81,2.113Zm175.8,155.364-19.25-25.172,27.25-21.022-5.05,45.315A5.838,5.838,0,0,0-1121.2,1611.355Zm-20.25-26.432-14.42-18.921,43.36-6.733-.42,3.71Zm30.56-25.92.61-.1a9.567,9.567,0,0,0,.64,1.477l-1.54,1.2Zm6.44-7.947a6.469,6.469,0,0,0-3.87,1.43l-1.68-1.545,22.12-198.91Zm-4.79,2.609c-.06.09-.14.1-.13.179l-.86-.412.07-.565Zm-.81,1.321a7.9,7.9,0,0,0-.56,1.912,2.327,2.327,0,0,0,.12.693l-.23.038.31-2.9Zm-2.29,2.909-44.44,6.911-44.65-58.356,89.55,47.492Zm-45.38,8.411,15.01,19.615-4.77,3.714-23.73-21.189Zm16.01,20.876,18.24,23.834-22.72-20.326Zm30.34-23.352,2.74-2.113a6.322,6.322,0,0,0,2.63,1.547l-10.21,43.788Zm-154-138.289-31.97,22.591a6.239,6.239,0,0,0-4.29-2.064l-.47.076-5.3-71.712a5.9,5.9,0,0,0,2.25-.765Zm-276.6-64.861-16.42-40.2a6.134,6.134,0,0,0,2.14-1.934l55.55,29.413Zm-410.26,7.617-3.35,69.176-67.16-25.922,66.85-45.265A6.46,6.46,0,0,0-1952.231,1368.3Zm-291.465-34.476-39.284,75.8-60.692-27.935,98.093-49.69A5.948,5.948,0,0,0-2243.7,1333.821ZM-2947.152,1769.5a7.549,7.549,0,0,0-1.31.215l-81.471-288.575a6.329,6.329,0,0,0,3.28-3.151l144.933,45.588-65.021,246.014A1.332,1.332,0,0,1-2947.152,1769.5Zm1846.641-217.114a6.145,6.145,0,0,0-2.56-1.162l20.66-247.744a6.685,6.685,0,0,0,3.38-1.11l102.95,121.829Zm-11.15-.937-.13,1.13-91.62-48.575-59.85-78.178,9.07-6.4Zm-152.44-126.832-38.09-49.777,46.96,43.57Zm-50.43-56.533a5.777,5.777,0,0,0,1.36,3.971l-48.21,46.553-125.65-69.812a4.613,4.613,0,0,0,.28-1.155Zm-184.38-20.817-44.81-23.74,45.08,20.607a6.728,6.728,0,0,0-.49,1.823A7.292,7.292,0,0,0-1498.911,1347.269Zm-62.82-25.925a6.824,6.824,0,0,0,2.17-.277l16.32,40.059-38.04,11.638,18.57-51.653C-1562.391,1321.138-1562.051,1321.318-1561.731,1321.344Zm19.02,41.042,13.42,33.017-59.11,81.351-26.13-11.692,32.65-90.617Zm-73.11,102.018-101.72-45.49a9.741,9.741,0,0,0,.4-1.412,5.074,5.074,0,0,0-.18-1.554l133.79-40.993Zm-109.78-41.553-25.09,99.031-133.81-55.411-16.08-25.613,171.18-22.369A5.918,5.918,0,0,0-1725.6,1422.851Zm-161.63,42.407-44.93-18.655c.09-.41.27-.757.35-1.244a1.621,1.621,0,0,0-.1-.617l29.44-3.812Zm-44.86-21.6a6.145,6.145,0,0,0-5.62-4.853,3.775,3.775,0,0,0-.93.152l-11.06-70.685a5.941,5.941,0,0,0,1.2-.357l45.31,72.02Zm-24.48-78.612-67.77,45.893-38.86-14.982,106.4-31.348A1.2,1.2,0,0,0-1956.571,1365.051Zm-69.41,47.032-44.5,30.113-118.99-1.885-2.86-6.336,126.56-37.274Zm-166.98,20.491-44.4-98.687a5.947,5.947,0,0,0,2.457-2.383l166.838,64.306Zm-440.737-96.368-111.295,65.158-45.473-213.044a7.975,7.975,0,0,0,2.094-1.215l155.393,142.888a6.492,6.492,0,0,0-1.355,3.31A7.46,7.46,0,0,0-2633.7,1336.206Zm-159.157-147.493a3.818,3.818,0,0,0,.925-.152l45.575,213.66-116.564,68.241a6.335,6.335,0,0,0-2.7-2.009l72.358-279.831C-2793.188,1188.609-2793.009,1188.738-2792.855,1188.713Zm-243.506,291.349-150.689,229.309a5.456,5.456,0,0,0-2.4-.634,6.387,6.387,0,0,0-2.093.265l-51.448-137.738a6.362,6.362,0,0,0,3.657-5.192,7.352,7.352,0,0,0-.291-2.247l201.88-85.435A4.566,4.566,0,0,0-3036.361,1480.062Zm-149.51,230.224,150.7-229.232a5.463,5.463,0,0,0,2.4.634,7.548,7.548,0,0,0,1.31-.215l81.471,288.575a6.218,6.218,0,0,0-3.37,3.562l-230.328-57.747a.825.825,0,0,0,.091-.41A6.239,6.239,0,0,0-3185.871,1710.286Zm240.707,59.76,64.944-246,116.226,36.535a6.1,6.1,0,0,0-.194.744,6.24,6.24,0,0,0,1.543,4.575l-181.39,204.754A11.227,11.227,0,0,0-2945.164,1770.046Zm193.54-207.86a8.356,8.356,0,0,0-.239-1.939l38.126-14.5,58.521,246.2-99.55-224.813A6.288,6.288,0,0,0-2751.624,1562.186Zm99.511,231.309a4.416,4.416,0,0,0-1,.165l-59.055-248.488,175.4-66.517a6.328,6.328,0,0,0,5.088,3.517,6.334,6.334,0,0,0,3.121-.751l107.362,172.712a6.462,6.462,0,0,0-2.5,4.527,5.774,5.774,0,0,0,.648,2.98L-2647.587,1796A6.224,6.224,0,0,0-2652.113,1793.495Zm691.342-106.073,170.6-29.791a6.4,6.4,0,0,0,5.6,4.7l1.5,121.729a6.051,6.051,0,0,0-4.55,2.647l-173.6-96.281a6.308,6.308,0,0,0,.53-2.066A1.971,1.971,0,0,0-1960.771,1687.422Zm181.95,97.917,63.53-109.23,196.75,55.116a3.05,3.05,0,0,0-.15.577,4.414,4.414,0,0,0,.17,1l-257.92,55.468A6.956,6.956,0,0,0-1778.821,1785.339Zm271.61-56.374,94.12-72.94,46.49,95.572a6.385,6.385,0,0,0-2.71,3.769l-136.88-22.611a.08.08,0,0,1,.07-.09A5.707,5.707,0,0,0-1507.211,1728.965Zm180.75-136.022c-.03-.154-.04-.231-.06-.385l153.52-23.9,24.3,21.729-25.27,19.512Zm179.13-1.433,24.21,21.587a5.925,5.925,0,0,0-.97,2.3l-47.39-5.268Zm30.95,19.291,11.04-47.407c.24.039.42.168.66.207a6.345,6.345,0,0,0,6.72-5.853,1.747,1.747,0,0,0-.11-.617l30.58-5.106-47.36,59.4A4.251,4.251,0,0,0-1116.381,1610.8Zm18.12-55.3a6.765,6.765,0,0,0-.94-1.9l101.96-89.666-68.75,86.184Zm138.67-120.553,86.5-18.18,69.32,85.248a5.664,5.664,0,0,0-1.17,1.538l-154.88-66.116a4.474,4.474,0,0,0,.39-1.489A4.351,4.351,0,0,1-959.591,1434.947Zm288.9-59.534,33.41-4.7-152.09,126.481Zm1.14-1.217,6.98-7.162,53.94-21.3a2.429,2.429,0,0,0,.43.72l-27.55,22.973Zm62.17-26.606a6.206,6.206,0,0,0,3.94,1.806,6.158,6.158,0,0,0,6.3-4.518l47.39,11.046c-.04.244-.17.423-.21.667a2.611,2.611,0,0,0,.13.771l-83.37,11.728ZM-990.251,1457.8l18.66-16.444-90.93,108.193-1.08.177Zm440.71-102.54-47.4-11.047c.04-.243.17-.423.21-.667a6.325,6.325,0,0,0-5.93-6.7,1.637,1.637,0,0,0-.61.1l-1.82-23.053a5.651,5.651,0,0,0,3.79-1.969l52.49,41.554A5.538,5.538,0,0,0-549.541,1355.257Zm-61.34-43.9-41.39,34.114-249.52,16.093,290-51.878A5.506,5.506,0,0,0-610.881,1311.359Zm-309.92,55.866-54.47,56.13-102.85-121.687a5.469,5.469,0,0,0,1.17-1.538l155.06,61.417a3.525,3.525,0,0,0-.34,1.321A6.018,6.018,0,0,0-920.8,1367.225Zm-167.21-67.017-165.94,117.282-49.21-45.655a6.134,6.134,0,0,0,1.29-3.22,5.587,5.587,0,0,0-.19-1.631l213.88-67.3A.685.685,0,0,0-1088.011,1300.208Zm-398.53,46.292a6.306,6.306,0,0,0-5.89-6.471,6.206,6.206,0,0,0-5.94,3.35l-56.88-25.949-.27-.193a.278.278,0,0,0,.04-.244l233,48.995Zm-77.51-25.8-18.97,52.59-134.69,41.222a.415.415,0,0,0-.2-.283l151.66-95.383A5.644,5.644,0,0,0-1564.051,1320.7Zm-165.64,96.495-171.72,22.457-45.65-72.6a6.09,6.09,0,0,0,1.84-2.756l215.61,51.935c-.05.167-.12.256-.09.411C-1729.751,1416.806-1729.651,1416.948-1729.691,1417.192Zm-227.5-54.017-108.3,31.9-168.866-65.081,277.006,32.184A4.117,4.117,0,0,0-1957.191,1363.175Zm-289.406-35.447-218.491-4.523a6.271,6.271,0,0,0-5.533-5.739l-.878-208.9a6.209,6.209,0,0,0,3.2-1.239l222.955,217.424A5.642,5.642,0,0,0-2246.6,1327.728Zm-229.636-220.52-148.823,220.928a8.065,8.065,0,0,0-2.488-.7,6.232,6.232,0,0,0-4.573,1.544l-155.392-142.889a6.483,6.483,0,0,0,1.354-3.309,5.125,5.125,0,0,0-.177-1.079l308.282-76.888A5.851,5.851,0,0,0-2476.233,1107.208Zm-318.52,81.025-72.358,279.832c-.167-.052-.257-.117-.411-.091a6.021,6.021,0,0,0-4.894,1.992l-167.346-129.446a5.986,5.986,0,0,0,1.033-2.861,5.782,5.782,0,0,0-.648-2.981l242.022-148.312A6.29,6.29,0,0,0-2794.753,1188.233Zm-250.688,155.279.462-.076,11.516,125.86a6.178,6.178,0,0,0-5.236,5.689,7.415,7.415,0,0,0,.29,2.248l-201.88,85.435a5.872,5.872,0,0,0-.665-1.157l192.4-219.149A7.018,7.018,0,0,0-3045.441,1343.512Zm-349.346,446.954,199.389-72.677a6.263,6.263,0,0,0,5.178,3.581l.385-.063,16.677,179.864a6.415,6.415,0,0,0-4.062,2.726l-217.754-109.759a6.356,6.356,0,0,0,.5-1.745A16.128,16.128,0,0,0-3394.787,1790.466Zm223.17,110.452-.386.063-16.753-179.852a6.278,6.278,0,0,0,4.654-3.931l230.341,57.823a.829.829,0,0,0-.091.411,6.329,6.329,0,0,0,.559,2.916L-3167,1903.484A6.076,6.076,0,0,0-3171.617,1900.918Zm228.85-129.288,181.391-204.753a6.359,6.359,0,0,0,3.129,1.226,7.415,7.415,0,0,0,2.247-.29l100.33,226.663a6,6,0,0,0-2.9,4.038l-282.681-22.938A6.746,6.746,0,0,0-2942.767,1771.63Zm295.935,25.588,224.536-134.356a6.462,6.462,0,0,0,4.525,2.5l.231-.038,25.956,270.949a6.079,6.079,0,0,0-3.714,2.431L-2646.74,1802.11a6.825,6.825,0,0,0,.492-1.822A6.938,6.938,0,0,0-2646.832,1797.218Zm256.943,138.777-.231.038-25.956-270.949a4.553,4.553,0,0,0,1.426-.472l139.657,215.131a6.178,6.178,0,0,0-2.282,4.412,6.44,6.44,0,0,0,.444,2.7l-108.11,52.287A6.141,6.141,0,0,0-2389.889,1935.995Zm122.995-56.08,131.123-187.07a6.525,6.525,0,0,0,2.6.841,8.308,8.308,0,0,0,1.93-.24l103.6,261.9a6.178,6.178,0,0,0-2.77,2.908l-234.57-72.483c.039-.244.155-.5.194-.744A6.017,6.017,0,0,0-2266.894,1879.915Zm246.963,76.621a5.924,5.924,0,0,0-2.64-1.624l55.09-260.687c.08-.013.09.064.17.052a6.156,6.156,0,0,0,5.48-2.723l173.6,96.281a6.308,6.308,0,0,0-.53,2.066,5.829,5.829,0,0,0,.87,3.34Zm243.56-166.851,257.92-55.468a6.251,6.251,0,0,0,4.86,4.03l-14.04,147.554a6.289,6.289,0,0,0-5.55,3.287l-243.31-97.246c.09-.411.27-.757.36-1.168C-1776.191,1790.289-1776.321,1789.993-1776.371,1789.685Zm253.08,97.936a6.1,6.1,0,0,0-3.28-1.677l14.03-147.554a6.182,6.182,0,0,0,6.03-4.711l136.88,22.611c.01.077.01.077-.06.089a6.27,6.27,0,0,0,1.11,3.855Zm350.33-276.382,48.6,5.386a7.116,7.116,0,0,0,.49,2.531l-229.86,131.353Zm107.92-59.7,1-.165-17.14,20.391Zm95.78-110.891a6.394,6.394,0,0,0,3.04,1.162,6.252,6.252,0,0,0,5.94-3.351l154.87,66.116a4.462,4.462,0,0,0-.38,1.489,1.619,1.619,0,0,0,.1.616l-254.84,42.455Zm334.61-70.294,84.98-11.994a5.442,5.442,0,0,0,.33,1.053l-242.83,141.956Z" transform="translate(2778.596 -91.266)" fill="#564586" opacity="0.8"/><g transform="translate(3128.322 964.349)" opacity="0.402"><path d="M-1768.512,702.713a6.188,6.188,0,0,0,6.19-6.187,6.188,6.188,0,0,0-6.19-6.188,6.186,6.186,0,0,0-6.18,6.188A6.186,6.186,0,0,0-1768.512,702.713Z" fill="#ff9300"/><path d="M-2899.322,907.151a11.59,11.59,0,0,1-11.594,11.594,11.59,11.59,0,0,1-11.594-11.594,11.59,11.59,0,0,1,11.594-11.594A11.59,11.59,0,0,1-2899.322,907.151Z" fill="#ff9300"/><path d="M-2514.634,878.119a4.042,4.042,0,0,1,4.031,4.032,4.042,4.042,0,0,1-4.031,4.031,4.042,4.042,0,0,1-4.032-4.031A4.062,4.062,0,0,1-2514.634,878.119Zm0-4.375a8.41,8.41,0,0,0-8.407,8.407,8.409,8.409,0,0,0,8.407,8.406,8.409,8.409,0,0,0,8.406-8.406A8.409,8.409,0,0,0-2514.634,873.744Z" fill="#ff9300"/><path d="M-2563.885,398.807a3.661,3.661,0,0,1,3.657,3.656,3.682,3.682,0,0,1-3.657,3.657,3.662,3.662,0,0,1-3.656-3.657A3.681,3.681,0,0,1-2563.885,398.807Zm0-4a7.669,7.669,0,0,0-7.656,7.656,7.669,7.669,0,0,0,7.656,7.657,7.67,7.67,0,0,0,7.657-7.657A7.669,7.669,0,0,0-2563.885,394.807Z" transform="translate(-114.094 -72)" fill="#ff9300"/><path d="M-3040.6,350.651a9.416,9.416,0,0,1,9.406,9.406,9.415,9.415,0,0,1-9.406,9.406,9.416,9.416,0,0,1-9.407-9.406A9.416,9.416,0,0,1-3040.6,350.651Zm0-3.313a12.71,12.71,0,0,0-12.719,12.719,12.71,12.71,0,0,0,12.719,12.719,12.711,12.711,0,0,0,12.719-12.719A12.711,12.711,0,0,0-3040.6,347.338Z" fill="#ff9300"/><path d="M-2168.228,282.245a10.177,10.177,0,0,1,10.156,10.156,10.176,10.176,0,0,1-10.156,10.156,10.176,10.176,0,0,1-10.157-10.156A10.177,10.177,0,0,1-2168.228,282.245Zm0-3.594a13.751,13.751,0,0,0-13.75,13.75,13.75,13.75,0,0,0,13.75,13.75,13.751,13.751,0,0,0,13.75-13.75A13.751,13.751,0,0,0-2168.228,278.651Z" fill="#ff9300"/><path d="M-2060.962,787.59a7.722,7.722,0,0,1,7.71-7.715,7.716,7.716,0,0,1,7.71,7.715,7.715,7.715,0,0,1-7.71,7.715A7.709,7.709,0,0,1-2060.962,787.59Z" fill="#ff9300"/><path d="M-3002.322,705.57a9.5,9.5,0,0,1,9.5-9.509,9.5,9.5,0,0,1,9.5,9.509,9.5,9.5,0,0,1-9.5,9.51A9.5,9.5,0,0,1-3002.322,705.57Z" fill="#ff9300"/><path d="M-2848.425,826.063a3.313,3.313,0,0,1-3.3-3.307,3.312,3.312,0,0,1,3.3-3.306,3.312,3.312,0,0,1,3.3,3.306A3.313,3.313,0,0,1-2848.425,826.063Zm0,3.588a6.9,6.9,0,0,0,6.891-6.9,6.879,6.879,0,0,0-6.891-6.895,6.873,6.873,0,0,0-6.865,6.895A6.889,6.889,0,0,0-2848.425,829.651Z" fill="#ff9300"/><path d="M-2582.384,438.929a3,3,0,0,1-3-3,3,3,0,0,1,3-3,3.018,3.018,0,0,1,3,3A3,3,0,0,1-2582.384,438.929Zm0,3.281a6.288,6.288,0,0,0,6.276-6.279,6.288,6.288,0,0,0-6.276-6.28,6.288,6.288,0,0,0-6.276,6.28A6.288,6.288,0,0,0-2582.384,442.21Z" transform="translate(-173 55)" fill="#ff9300"/><path d="M-2026.2,620.808a7.721,7.721,0,0,1-7.71-7.715,7.721,7.721,0,0,1,7.71-7.715,7.715,7.715,0,0,1,7.71,7.715A7.715,7.715,0,0,1-2026.2,620.808Zm0,2.717a10.421,10.421,0,0,0,10.43-10.432,10.421,10.421,0,0,0-10.43-10.432,10.419,10.419,0,0,0-10.42,10.432A10.419,10.419,0,0,0-2026.2,623.525Z" fill="#ff9300"/><path d="M-1785.592,522.692a8.345,8.345,0,0,1-8.33-8.33,8.345,8.345,0,0,1,8.33-8.33,8.343,8.343,0,0,1,8.32,8.33A8.343,8.343,0,0,1-1785.592,522.692Zm0,2.948a11.277,11.277,0,0,0,11.27-11.278,11.277,11.277,0,0,0-11.27-11.278,11.271,11.271,0,0,0-11.27,11.278A11.271,11.271,0,0,0-1785.592,525.64Z" fill="#ff9300"/></g></g></g></svg>