<svg xmlns="http://www.w3.org/2000/svg" width="450.137" height="427.811" viewBox="0 0 450.137 427.811"><g transform="translate(790.448 265.908) rotate(120)"><g transform="translate(58.221 332.756)"><g transform="translate(58.139 69.608)"><path d="M84.063,484.418l71.466-121.279.151.315L213.5,484.775l-.278.015Zm71.43-120.481L84.733,484.01l128.191.418Z" transform="translate(-84.063 -363.139)" fill="#4c3b7b"/></g><g transform="translate(129.271 69.783)"><path d="M174.521,484.881l-.142-.294L116.531,363.219l.335.037,124,13.826-.177.256ZM117.16,363.666l57.416,120.466,65.631-106.747Z" transform="translate(-116.531 -363.219)" fill="#4c3b7b"/></g><g transform="translate(129.061 6.796)"><path d="M240.945,411.692l-.311-.035-124.2-13.848.421-.285,92.684-63.055.085.215ZM117.484,397.55l122.876,13.7-31-76.211Z" transform="translate(-116.435 -334.469)" fill="#4c3b7b"/></g><g transform="translate(102.576 6.844)"><path d="M131.287,397.927l-.1-.2-26.842-54.5.276-.017,119.907-8.726ZM104.924,343.57l26.5,53.8,91.735-62.406Z" transform="translate(-104.346 -334.491)" fill="#4c3b7b"/></g><g transform="translate(102.83)"><path d="M104.51,347.31l-.048-.37L186,331.367l.033,0,39.153,7.16ZM186,331.746,107.694,346.7l114.538-8.332Z" transform="translate(-104.462 -331.367)" fill="#4c3b7b"/></g><g transform="translate(221.613 6.426)"><path d="M251.219,415.771l-61.031-3.95-.042-.109L158.68,334.3Zm-60.768-4.309,59.7,3.867-90.543-79.714Z" transform="translate(-158.68 -334.3)" fill="#4c3b7b"/></g><g transform="translate(221.186 6.546)"><path d="M251.342,416.3l-92.857-81.949,61.9,23.337.033.059Zm-91.078-80.877,89.794,79.241-29.936-56.675Z" transform="translate(-158.485 -334.355)" fill="#4c3b7b"/></g><g transform="translate(282.208 29.02)"><path d="M217.658,403.5l-31.32-58.888,51.575,51.4Zm-29.824-56.864,30,56.4,19.4-7.166Z" transform="translate(-186.338 -344.613)" fill="#4c3b7b"/></g><g transform="translate(313.156 80.122)"><path d="M237.2,394.5l-36.734-19.038,20.366-7.526Zm-35.812-18.982,34.786,18.026-15.5-25.153Z" transform="translate(-200.464 -367.938)" fill="#4c3b7b"/></g><g transform="translate(186.95 83.456)"><path d="M278.75,479.029l-.368-.026-135.524-1.764.184-.269L209.195,369.46l.149.243Zm-135.213-2.116,134.5,1.689-68.858-108.46Z" transform="translate(-142.858 -369.46)" fill="#4c3b7b"/></g><g transform="translate(186.987 190.862)"><path d="M199.2,539.79l-.138-.3-56.182-121,135.837,1.81-.182.269ZM143.477,418.9,199.261,539.03l78.774-118.409Z" transform="translate(-142.875 -418.485)" fill="#4c3b7b"/></g><g transform="translate(58.139 190.497)"><path d="M152.08,522.738l-.175-.267L84.063,418.331l.324-.013,129.144.51-.153.291ZM84.733,418.673,152.047,522l60.846-102.768Z" transform="translate(-84.063 -418.318)" fill="#4c3b7b"/></g><g transform="translate(48.788 190.124)"><path d="M79.8,527.084l.018-.217,9.528-108.719.3.456,67.844,104.14-.326.015Zm9.824-107.82L80.2,526.687l76.607-4.283Z" transform="translate(-79.795 -418.148)" fill="#4c3b7b"/></g><g transform="translate(48.376 294.354)"><path d="M185.331,534.032,79.607,470.076l.6-.037,77.28-4.316.053.125ZM80.838,470.381,184.56,533.127l-27.313-67.016Z" transform="translate(-79.607 -465.723)" fill="#4c3b7b"/></g><g transform="translate(47.655 297.831)"><path d="M186.761,532.332l-59.306-18.609L79.278,467.31ZM127.68,513.425l56.235,17.623L81.949,469.365Z" transform="translate(-79.278 -467.31)" fill="#4c3b7b"/></g><g transform="translate(0.114 190.604)"><path d="M107.218,527.864,84.289,499.525l-26.711-81.02.346-.138ZM84.635,499.376l21.056,26.006-46.639-103.6Z" transform="translate(-57.578 -418.367)" fill="#4c3b7b"/></g><g transform="translate(152.019 352.972)"><path d="M159.264,506.218l-.026-.007-32.324-4.542,112.443-9.191.046.372Zm-28.961-4.45,28.956,4.071,75.674-12.622Z" transform="translate(-126.914 -492.479)" fill="#4c3b7b"/></g><g transform="translate(125.84 294.314)"><path d="M142.743,533.869l-27.778-68.164.324.05L233.03,483.074l-.473.267Zm-27.184-67.7,27.372,67.156L231.9,483.282Z" transform="translate(-114.965 -465.705)" fill="#4c3b7b"/></g><g transform="translate(152.886 311.53)"><path d="M127.31,524.5l.736-.421,89.794-50.517.088.169L239.2,515.358l-.285.022Zm90.377-50.422-88.721,49.91L238.6,515.029Z" transform="translate(-127.31 -473.563)" fill="#4c3b7b"/></g><g transform="translate(243.066 286.414)"><path d="M189.835,529.152l-.116-.221-21.247-41.363.223-.063L259.508,462.1l-.53.51ZM169.022,487.8l20.912,40.739,68.254-65.684Z" transform="translate(-168.472 -462.099)" fill="#4c3b7b"/></g><g transform="translate(0 190.497)"><path d="M106.64,527.409,57.526,418.318H116.2l-.018.2ZM58.107,418.69,106.4,525.948l9.4-107.258Z" transform="translate(-57.526 -418.318)" fill="#4c3b7b"/></g><g transform="translate(32.646 15.419)"><path d="M72.427,420.058l.4-.467,69.86-81.186.125.252,26.82,54.454ZM142.6,339.08,73.516,419.368l95.585-26.5Z" transform="translate(-72.427 -338.405)" fill="#4c3b7b"/></g><g transform="translate(0.028 96.095)"><path d="M116.23,470H57.539l.085-.25,33.1-94.524Zm-58.165-.372h57.674L90.676,376.5Z" transform="translate(-57.539 -375.229)" fill="#4c3b7b"/></g><g transform="translate(0.11 95.935)"><path d="M57.933,469.965l-.357-.107,19.409-79.346.031-.037,14.118-15.318Zm19.391-79.272L58.855,466.2,90.18,376.74Z" transform="translate(-57.576 -375.156)" fill="#4c3b7b"/></g><g transform="translate(18.988 15.625)"><path d="M66.193,435.291l10.26-21.56L149.936,338.5l.276.252L80.537,419.723Zm10.549-21.321L67.593,433.22l12.663-13.745L146.056,343Z" transform="translate(-66.193 -338.499)" fill="#4c3b7b"/></g><g transform="translate(32.959 69.704)"><path d="M98.019,484.639l-.116-.427L72.57,390.074l.18-.048,96.842-26.842-.234.4Zm-24.991-94.3L98.15,483.682,168.8,363.788Z" transform="translate(-72.57 -363.183)" fill="#4c3b7b"/></g><g transform="translate(125.849 190.786)"><path d="M232.773,539.687l-.342-.05L114.969,522.36l.123-.234L176.451,418.45l.156.346ZM115.547,522.066l116.6,17.15L176.425,419.3Z" transform="translate(-114.969 -418.45)" fill="#4c3b7b"/></g><g transform="translate(242.9 192.751)"><path d="M168.4,538.7l.287-.419,79.425-118.932.061.493,10.974,93.685-.153.042Zm79.462-118.317L169.279,538.069l89.455-24.818Z" transform="translate(-168.396 -419.347)" fill="#4c3b7b"/></g><g transform="translate(322.276 192.624)"><path d="M215.7,514.2l-11.07-94.91,48.773,1.319.064.256Zm-10.652-94.535,10.847,93.052,37.117-91.738Z" transform="translate(-204.627 -419.289)" fill="#4c3b7b"/></g><g transform="translate(252.927 83.587)"><path d="M242.78,479.954l-.408-.655-69.4-109.779,60.864,3.915.013.16ZM173.674,369.941l68.609,108.506-8.792-104.661Z" transform="translate(-172.973 -369.52)" fill="#4c3b7b"/></g><g transform="translate(313.359 86.801)"><path d="M258.157,478.5l-48.646-1.314-8.954-106.2Zm-48.3-1.689,47.966,1.319L201.074,372.738Z" transform="translate(-200.557 -370.987)" fill="#4c3b7b"/></g><g transform="translate(313.167 87.231)"><path d="M258.415,478.151l-.337.02L200.469,371.183l36.37,18.85.024.081ZM201.372,372.075,257.709,476.7l-21.19-86.414Z" transform="translate(-200.469 -371.183)" fill="#4c3b7b"/></g></g><g transform="translate(56.942 330.201)"><g transform="translate(1.449 2.555)"><path d="M92.257,442.546l-.361-.094L119.236,338.69l.364.1Z" transform="translate(-16.767 -322.646)" fill="#4c3b7b"/><path d="M92.153,447.647l-.227-.3,146.9-112.859.225.3Z" transform="translate(-16.731 -327.647)" fill="#4c3b7b"/><path d="M149.641,426.005,91.93,386.313l.212-.31L149.85,425.7Z" transform="translate(-16.726 -266.304)" fill="#4c3b7b"/><path d="M118.481,432.648l-.21-.308,75.071-51.915.214.31Z" transform="translate(14.643 -272.947)" fill="#4c3b7b"/><rect width="101.624" height="0.374" transform="translate(207.745 107.583) rotate(-81.827)" fill="#4c3b7b"/><path d="M209.846,430.471,104.4,338.931l.246-.282L210.09,430.189Z" transform="translate(-1.873 -322.696)" fill="#4c3b7b"/><path d="M192.015,480.758,152.507,380.6l.349-.135,39.508,100.157Z" transform="translate(55.412 -272.899)" fill="#4c3b7b"/><path d="M232.866,452.7,118.287,404.457l.143-.344L233.011,452.36Z" transform="translate(14.662 -244.739)" fill="#4c3b7b"/><path d="M113.57,481.871l-.372-.054,11.038-77.638.37.051Z" transform="translate(8.6 -244.658)" fill="#4c3b7b"/><rect width="129.013" height="0.373" transform="translate(121.879 236.738) rotate(-12.927)" fill="#4c3b7b"/><path d="M57.864,457.176l-.255-.276,75.169-70.888.255.274Z" transform="translate(-57.596 -266.294)" fill="#4c3b7b"/><rect width="0.375" height="126.276" transform="matrix(0.929, -0.37, 0.37, 0.929, 75.135, 119.923)" fill="#4c3b7b"/><rect width="0.375" height="92.419" transform="translate(208.054 107.818) rotate(-77.927)" fill="#4c3b7b"/><path d="M170.868,470.3l-.321-.2,50.867-80.828.317.2Z" transform="translate(76.895 -262.408)" fill="#4c3b7b"/><rect width="0.375" height="142.155" transform="matrix(0.844, -0.536, 0.536, 0.844, 222.055, 7.095)" fill="#4c3b7b"/><path d="M194.107,410.785l-.349-.133,15.165-39.3.351.133Z" transform="translate(104.536 -283.754)" fill="#4c3b7b"/><path d="M265.97,456.867l-72.191-67.337.255-.274L266.227,456.6Z" transform="translate(104.561 -262.429)" fill="#4c3b7b"/><rect width="123.796" height="0.376" transform="translate(247.576 207.557) rotate(-6.211)" fill="#4c3b7b"/><path d="M174.074,488.85l-3.539-62.621.372-.021,3.539,62.621Z" transform="translate(76.881 -218.427)" fill="#4c3b7b"/><rect width="0.372" height="83.879" transform="translate(251.105 270.593) rotate(-79.001)" fill="#4c3b7b"/><path d="M172.386,496.41l-.2-.317,119.519-76.111.2.317Z" transform="translate(78.851 -225.84)" fill="#4c3b7b"/><path d="M185.347,537.406l-13.2-82.561.37-.064,13.2,82.561Z" transform="translate(78.805 -184.401)" fill="#4c3b7b"/><path d="M127.845,547.061l-.257-.274,97.685-92.054.257.274Z" transform="translate(25.737 -184.458)" fill="#4c3b7b"/><path d="M242.417,473.135,113.26,439.911l.094-.364,129.158,33.224Z" transform="translate(8.675 -202.541)" fill="#4c3b7b"/><rect width="76.067" height="0.375" transform="matrix(0.211, -0.978, 0.978, 0.211, 105.728, 311.498)" fill="#4c3b7b"/><path d="M153.452,524.7l-47.591-50.94.274-.255,47.591,50.94Z" transform="translate(-0.136 -162.104)" fill="#4c3b7b"/><path d="M101.541,506.3l-.355-.113,10.2-32.645.36.111Z" transform="translate(-5.704 -162.064)" fill="#4c3b7b"/><path d="M136.831,480.841l-56.9-12.875.083-.362,56.9,12.873Z" transform="translate(-31.012 -169.13)" fill="#4c3b7b"/><path d="M106,496.189l-.1-.359,145.276-41.117.1.36Z" transform="translate(-0.089 -184.481)" fill="#4c3b7b"/><path d="M139.127,512.59l-61.2-71.453.282-.244,61.2,71.451Z" transform="translate(-33.405 -200.938)" fill="#4c3b7b"/><path d="M78,442.81l-.013-.372,77.319-2.893.015.372Z" transform="translate(-33.331 -202.544)" fill="#4c3b7b"/><rect width="124.07" height="0.374" transform="translate(44.588 240.06) rotate(-75.801)" fill="#4c3b7b"/><path d="M102.127,467.959,57.6,418.625l.278-.25L102.4,467.709Z" transform="translate(-57.603 -227.755)" fill="#4c3b7b"/><path d="M70.065,472.749l-.332-.169,17.918-31.669.334.169Z" transform="translate(-43.159 -200.917)" fill="#4c3b7b"/><path d="M116.993,402.117,70.887,373.048l.2-.315,46.106,29.07Z" transform="translate(-41.785 -282.106)" fill="#4c3b7b"/><path d="M127.564,391.534l-.329-.176,31.648-59.992.329.173Z" transform="translate(25.316 -331.367)" fill="#4c3b7b"/><path d="M152.8,423.051l-.272-.257,74.545-77.925.272.257Z" transform="translate(55.433 -315.288)" fill="#4c3b7b"/><g transform="translate(42.525 58.175)"><path d="M121.443,405.2a1.993,1.993,0,1,1-1.994-1.989A1.992,1.992,0,0,1,121.443,405.2Z" transform="translate(-28.851 -303.985)" fill="#4c3b7b"/><path d="M95.006,387.179a1.993,1.993,0,1,1-1.991-1.994A1.991,1.991,0,0,1,95.006,387.179Z" transform="translate(-60.334 -325.454)" fill="#4c3b7b"/><path d="M116.335,440.629a1.991,1.991,0,1,1-1.994-1.994A1.99,1.99,0,0,1,116.335,440.629Z" transform="translate(-34.932 -261.803)" fill="#4c3b7b"/><path d="M81,442.09a1.991,1.991,0,1,1-1.989-1.992A1.99,1.99,0,0,1,81,442.09Z" transform="translate(-77.014 -260.06)" fill="#4c3b7b"/><path d="M109.018,474.586a1.993,1.993,0,1,1-1.991-1.991A1.99,1.99,0,0,1,109.018,474.586Z" transform="translate(-43.648 -221.361)" fill="#4c3b7b"/><path d="M175.292,455.8A1.991,1.991,0,1,1,173.3,453.8,1.991,1.991,0,0,1,175.292,455.8Z" transform="translate(35.277 -243.741)" fill="#4c3b7b"/><path d="M173.608,427.214a1.991,1.991,0,1,1-1.989-1.994A1.991,1.991,0,0,1,173.608,427.214Z" transform="translate(33.272 -277.778)" fill="#4c3b7b"/><path d="M155.722,381.591a1.995,1.995,0,1,1-1.994-1.991A2,2,0,0,1,155.722,381.591Z" transform="translate(11.964 -332.106)" fill="#4c3b7b"/><path d="M196.83,390.432a1.99,1.99,0,1,1-1.989-1.991A1.989,1.989,0,0,1,196.83,390.432Z" transform="translate(60.928 -321.576)" fill="#4c3b7b"/><path d="M130.688,359.913a1.993,1.993,0,1,1-1.992-1.992A1.99,1.99,0,0,1,130.688,359.913Z" transform="translate(-17.842 -357.921)" fill="#4c3b7b"/></g></g><path d="M230.418,421.359a2.466,2.466,0,1,1-2.465-2.469A2.468,2.468,0,0,1,230.418,421.359Z" transform="translate(143.769 -224.586)" fill="#4c3b7b"/><path d="M209.3,420.934a3.026,3.026,0,1,1-3.026-3.026A3.028,3.028,0,0,1,209.3,420.934Z" transform="translate(117.284 -225.755)" fill="#4c3b7b"/><path d="M173.066,475.5a3.026,3.026,0,1,1-3.028-3.023A3.028,3.028,0,0,1,173.066,475.5Z" transform="translate(74.138 -160.775)" fill="#4c3b7b"/><path d="M214.489,463.553a3.027,3.027,0,1,1-3.028-3.025A3.027,3.027,0,0,1,214.489,463.553Z" transform="translate(123.465 -175.002)" fill="#4c3b7b"/><path d="M181.664,493.905a2.206,2.206,0,1,1-2.206-2.208A2.206,2.206,0,0,1,181.664,493.905Z" transform="translate(86.329 -137.883)" fill="#4c3b7b"/><path d="M144.084,499.662a1.678,1.678,0,1,1-1.678-1.678A1.68,1.68,0,0,1,144.084,499.662Z" transform="translate(42.835 -130.397)" fill="#4c3b7b"/><path d="M132.118,498.457a3.028,3.028,0,1,1-3.028-3.026A3.028,3.028,0,0,1,132.118,498.457Z" transform="translate(25.37 -133.436)" fill="#4c3b7b"/><path d="M103.955,489.561a1.919,1.919,0,1,1-1.917-1.919A1.918,1.918,0,0,1,103.955,489.561Z" transform="translate(-5.527 -142.712)" fill="#4c3b7b"/><path d="M119.635,467.623a3.026,3.026,0,1,1-3.026-3.023A3.025,3.025,0,0,1,119.635,467.623Z" transform="translate(10.51 -170.152)" fill="#4c3b7b"/><path d="M84.4,469.518a3.026,3.026,0,1,1-3.023-3.03A3.027,3.027,0,0,1,84.4,469.518Z" transform="translate(-31.452 -167.904)" fill="#4c3b7b"/><path d="M72.886,456.624a1.83,1.83,0,1,1-1.832-1.829A1.831,1.831,0,0,1,72.886,456.624Z" transform="translate(-42.315 -181.828)" fill="#4c3b7b"/><path d="M147.817,420.134a3.027,3.027,0,1,1-3.028-3.028A3.027,3.027,0,0,1,147.817,420.134Z" transform="translate(44.068 -226.71)" fill="#4c3b7b"/><path d="M89,420.3a3.027,3.027,0,1,1-3.03-3.026A3.027,3.027,0,0,1,89,420.3Z" transform="translate(-25.975 -226.509)" fill="#4c3b7b"/><path d="M60.566,419.351a1.812,1.812,0,1,1-1.81-1.81A1.811,1.811,0,0,1,60.566,419.351Z" transform="translate(-56.942 -226.192)" fill="#4c3b7b"/><path d="M77.489,377.32a3.027,3.027,0,1,1-3.028-3.026A3.027,3.027,0,0,1,77.489,377.32Z" transform="translate(-39.682 -277.693)" fill="#4c3b7b"/><path d="M121.467,365.091a3.026,3.026,0,1,1-3.026-3.026A3.028,3.028,0,0,1,121.467,365.091Z" transform="translate(12.692 -292.256)" fill="#4c3b7b"/><path d="M109.216,340.392a3.028,3.028,0,1,1-3.026-3.028A3.026,3.026,0,0,1,109.216,340.392Z" transform="translate(-1.903 -321.671)" fill="#4c3b7b"/><path d="M145.359,332.418a2.215,2.215,0,1,1-2.215-2.217A2.216,2.216,0,0,1,145.359,332.418Z" transform="translate(43.074 -330.201)" fill="#4c3b7b"/><path d="M163.7,336.545a3.026,3.026,0,1,1-3.026-3.026A3.026,3.026,0,0,1,163.7,336.545Z" transform="translate(62.986 -326.25)" fill="#4c3b7b"/><path d="M177.736,371.106a3.026,3.026,0,1,1-3.026-3.028A3.027,3.027,0,0,1,177.736,371.106Z" transform="translate(79.7 -285.095)" fill="#4c3b7b"/><path d="M190.332,346.018a2.587,2.587,0,1,1-2.587-2.585A2.588,2.588,0,0,1,190.332,346.018Z" transform="translate(95.743 -314.444)" fill="#4c3b7b"/><path d="M205.226,373.132a3.026,3.026,0,1,1-3.023-3.026A3.025,3.025,0,0,1,205.226,373.132Z" transform="translate(112.436 -282.68)" fill="#4c3b7b"/><path d="M213.171,369.237a2.133,2.133,0,1,1-2.132-2.132A2.135,2.135,0,0,1,213.171,369.237Z" transform="translate(124.023 -286.254)" fill="#4c3b7b"/><path d="M221.9,381.456a3.026,3.026,0,1,1-3.028-3.028A3.026,3.026,0,0,1,221.9,381.456Z" transform="translate(132.295 -272.77)" fill="#4c3b7b"/><path d="M74.137,373.7a2.076,2.076,0,1,1-2.075-2.075A2.077,2.077,0,0,1,74.137,373.7Z" transform="translate(-41.41 -280.871)" fill="#4c3b7b"/><path d="M69.02,383.362a1.832,1.832,0,1,1-1.832-1.834A1.832,1.832,0,0,1,69.02,383.362Z" transform="translate(-46.921 -269.078)" fill="#4c3b7b"/></g></g></svg>