<svg xmlns="http://www.w3.org/2000/svg" xmlns:xlink="http://www.w3.org/1999/xlink" width="1440" height="800" viewBox="0 0 1440 800"><defs><clipPath id="a"><rect width="1440" height="800" transform="translate(0 1109)" fill="#4c3b7b"/></clipPath></defs><rect width="1440" height="800" fill="#4c3b7b"/><g transform="translate(3108.322 -156.651)" opacity="0.402"><path d="M-1768.512,702.713a6.188,6.188,0,0,0,6.19-6.187,6.188,6.188,0,0,0-6.19-6.188,6.186,6.186,0,0,0-6.18,6.188A6.186,6.186,0,0,0-1768.512,702.713Z" fill="#ff9300"/><path d="M-2899.322,907.151a11.59,11.59,0,0,1-11.594,11.594,11.59,11.59,0,0,1-11.594-11.594,11.59,11.59,0,0,1,11.594-11.594A11.59,11.59,0,0,1-2899.322,907.151Z" fill="#ff9300"/><path d="M-2514.634,878.119a4.042,4.042,0,0,1,4.031,4.032,4.042,4.042,0,0,1-4.031,4.031,4.042,4.042,0,0,1-4.032-4.031A4.062,4.062,0,0,1-2514.634,878.119Zm0-4.375a8.41,8.41,0,0,0-8.407,8.407,8.409,8.409,0,0,0,8.407,8.406,8.409,8.409,0,0,0,8.406-8.406A8.409,8.409,0,0,0-2514.634,873.744Z" fill="#ff9300"/><path d="M-2563.885,398.807a3.661,3.661,0,0,1,3.657,3.656,3.682,3.682,0,0,1-3.657,3.657,3.662,3.662,0,0,1-3.656-3.657A3.681,3.681,0,0,1-2563.885,398.807Zm0-4a7.669,7.669,0,0,0-7.656,7.656,7.669,7.669,0,0,0,7.656,7.657,7.67,7.67,0,0,0,7.657-7.657A7.669,7.669,0,0,0-2563.885,394.807Z" transform="translate(-114.094 -72)" fill="#ff9300"/><path d="M-3040.6,350.651a9.416,9.416,0,0,1,9.406,9.406,9.415,9.415,0,0,1-9.406,9.406,9.416,9.416,0,0,1-9.407-9.406A9.416,9.416,0,0,1-3040.6,350.651Zm0-3.313a12.71,12.71,0,0,0-12.719,12.719,12.71,12.71,0,0,0,12.719,12.719,12.711,12.711,0,0,0,12.719-12.719A12.711,12.711,0,0,0-3040.6,347.338Z" fill="#ff9300"/><path d="M-2168.228,282.245a10.177,10.177,0,0,1,10.156,10.156,10.176,10.176,0,0,1-10.156,10.156,10.176,10.176,0,0,1-10.157-10.156A10.177,10.177,0,0,1-2168.228,282.245Zm0-3.594a13.751,13.751,0,0,0-13.75,13.75,13.75,13.75,0,0,0,13.75,13.75,13.751,13.751,0,0,0,13.75-13.75A13.751,13.751,0,0,0-2168.228,278.651Z" fill="#ff9300"/><path d="M-2060.962,787.59a7.722,7.722,0,0,1,7.71-7.715,7.716,7.716,0,0,1,7.71,7.715,7.715,7.715,0,0,1-7.71,7.715A7.709,7.709,0,0,1-2060.962,787.59Z" fill="#ff9300"/><path d="M-3002.322,705.57a9.5,9.5,0,0,1,9.5-9.509,9.5,9.5,0,0,1,9.5,9.509,9.5,9.5,0,0,1-9.5,9.51A9.5,9.5,0,0,1-3002.322,705.57Z" fill="#ff9300"/><path d="M-2848.425,826.063a3.313,3.313,0,0,1-3.3-3.307,3.312,3.312,0,0,1,3.3-3.306,3.312,3.312,0,0,1,3.3,3.306A3.313,3.313,0,0,1-2848.425,826.063Zm0,3.588a6.9,6.9,0,0,0,6.891-6.9,6.879,6.879,0,0,0-6.891-6.895,6.873,6.873,0,0,0-6.865,6.895A6.889,6.889,0,0,0-2848.425,829.651Z" fill="#ff9300"/><path d="M-2582.384,438.929a3,3,0,0,1-3-3,3,3,0,0,1,3-3,3.018,3.018,0,0,1,3,3A3,3,0,0,1-2582.384,438.929Zm0,3.281a6.288,6.288,0,0,0,6.276-6.279,6.288,6.288,0,0,0-6.276-6.28,6.288,6.288,0,0,0-6.276,6.28A6.288,6.288,0,0,0-2582.384,442.21Z" transform="translate(-173 55)" fill="#ff9300"/><path d="M-2026.2,620.808a7.721,7.721,0,0,1-7.71-7.715,7.721,7.721,0,0,1,7.71-7.715,7.715,7.715,0,0,1,7.71,7.715A7.715,7.715,0,0,1-2026.2,620.808Zm0,2.717a10.421,10.421,0,0,0,10.43-10.432,10.421,10.421,0,0,0-10.43-10.432,10.419,10.419,0,0,0-10.42,10.432A10.419,10.419,0,0,0-2026.2,623.525Z" fill="#ff9300"/><path d="M-1785.592,522.692a8.345,8.345,0,0,1-8.33-8.33,8.345,8.345,0,0,1,8.33-8.33,8.343,8.343,0,0,1,8.32,8.33A8.343,8.343,0,0,1-1785.592,522.692Zm0,2.948a11.277,11.277,0,0,0,11.27-11.278,11.277,11.277,0,0,0-11.27-11.278,11.271,11.271,0,0,0-11.27,11.278A11.271,11.271,0,0,0-1785.592,525.64Z" fill="#ff9300"/></g><path d="M-2102.527,1320.274c-.959-.128-1.8.682-2.408,1.913l-25.175-36.59a8.694,8.694,0,0,0,.59-2.756c.105-3.029-1.156-5.715-2.844-5.9-1.65-.2-3.113,2.124-3.214,5.222a3.669,3.669,0,0,0,.053.611l-142.88,46.966c-.379-2.116-1.4-3.76-2.662-3.867-1.266-.174-2.365,1.132-2.878,3.03l-74.363-54.08a9.145,9.145,0,0,0,.163-1.164c.105-3.03-1.161-5.715-2.811-5.914-1.683-.188-3.108,2.124-3.218,5.154a9.394,9.394,0,0,0,.091,1.436l-102.579,59.264c-.427-1.822-1.386-3.205-2.537-3.346-1.419-.13-2.6,1.482-3,3.832l-115.562-44.572c0-.068.034-.079.029-.147.105-3.03-1.161-5.715-2.844-5.9-1.65-.2-3.113,2.124-3.213,5.222a10,10,0,0,0,.365,2.817l-72.742,83.922c-.532-1.235-1.285-2.052-2.172-2.2-1.381-.142-2.561,1.471-3.007,3.7l-103.408-45.732c-.01-.135.057-.226.043-.362.11-3.029-1.156-5.714-2.844-5.9-1.491-.175-2.734,1.662-3.069,4.272l-132.9-28.4c-.029-2.849-1.2-5.353-2.806-5.495a2.188,2.188,0,0,0-2.052,1.246l-106.931-191.452a8.3,8.3,0,0,0,.649-2.915c.108-3.03-1.157-5.715-2.843-5.9s-3.111,2.124-3.214,5.222a8.116,8.116,0,0,0,.085.95l-147.86,67.636c-.435-1.891-1.4-3.342-2.594-3.538-1.687-.188-3.111,2.124-3.22,5.153a8.742,8.742,0,0,0,.311,2.625l-116.07,130.665a3.294,3.294,0,0,0-2.164-2.134c-1.649-.2-3.111,2.124-3.213,5.222a8.741,8.741,0,0,0,.74,4.028l-92.238,192.961a2.252,2.252,0,0,0-1.458-1.023c-1.649-.2-3.112,2.124-3.214,5.222a9.287,9.287,0,0,0,.091,1.436l-132.376,82.059c-.459-1.743-1.369-3-2.483-3.153-1.686-.188-3.111,2.124-3.213,5.222-.108,3.03,1.157,5.715,2.844,5.9a2.315,2.315,0,0,0,2.156-1.347l59.252,106.106a8.437,8.437,0,0,0-.711,3.072c-.1,3.1,1.157,5.715,2.843,5.9,1.114.151,2.119-.918,2.693-2.556l104.425,96.514a9.417,9.417,0,0,0-.242,1.536c-.108,3.03,1.157,5.715,2.844,5.9,1.649.2,3.111-2.124,3.213-5.222a9.769,9.769,0,0,0-.268-2.568l102.533-110.2c.528,1.235,1.291,2.12,2.214,2.259,1.533.165,2.8-1.752,3.1-4.419l135.576,20.2c.059,2.77,1.219,5.138,2.789,5.291,1.071.1,2.008-.885,2.594-2.386l120.594,120.279a9.461,9.461,0,0,0-.23,1.672c-.108,3.03,1.157,5.715,2.844,5.9,1.649.2,3.111-2.124,3.219-5.154a10.048,10.048,0,0,0-.212-2.375l51.851-46.041c.478,1.529,1.338,2.663,2.373,2.768,1.3.164,2.427-1.29,2.928-3.323l112.5,63.826c-.019.215-.077.44-.1.655-.105,3.03,1.156,5.715,2.844,5.9,1.65.2,3.113-2.124,3.213-5.222a8.434,8.434,0,0,0-.417-2.941l111.25-143.846a2.864,2.864,0,0,0,2.058,1.817c1.228.118,2.3-1.042,2.854-2.883l116.694,85.631c-.043.362-.129.667-.173,1.028-.1,3.1,1.156,5.714,2.844,5.9,1.65.2,3.113-2.125,3.213-5.222a9.253,9.253,0,0,0-.532-3.395l74.282-112.125a2.911,2.911,0,0,0,1.928,1.647c1.65.2,3.113-2.125,3.213-5.222a9.254,9.254,0,0,0-.259-2.5l112.425-117.927c.532,1.234,1.3,2.187,2.216,2.26,1.65.2,3.112-2.124,3.213-5.222a8.5,8.5,0,0,0-.868-4.2l24.724-54.022,123.063-37.709c.35,2.2,1.372,3.838,2.671,3.934,1.645.2,3.108-2.124,3.213-5.222a9.439,9.439,0,0,0-.264-2.5l117.581-126.1c.528,1.234,1.29,2.12,2.168,2.2,1.65.2,3.113-2.124,3.213-5.222C-2099.573,1323.147-2100.834,1320.53-2102.527,1320.274ZM-3533.66,1594.083l132.37-82.127a6.06,6.06,0,0,0,.725,1.733l-71.077,190.266a1.819,1.819,0,0,0-1.194-.615,2.3,2.3,0,0,0-2.156,1.348l-59.253-106.107a8.442,8.442,0,0,0,.712-3.073C-3533.539,1595.021-3533.618,1594.557-3533.66,1594.083Zm1039.955,79.93a3.564,3.564,0,0,0-1.137-1.26l14.686-133.933c1.007-.584,1.736-2.2,1.947-4.073l72.551,14.76Zm-319.108,177.948a2.324,2.324,0,0,0-.93.21l-49.683-230.62a6.658,6.658,0,0,0,1.588-4.312l73.548.45c.12,2.194.887,3.984,2.014,4.69l-26.426,229.548Zm-118.143-67.072a2.036,2.036,0,0,0-1.5.661l-66.98-189.434a7.547,7.547,0,0,0,.976-3.083l130.628,23.852a8.014,8.014,0,0,0,1.041,4.007l-62.888,164.725A2.205,2.205,0,0,0-2930.956,1784.889Zm-540.121-80.129L-3400,1514.493a2.308,2.308,0,0,0,1.2.683,1.773,1.773,0,0,0,1-.233l24.675,121.286a6.585,6.585,0,0,0-1.754,4.572,13.1,13.1,0,0,0,.115,1.707l-95.629,64A5.546,5.546,0,0,0-3471.077,1704.76Zm170.829-392.535,80.261,113.984a8.38,8.38,0,0,0-.465,2.44l-72.926.965c-.126-2.68-1.269-4.844-2.765-5.02l-.221.067-5.56-110.815A3.389,3.389,0,0,0-3300.248,1312.225Zm272.286-205.006.422,183.947c-1.417.288-2.6,2.318-2.7,5.065.006.068.012.135.025.271l-69.209,8.138a7.637,7.637,0,0,0-.981-3.328l71.377-194.54A1.789,1.789,0,0,0-3027.962,1107.219Zm108.492,194.048a8.508,8.508,0,0,0,.085,1.368l-47.576,44.193-57.478-48.583a8.874,8.874,0,0,0,.143-.949Zm556.045-24.276a3.211,3.211,0,0,0,1.544,1.555l-13.136,216.9L-2442.848,1380Zm84.272,58.338a6.913,6.913,0,0,0,.825-3.038l102.1,12.044c0,.068.01.135.024.271l-84.445,32.531Zm103.063,10.567a7.193,7.193,0,0,0,.719,2.083l-48.316,105.053a2.29,2.29,0,0,0-1.5-1.08,2.174,2.174,0,0,0-1.851.976l-33.064-74.7Zm1.146,2.651a2.309,2.309,0,0,0,1.5,1.08c1.65.2,3.113-2.124,3.213-5.222a4.507,4.507,0,0,0-.058-.678l5.487-1.448-54.8,103.319Zm4.619-5.645a2.21,2.21,0,0,0-.043-.475l9.017-6.555-2.887,5.472Zm-133.322,47.356a2.385,2.385,0,0,0-1.329-.854,2.193,2.193,0,0,0-1.113.267l19.851-45.721Zm-4.518,4.221c0,.068-.029.078-.024.146a8.62,8.62,0,0,0,.624,3.576l-7.357,11.909Zm4.82-3.825,20.537-54.57a2.379,2.379,0,0,0,1.329.853,2.178,2.178,0,0,0,1.846-.976l18.36,41.434-41.045,15.807A5.994,5.994,0,0,0-2303.344,1390.654Zm169.254-75.349-25.011,18.146,8.964-16.856,15.995-1.9A3.67,3.67,0,0,1-2134.09,1315.305Zm-.144-2.047-15.1,1.769,15.007-28.226c.47.623.973,1.168,1.621,1.182.12.035.187-.055.259-.078l.868,20.3C-2132.987,1308.559-2134.133,1310.578-2134.234,1313.258Zm-16.144,1.946-3.717.425,17.707-26.814Zm-.815,1.5-9.477,17.916-9.87,7.162a5.6,5.6,0,0,0-.264-.827l15.707-23.769Zm-19.861,23.56a3.039,3.039,0,0,0-1.981-1.772c-1.568-.154-2.873,1.842-3.113,4.634l-99.677-11.729,120.008-14.2Zm-136.118,49.594-2.12-4.588,22.94-43.446Zm-.345.8-10.83,24.876-47.505,76.722,56.172-106.241ZM-2565.2,1652.45a3.3,3.3,0,0,0-1.338-1.407l13.136-128.727,16.719,2.76,16.69,63.057Zm-296.691-36.172a8.739,8.739,0,0,0-.8-3.384l32.066-73.315,42.9,74.382a8.744,8.744,0,0,0-.623,2.768Zm-136.5-24.589a9.576,9.576,0,0,0-.262-2.082l85.55-94.757,46.186,117.858a7.738,7.738,0,0,0-.844,2.835Zm-295.01-160.6a3.2,3.2,0,0,0,.062-.577l72.932-.9c.109,2.058.8,3.8,1.811,4.541l-5.331,37.086Zm376.7-124.729a1.921,1.921,0,0,0,.591-.179l9.814,87.994a4.011,4.011,0,0,0-1.717,2.4l-28.5-24.088,18.847-66.675A2.462,2.462,0,0,0-2916.7,1306.356Zm86.49,232.264,49.543-113.3-4.93,186.469a2.593,2.593,0,0,0-1.674,1.2Zm-113.839-128.312,24.174,16.958-10.552,21.168-14.313-36.523A4.746,4.746,0,0,0-2944.048,1410.308Zm.148-.881a8.978,8.978,0,0,0,.162-1.164c-.006-.068-.012-.136-.018-.2l35.361-7.26a8.158,8.158,0,0,0,.585,2.264l-11.712,23.469Zm36.7-5.5a2.219,2.219,0,0,0,1.535,1.069,1.808,1.808,0,0,0,.82-.177l6.9,36.808-20.772-14.569Zm25.938,54.061-10.7,11.873-4.954-26.523,15.549,10.918a5.618,5.618,0,0,0-.163,1.164A9.947,9.947,0,0,0-2881.263,1457.986Zm.374,1.212c.523,1.167,1.285,2.052,2.168,2.135.115.034.259-.078.369-.112l12.686,149.3-26.062-139.336Zm-.369-5.813-15.875-11.168-7.065-37.8a4.284,4.284,0,0,0,.557-.586l23.007,48.046A6,6,0,0,0-2881.258,1453.385Zm-68.512-45.531-103.366,21.236a2.626,2.626,0,0,0-.049-.542l72.307-67.2,31.537,43.66a9.6,9.6,0,0,0-.458,2.508C-2949.788,1407.65-2949.739,1407.775-2949.77,1407.854Zm2.813,5.563a1.906,1.906,0,0,0,1.6-.762l14.412,36.771-68.745,137.917-.006-.068,51.783-174.336A1.926,1.926,0,0,0-2946.957,1413.416Zm-52.122,174.787,68.621-137.6,16.922,43.193-85.482,94.667A.49.49,0,0,0-2999.079,1588.2Zm69.133-138.661,10.878-21.754,21.34,14.956,5.18,27.779-20.336,22.518Zm37.633,22.305,26.153,139.935a.356.356,0,0,0-.134.181l-46.181-117.789Zm27.654,139.342c-.115-.034-.259.078-.369.112l-12.767-150.181a3.045,3.045,0,0,0,1.233-1.069l45.366,78.587-32.1,73.394A2.443,2.443,0,0,0-2864.659,1611.19Zm-11.5-152.165a8.851,8.851,0,0,0,.652-2.915c0-.418-.077-.814-.105-1.153l95.394-46.71-.388,14.754-50.181,114.678Zm96.349-35.637,6.71-15.337a3.5,3.5,0,0,0,.892.637l-12.244,189.582Zm5.314-19.448c.01.068.019.2.024.271l-4.906,2.388.086-2.814Zm.129,1.426a5.961,5.961,0,0,0,.657,1.823l-6.048,13.814.336-13.2Zm9.852,14.659,68.728,153.012-1.055,7.707-3.223,1.321Zm208.7-96.318,35.726,101.012-27.088,47.975a2.619,2.619,0,0,0-1.717-1.364c-.072.022-.144.045-.22.067l-8.235-149.178Zm86.589,84.195a10.021,10.021,0,0,0-.235,1.6,13.352,13.352,0,0,0,.149,2.115l-4.489,3.656.662-11.213Zm-13.208,120.733-28.92-81.809,36.829-29.867-6.594,111.138A2.093,2.093,0,0,0-2482.435,1528.635Zm-64.248-55.113,26.949-47.795,7.372,20.846-34.1,27.718A3.345,3.345,0,0,0-2546.683,1473.522Zm.422,5.169a8.273,8.273,0,0,0,.211-1.457,13.32,13.32,0,0,0-.148-2.115l34.134-27.729,28.968,81.933a7.574,7.574,0,0,0-.7,1.535Zm72.368-62.272,4.844-3.97a4.182,4.182,0,0,0,1.63,2.505l-1.122,10.375-11.717,98.816Zm-.59-.658-37.218,30.193-7.516-21.219,23.842-42.256,21.616,21.006Zm-45.045,8.023-34.954-98.737,58.531,56.91Zm-81.04,89.213-30.239-5.02c-.01-.136-.014-.2-.029-.34l78.1-28.8Zm-89.26,63.887,34.489-41.986-31.28,39.692Zm-4.739-1.218a7.594,7.594,0,0,0-.868,3.468,10.027,10.027,0,0,0,.091,1.018l-.767.3.873-6.329Zm-1.707,5.951.993-.369a8.162,8.162,0,0,0,.638,2.038l-1.012,1.839a3.928,3.928,0,0,0-.974-1.1Zm.93,4.041c-.043-.057-.053-.193-.1-.249l1.012-1.839a3.489,3.489,0,0,0,.35.521Zm5.822-7.472.139-.113-.134.18Zm4.974-5.056,48.426-61.387a9.27,9.27,0,0,0,.532.884l-10.441,32.984Zm49.543-59.912a3.056,3.056,0,0,0,1,.535,2.179,2.179,0,0,0,1.846-.976l7.774,17.309L-2645,1544.811Zm3.343-1.219a8.146,8.146,0,0,0,.786-2.677l28.7,4.788-21.611,15.446Zm-4.983-5.256c-.043.362-.129.667-.168,1.1a8.694,8.694,0,0,0,.422,3.009l-53.692,65.345a3.713,3.713,0,0,0-1.415-1.8l11.933-100.273Zm-60.363,75.166-.254,1.819c-.082-.046-.158-.092-.24-.137a2.056,2.056,0,0,0-1.674.785l-.585-1.427Zm1.928,4.575,1.5-1.915a1.846,1.846,0,0,0,.715.342l-.192,5.913-1.664-.822c.024-.147.048-.293.067-.508A8.945,8.945,0,0,0-2695.079,1586.484Zm5.621-7.133,2.11-2.728,40.69-29.15-15.77,49.786-27.1-16.631c.009-.282.11-.452.125-.734A2.7,2.7,0,0,0-2689.458,1579.35Zm90.627-66.041,47.146-33.748a4.2,4.2,0,0,0,1.75,2.608l-3.937,38.618Zm49.524-30.911c.038-.011.043.056.082.045a1.63,1.63,0,0,0,1.223-.3l10.959,41.439-16.177-2.713Zm1.856-.909a5.846,5.846,0,0,0,1.041-1.918l62.5,52.155a4.61,4.61,0,0,0-.091.655l-52.273-8.684Zm78.57-74.807-.211-.216-3.966-4.03,3.631-61.176.038-.011,2.542,63.146A3.574,3.574,0,0,0-2468.881,1406.683Zm-199.873-22.466a1.876,1.876,0,0,0,1.29-.39l32.158,119.654a4.813,4.813,0,0,0-1.079,1.928l-43.045-32.729,10.513-88.554C-2668.835,1384.172-2668.792,1384.229-2668.753,1384.217Zm-105.677,17.892c-.019.215-.048.362-.072.509l-4.758-.167.12-3.731Zm-133.893-4.329a7.123,7.123,0,0,0-.187,1.311c.01.068.019.2.024.271l-35.361,7.26a6.454,6.454,0,0,0-1.332-3.432l8.32-29.555Zm-73.244-37.342-71.993,66.9a4.757,4.757,0,0,0-1.118-1.893l26.571-123.651a2.187,2.187,0,0,0,.64.365c.96.128,1.8-.682,2.378-1.833Zm-47.014-58.853-26.571,123.652a2.157,2.157,0,0,0-.64-.365,1.97,1.97,0,0,0-1.638.774l-24.419-65.882,52.3-59.7A4.484,4.484,0,0,0-3028.581,1301.586Zm-73.957,9.362a1.967,1.967,0,0,0,1.638-.773l18.165,49.021-55.632,63.561,34.838-112.277A2.936,2.936,0,0,0-3102.538,1310.948Zm-37.074,113.161-8.3,9.474a2.343,2.343,0,0,0-.356-.589.412.412,0,0,1-.1-.249l41.414-113.844Zm-11.508,18.11a3.426,3.426,0,0,0,.677.353c.154.024.333-.1.481-.145l1.361,10.531-14.663,47.291Zm1.97-.037c1.072-.742,1.856-2.582,1.957-4.842l-.006-.069,3.583-.245-4.356,14.07Zm1.866-5.86a10.04,10.04,0,0,0-.213-1.539l7.125-8.145-2.91,9.452Zm-67.693-4.169a9.954,9.954,0,0,0,.483-2.237l56.456,6.655c.027,2.849,1.194,5.285,2.8,5.428.96.128,1.8-.682,2.378-1.833.092.181.215.284.307.465a3.668,3.668,0,0,0,1.039,1.428l-12.331,58.924a3.42,3.42,0,0,0-.677-.353c-.96-.129-1.768.6-2.378,1.833Zm72.478,3.771,3.324-10.761,56.84-64.9,24.419,65.882a8,8,0,0,0-1.131,3.9l.006.068Zm357.825,176,13.084-203.078a2.429,2.429,0,0,0,1.491-.729l69.265,174.247-81.692,33.164A4.574,4.574,0,0,0-2784.675,1611.927Zm139.058-65.118,21.793-15.569,54.378,121.17a7.111,7.111,0,0,0-.59,1.5l-91.672-56.244Zm78.445,103.869a2.192,2.192,0,0,0-1.851.976l-54.234-120.864,22.824-16.3,46.46,7.722-13.122,128.512C-2567.129,1650.735-2567.139,1650.667-2567.172,1650.678Zm86.915-122.283,5.832-49.3-5.434,49.523A.629.629,0,0,0-2480.257,1528.4Zm16.585-116.524a11.059,11.059,0,0,0,.264-1.684,8.542,8.542,0,0,0-.413-2.941l15.4-19.983,27.693,66.427Zm-6.379-70.771-3.587,60.747-20.719-21.138,23.031-40.755A2.761,2.761,0,0,0-2470.051,1341.1Zm-85.246-18.386-.705-1.947a8.174,8.174,0,0,0,.508-1.129l59.975,61.212Zm-5.587-3.957.374.374a6.094,6.094,0,0,0,.575,1.359l-15.041,38-6.288-28.282Zm1.477,2.55a2.414,2.414,0,0,0,1.281.729l.221-.067,8.273,149.585c-.072.023-.182.056-.259.078l-24.8-111.7Zm8.949,150.775a4.692,4.692,0,0,0-1.151,1.951l-51.491-42.307,28-70.765Zm-1.424,3.149c-.077.44-.154.813-.192,1.242a6.97,6.97,0,0,0,.086.95l-78.905,29.116a6.813,6.813,0,0,0-.868-2.457l28.22-71.318Zm-80.435,28.115-.13-.171,15.889-81.047,12.369,10.137Zm-.8-.456c-.163-.091-.326-.25-.475-.205a1.9,1.9,0,0,0-1.295.39l-32.153-119.653a4.984,4.984,0,0,0,1.012-1.839l48.824,40.114ZM-2680,1472.226l-1.055-.8,8.129-58.772Zm-.173,1.447-11.918,100.409c-.038.011-.082-.046-.115-.034a1.8,1.8,0,0,0-1.429.571l-1.18-3.409,13.592-98.265Zm-15.156,96.02-49.841-145.471,63.284,48.155Zm-.494,1.265-73.562-163.75a6.835,6.835,0,0,0,.441-1.038l22.518,17.109Zm-78.354-170.249-4.94-3.457,1.636-61.411s0,0,.033-.01l5.309,62.241A3.74,3.74,0,0,0-2774.176,1400.708Zm-5.77-2.511-.105,4.285-53.8-1.6,20.93-26.043Zm-.139,5.619-.091,3.233-95.538,46.754c-.057-.192-.11-.385-.168-.577l41.04-51.072Zm-96.157,48.334a3,3,0,0,0-2.11-1.942,1.792,1.792,0,0,0-1.151.277l-12.254-49.969,55.74,1.643Zm-3.746-1.1a1.351,1.351,0,0,0-.345.383l-23.007-48.046a8.076,8.076,0,0,0,.849-3.185l10.158.279Zm-22.542-52.16c-.014-.136-.019-.2-.033-.339l8.585-4.612,1.3,5.252Zm-.22-1.606c-.437-1.89-1.386-3.205-2.547-3.414a1.673,1.673,0,0,0-.552.167l-9.817-87.994.147-.045,21.237,86.707Zm-34.515-23.942-8.326,29.486a1.716,1.716,0,0,0-.954-.478c-.96-.129-1.8.682-2.378,1.832l-31.315-43.308,13.453-12.495Zm-43.705-13.432-43.656-60.353,56.9,48.061Zm-48.993-61.042-52.328,59.776-18.165-49.02a7.991,7.991,0,0,0,1.131-3.9c-.006-.068-.012-.136-.024-.271l69.173-8.127A9.652,9.652,0,0,0-3029.962,1298.867Zm-74.249,10.775-44.545,122.525a2.2,2.2,0,0,0-1.581-1.125c-.154-.024-.3.089-.444.134l-7.546-64.772,53.588-57.578A7.426,7.426,0,0,0-3104.211,1309.641Zm-47.321,121.621a4.056,4.056,0,0,0-1.227,1.555,3.135,3.135,0,0,0-2.109-1.942c-1.575-.222-2.938,1.932-3.139,4.781l-56.456-6.655a7.638,7.638,0,0,0-.262-2.081l55.7-59.887Zm-66.3,3.288c.08.046.123.1.2.08.923.139,1.768-.6,2.378-1.833l48.109,70.231a8.029,8.029,0,0,0-.272.778l-55.749-32.238Zm54.9,67.206,14.576-46.986,4.674,36.087-18.36,12.791A5.609,5.609,0,0,0-3162.94,1501.757Zm15.169-48.838,4.918-15.843,83.908-5.884a3.3,3.3,0,0,0,.055.611l-84.049,58.549Zm94.786-22.132c-.006-.068-.019-.2-.024-.271l103.366-21.237a6.8,6.8,0,0,0,1.191,3.125l-51.783,174.337a2.277,2.277,0,0,0-.954-.479,2.272,2.272,0,0,0-1.5.593l-51.492-152.081A7.209,7.209,0,0,0-3052.984,1430.787Zm352.572,152.5.729,1.8a7.933,7.933,0,0,0-.993,3.716,5.727,5.727,0,0,0,.072.814l-72.455,23.2Zm5.5,7.96,1.789.923-3.616,103.688-.686-101.275C-2696.264,1594.438-2695.314,1593.177-2694.916,1591.245Zm-1.554,110.662,3.822-109.465,27.328,14.054-30.354,95.8C-2695.914,1702.157-2696.192,1702.031-2696.47,1701.906Zm3.889-110.811.211-6.127c1.175-.007,2.206-1.224,2.681-3.11l26.945,16.539-2.187,6.933Zm30.479,7.667,80.987,49.642-83.145-42.788Zm126.19-73.571,51.774,8.626a7.928,7.928,0,0,0,.465,2.648l-35.779,50.878Zm52.589,12.213a3.592,3.592,0,0,0,1.386,1.464l-12.556,123.393-1.1,10.16-.039.011a1.642,1.642,0,0,0-1.228.3l-22.35-84.348Zm1.894,1.659c.039-.011.082.045.12.034.115.034.221-.067.331-.1l-6.091,55.716Zm2.254-9.6,12.513-114.11.033-.011a2.491,2.491,0,0,0,2.226-1.438l59.3,97.311-73.107,20.954A7.783,7.783,0,0,0-2479.174,1529.462Zm15.146-116.44c.038-.01.033-.079.072-.09l44.148,42.989,22.187,53.243-6.624,1.861Zm84.315,136.806-9.232-22.165,13.069-18.511-2.422,39.9A2.026,2.026,0,0,0-2379.712,1549.829Zm-9.712-23.275-6.916-16.661,20.8-5.929-.2,3.267Zm14.657-22.824.292-.089a12.984,12.984,0,0,0,.307,1.3l-.739,1.06Zm3.089-7a2.517,2.517,0,0,0-1.856,1.259l-.806-1.36,10.609-175.151Zm-2.3,2.3c-.029.079-.067.09-.062.158l-.413-.363.033-.5Zm-.388,1.163a11.664,11.664,0,0,0-.269,1.684,3.675,3.675,0,0,0,.058.61l-.11.033.149-2.554Zm-1.1,2.562-21.314,6.086-21.415-51.386,42.949,41.819Zm-21.765,7.406,7.2,17.272-2.288,3.27-11.381-18.658Zm7.679,18.382,8.748,20.987-10.9-17.9ZM-2375,1507.98l1.314-1.861a3.367,3.367,0,0,0,1.261,1.362l-4.9,38.558Zm-73.86-121.771-15.333,19.892a2.875,2.875,0,0,0-2.058-1.817l-.225.067-2.542-63.146a2.164,2.164,0,0,0,1.079-.674Zm-132.66-57.114-7.875-35.4a4.715,4.715,0,0,0,1.026-1.7l26.643,25.9Zm-196.764,6.707-1.607,60.913-32.21-22.826,32.062-39.858A3.276,3.276,0,0,0-2778.281,1335.8Zm-139.789-30.358-18.841,66.743-29.109-24.6,47.046-43.755A4.863,4.863,0,0,0-2918.071,1305.446Zm-337.384,383.64a2.164,2.164,0,0,0-.628.189l-39.074-254.105a5.068,5.068,0,0,0,1.573-2.775l69.511,40.143-31.185,216.628C-3255.295,1689.176-3255.375,1689.131-3255.455,1689.085Zm885.666-191.18a2.693,2.693,0,0,0-1.228-1.023l9.909-218.151a2.429,2.429,0,0,0,1.621-.978l49.376,107.277Zm-5.348-.825-.062.995-43.942-42.773-28.7-68.84,4.35-5.635Zm-73.112-111.682-18.268-43.831,22.522,38.366Zm-24.187-49.78a8.11,8.11,0,0,0,.652,3.5l-23.122,40.992-60.263-61.473a7,7,0,0,0,.134-1.017Zm-88.43-18.33-21.491-20.9,21.621,18.146a10.078,10.078,0,0,0-.235,1.605A11.439,11.439,0,0,0-2560.865,1317.287Zm-30.129-22.828a1.91,1.91,0,0,0,1.041-.244l7.827,35.274-18.244,10.248,8.906-45.483C-2591.311,1294.277-2591.148,1294.436-2590.994,1294.459Zm9.122,36.14,6.436,29.073-28.349,71.634-12.532-10.3,15.659-79.793Zm-35.064,89.832-48.786-40.057c.077-.44.154-.813.192-1.243a8.013,8.013,0,0,0-.086-1.368l64.167-36.1Zm-52.651-36.59-12.033,87.2-64.177-48.792-7.712-22.553,82.1-19.7A5.365,5.365,0,0,0-2669.588,1383.841Zm-77.519,37.342-21.549-16.427c.043-.361.129-.667.168-1.1a2.523,2.523,0,0,0-.048-.543l14.12-3.357Zm-21.515-19.016c-.288-2.353-1.353-4.121-2.7-4.273-.154-.024-.3.089-.446.134l-5.3-62.242a2.031,2.031,0,0,0,.576-.314l21.731,63.417Zm-11.741-69.222-32.5,40.411-18.637-13.192,51.03-27.6A1.519,1.519,0,0,0-2780.363,1332.945Zm-33.29,41.414L-2835,1400.875l-57.069-1.66-1.372-5.579,60.7-32.822Zm-80.085,18.043-21.292-86.9a4.842,4.842,0,0,0,1.178-2.1l80.017,56.625Zm-211.382-84.857-53.378,57.375-21.809-187.6a4.2,4.2,0,0,0,1-1.07l74.528,125.82a8.81,8.81,0,0,0-.65,2.915A11.4,11.4,0,0,0-3105.119,1307.546Zm-76.333-129.875c.154.023.3-.09.444-.134l21.858,188.139-55.905,60.09a4.12,4.12,0,0,0-1.3-1.769l34.7-246.406C-3181.612,1177.579-3181.526,1177.693-3181.452,1177.67Zm-116.788,256.548-72.272,201.918a1.8,1.8,0,0,0-1.15-.558,1.788,1.788,0,0,0-1,.233l-24.675-121.285a6.585,6.585,0,0,0,1.754-4.572,11.61,11.61,0,0,0-.139-1.979l96.823-75.23A4.419,4.419,0,0,0-3298.24,1434.218Zm-71.706,202.724,72.278-201.851a1.805,1.805,0,0,0,1.15.558,2.165,2.165,0,0,0,.628-.189l39.074,254.105a5.348,5.348,0,0,0-1.616,3.136l-110.467-50.849a1.257,1.257,0,0,0,.044-.361A8.076,8.076,0,0,0-3369.946,1636.943Zm115.445,52.622,31.148-216.618,55.743,32.171c-.019.215-.081.372-.093.655a8.748,8.748,0,0,0,.74,4.028l-87,180.3A5.522,5.522,0,0,0-3254.5,1689.564Zm92.823-183.032a13.18,13.18,0,0,0-.115-1.707l18.286-12.769,28.067,216.794-47.745-197.959A6.952,6.952,0,0,0-3161.678,1506.533Zm47.727,203.68c-.154-.023-.333.1-.48.145l-28.323-218.807,84.122-58.572c.454,1.676,1.363,2.934,2.44,3.1a2.035,2.035,0,0,0,1.5-.661L-3003.2,1587.5a7.738,7.738,0,0,0-1.2,3.986,8.784,8.784,0,0,0,.311,2.624l-107.689,118.308C-3112.309,1711.181-3113.071,1710.3-3113.951,1710.212Zm331.574-93.4,81.821-26.233c.312,2.206,1.376,3.906,2.686,4.138l.719,107.189c-.9.131-1.693,1-2.182,2.331l-83.26-84.781a9.5,9.5,0,0,0,.254-1.819A3.129,3.129,0,0,0-2782.377,1616.81Zm87.265,86.221,30.47-96.183,94.363,48.532a4.658,4.658,0,0,0-.072.508,6.9,6.9,0,0,0,.081.882l-123.7,48.842A6.771,6.771,0,0,0-2695.113,1703.031Zm130.267-49.64,45.141-64.227,22.3,84.156a6.659,6.659,0,0,0-1.3,3.319l-65.649-19.91s0-.068.034-.079A8.26,8.26,0,0,0-2564.846,1653.39Zm86.689-119.774c-.014-.136-.019-.2-.029-.339l73.63-21.043,11.655,19.134-12.12,17.181Zm85.913-1.262,11.611,19.009a8.043,8.043,0,0,0-.465,2.022l-22.729-4.639Zm14.844,16.987,5.295-41.744c.115.034.2.148.316.182,1.65.2,3.113-2.124,3.223-5.154a2.727,2.727,0,0,0-.053-.543l14.667-4.5-22.714,52.3A1.725,1.725,0,0,0-2377.4,1549.341Zm8.69-48.7a8.755,8.755,0,0,0-.451-1.675l48.9-78.956-32.973,75.889Zm66.507-106.153,41.486-16.009,33.247,75.065a5.812,5.812,0,0,0-.561,1.354l-74.282-58.219a6.728,6.728,0,0,0,.187-1.311A6.873,6.873,0,0,1-2302.2,1394.492Zm138.559-52.423,16.024-4.139-72.944,111.373Zm.547-1.072,3.348-6.307,25.87-18.752a2.866,2.866,0,0,0,.206.634l-13.213,20.229Zm29.817-23.428a2.761,2.761,0,0,0,1.89,1.59c1.419.2,2.628-1.56,3.021-3.978l22.729,9.726c-.019.215-.082.373-.1.587a4.08,4.08,0,0,0,.062.679l-39.985,10.327Zm-183.628,97.043,8.949-14.48-43.611,95.27-.518.156Zm211.368-90.292-22.733-9.727c.019-.214.082-.373.1-.587.11-3.029-1.156-5.714-2.844-5.9-.115-.034-.182.056-.292.09l-.873-20.3a2.749,2.749,0,0,0,1.818-1.734l25.175,36.59A7.587,7.587,0,0,0-2105.539,1324.321Zm-29.419-38.654-19.851,30.039-119.672,14.171,139.087-45.681A6.817,6.817,0,0,0-2134.958,1285.667Zm-148.641,49.193-26.124,49.425-49.328-107.152a5.623,5.623,0,0,0,.561-1.354l74.368,54.081a5.292,5.292,0,0,0-.163,1.163A8.5,8.5,0,0,0-2283.6,1334.859Zm-80.2-59.012-79.586,103.273-23.6-40.2a8.367,8.367,0,0,0,.619-2.835,8.882,8.882,0,0,0-.091-1.436l102.579-59.264A.963.963,0,0,0-2363.794,1275.848Zm-191.139,40.763c.043-2.939-1.175-5.5-2.825-5.7-1.223-.119-2.336,1.053-2.849,2.95l-27.28-22.849-.13-.17a.426.426,0,0,0,.019-.215l111.749,43.143Zm-37.174-22.721-9.1,46.308-64.6,36.3a.431.431,0,0,0-.1-.249l72.737-83.99A4.089,4.089,0,0,0-2592.107,1293.889Zm-79.442,84.969-82.359,19.775-21.894-63.927a6.725,6.725,0,0,0,.883-2.427l103.408,45.732a1.2,1.2,0,0,0-.043.362C-2671.578,1378.518-2671.53,1378.643-2671.549,1378.858Zm-109.111-47.565-51.941,28.086-80.99-57.307,132.854,28.34A6.476,6.476,0,0,0-2780.661,1331.293Zm-138.8-31.213-104.791-3.983c-.12-2.612-1.226-4.787-2.654-5.053l-.421-183.946a2.461,2.461,0,0,0,1.534-1.091l106.931,191.453A7.6,7.6,0,0,0-2919.462,1300.08ZM-3029.6,1105.9l-71.377,194.539a2.7,2.7,0,0,0-1.193-.615,2.346,2.346,0,0,0-2.193,1.359l-74.528-125.821a8.8,8.8,0,0,0,.649-2.914,8.047,8.047,0,0,0-.084-.95l147.854-67.7A5.993,5.993,0,0,0-3029.6,1105.9Zm-152.765,71.347-34.7,246.406c-.08-.046-.123-.1-.2-.08-.923-.14-1.768.6-2.347,1.754l-80.26-113.984a8.429,8.429,0,0,0,.5-2.519,8.8,8.8,0,0,0-.311-2.625l116.076-130.6A3.982,3.982,0,0,0-3182.363,1177.248Zm-120.232,136.731.221-.067,5.523,110.826c-1.33.4-2.441,2.409-2.511,5.009a11.718,11.718,0,0,0,.139,1.979l-96.823,75.23a7.091,7.091,0,0,0-.319-1.019l92.275-192.972A2.706,2.706,0,0,0-3302.595,1313.979Zm-167.55,393.566,95.629-64c.459,1.743,1.369,3,2.483,3.153l.185-.055,8,158.38a3.8,3.8,0,0,0-1.948,2.4l-104.437-96.649a9.4,9.4,0,0,0,.242-1.536C-3470.01,1708.62-3470.1,1708.088-3470.145,1707.545Zm107.034,97.259-.185.056-8.035-158.369c1.028-.38,1.861-1.677,2.232-3.462l110.473,50.916a1.261,1.261,0,0,0-.043.362,9.749,9.749,0,0,0,.268,2.568l-102.5,110.189C-3361.431,1805.761-3362.193,1804.875-3363.11,1804.8Zm109.759-113.845,87-180.3a2.541,2.541,0,0,0,1.5,1.08,2.078,2.078,0,0,0,1.078-.255l48.119,199.589a6.247,6.247,0,0,0-1.389,3.556l-135.576-20.2A9.268,9.268,0,0,0-3253.352,1690.959Zm141.933,22.531,107.689-118.307a3.282,3.282,0,0,0,2.17,2.2l.111-.034L-2989,1835.937a3.531,3.531,0,0,0-1.781,2.141L-3111.374,1717.8a10.248,10.248,0,0,0,.236-1.6A10.692,10.692,0,0,0-3111.418,1713.491Zm123.232,122.2-.111.033-12.449-238.585a1.643,1.643,0,0,0,.684-.416l66.981,189.434a7.609,7.609,0,0,0-1.095,3.885,10.06,10.06,0,0,0,.213,2.375l-51.85,46.041C-2986.292,1836.931-2987.152,1835.8-2988.186,1835.691Zm58.99-49.381,62.888-164.725a2.338,2.338,0,0,0,1.247.741,2.309,2.309,0,0,0,.926-.211l49.688,230.62a5.333,5.333,0,0,0-1.329,2.561l-112.5-63.825c.019-.215.074-.441.093-.655A7.932,7.932,0,0,0-2929.2,1786.31Zm118.446,67.469a3.279,3.279,0,0,0-1.266-1.43L-2785.6,1622.8c.038-.011.043.056.082.046,1.113.151,2.043-.9,2.628-2.4l83.26,84.78a9.5,9.5,0,0,0-.254,1.819,8.66,8.66,0,0,0,.417,2.941Zm116.813-146.921,123.7-48.843c.355,1.844,1.232,3.182,2.331,3.549l-6.734,129.929c-1.137-.005-2.134,1.133-2.662,2.894L-2694,1708.757c.043-.362.129-.667.173-1.029C-2693.851,1707.389-2693.914,1707.129-2693.937,1706.858Zm121.379,86.238a2.92,2.92,0,0,0-1.573-1.477l6.729-129.929c1.405-.005,2.575-1.753,2.892-4.148l65.649,19.91c0,.068,0,.068-.029.078a9.142,9.142,0,0,0,.532,3.395Zm168.021-243.369,23.309,4.743a10.989,10.989,0,0,0,.235,2.229l-110.243,115.663Zm51.759-52.565.479-.145-8.22,17.955Zm45.937-97.645a2.51,2.51,0,0,0,1.458,1.023c1.228.118,2.3-1.042,2.849-2.951l74.277,58.219a6.712,6.712,0,0,0-.182,1.311,2.518,2.518,0,0,0,.048.542l-122.224,37.384Zm160.482-61.9,40.757-10.561a7.916,7.916,0,0,0,.158.927l-116.464,125Z" transform="translate(3539.596 -1096.266)" fill="#564586" opacity="0.8"/></svg>