<svg xmlns="http://www.w3.org/2000/svg" width="108" height="91" viewBox="0 0 108 91"><g transform="translate(-1128 -3303.007)"><path d="M5,0H108a0,0,0,0,1,0,0V91a0,0,0,0,1,0,0H5a5,5,0,0,1-5-5V5A5,5,0,0,1,5,0Z" transform="translate(1128 3303.007)" fill="#b70ecd"/><g transform="translate(1170.093 3360.142)"><path d="M523.684,602.615c-6.8,0-12.336-3.374-12.336-7.521,0-2.674,2.237-5.087,5.986-6.456a.428.428,0,1,1,.293.805c-3.395,1.24-5.422,3.353-5.422,5.651,0,3.674,5.149,6.663,11.479,6.663s11.477-2.989,11.477-6.663c0-2.289-2.108-4.464-5.5-5.678a.429.429,0,0,1,.289-.808c3.8,1.36,6.073,3.784,6.073,6.485C536.02,599.241,530.486,602.615,523.684,602.615Z" transform="translate(-511.348 -588.584)" fill="#fff"/></g><g transform="translate(1164 3322.007)"><path d="M520.474,575.837h0a.428.428,0,0,1-.313-.135c-1.473-1.567-3.058-3.093-4.736-4.71-6.547-6.305-13.317-12.825-13.317-21.811a18.43,18.43,0,0,1,36.859,0c0,8.911-7.172,15.8-13.5,21.877-1.669,1.6-3.246,3.118-4.682,4.644A.428.428,0,0,1,520.474,575.837Zm.064-44.227a17.591,17.591,0,0,0-17.572,17.57c0,8.621,6.636,15.013,13.053,21.194,1.569,1.511,3.057,2.944,4.454,4.41,1.365-1.43,2.843-2.849,4.4-4.346,6.507-6.249,13.235-12.712,13.235-21.258A17.591,17.591,0,0,0,520.538,531.61Z" transform="translate(-502.108 -530.752)" fill="#fff"/></g><g transform="translate(1172.028 3329.072)"><path d="M524.684,562.266a10.4,10.4,0,1,1,10.4-10.4A10.412,10.412,0,0,1,524.684,562.266Zm0-19.942a9.542,9.542,0,1,0,9.543,9.542A9.553,9.553,0,0,0,524.684,542.324Z" transform="translate(-514.283 -541.466)" fill="#fff"/></g></g></svg>