<svg xmlns="http://www.w3.org/2000/svg" width="108" height="91" viewBox="0 0 108 91"><g transform="translate(-1128 -3303.007)"><path d="M5,0H108a0,0,0,0,1,0,0V91a0,0,0,0,1,0,0H5a5,5,0,0,1-5-5V5A5,5,0,0,1,5,0Z" transform="translate(1128 3303.007)" fill="#ffbb3b"/><g transform="translate(1148.753 3329.903)"><path d="M54.323,55.953c.424-1.106-3.555-13.073-16.237-12.056-11.045.981-13.511,9.6-13.759,10.218-5.944-1.863-8.167-1.2-10.919,0-5.38,2.363-6.265,8.468-6.255,8.747C2.68,63.808.929,68.056.722,70.727c0,8.214,6.109,10.3,14.323,10.3H53.068c7.3,0,13.6-6.155,13.225-13.225C66.043,61.417,61.073,55.841,54.323,55.953Z" transform="translate(-0.722 -43.836)" fill="none" stroke="#fff" stroke-width="1"/></g></g></svg>