<svg xmlns="http://www.w3.org/2000/svg" width="108" height="91" viewBox="0 0 108 91"><g transform="translate(-1128 -3303.007)"><path d="M5,0H108a0,0,0,0,1,0,0V91a0,0,0,0,1,0,0H5a5,5,0,0,1-5-5V5A5,5,0,0,1,5,0Z" transform="translate(1128 3303.007)" fill="#45d80f"/><g transform="translate(530.498 3045.094)"><g transform="translate(620.502 277.224)"><path d="M681.992,329.08H621.011a.51.51,0,0,1-.509-.51V277.733a.509.509,0,0,1,.509-.509h60.981a.509.509,0,0,1,.509.509V328.57A.51.51,0,0,1,681.992,329.08Zm-60.471-1.02h59.961V278.243H621.522Z" transform="translate(-620.502 -277.224)" fill="#fff"/><g transform="translate(31.864 23.134)"><path d="M690.786,335.464H663.764a.507.507,0,0,1-.443-.259l-.2-.361a.51.51,0,0,1,.125-.65l3.919-3.125a14.849,14.849,0,0,1-.609-2.286l-4.958-.742a.509.509,0,0,1-.435-.5v-2.4a.509.509,0,0,1,.435-.5l4.958-.741a14.721,14.721,0,0,1,.609-2.285l-3.919-3.125a.51.51,0,0,1-.123-.653l1.385-2.4a.507.507,0,0,1,.627-.219l4.669,1.834a15.125,15.125,0,0,1,1.67-1.669l-1.839-4.669a.51.51,0,0,1,.219-.629l2.4-1.383a.511.511,0,0,1,.653.125l3.124,3.925a14.575,14.575,0,0,1,2.279-.613l.749-4.961a.509.509,0,0,1,.5-.434h2.763a.51.51,0,0,1,.5.434l.745,4.961a14.769,14.769,0,0,1,2.284.613l3.122-3.925a.51.51,0,0,1,.653-.125l1.409.812a.51.51,0,0,1,.255.442v3.089a.5.5,0,0,1-.036.187l-.852,2.153c.271.232.513.451.734.664a.511.511,0,0,1,.154.366v18.541A.51.51,0,0,1,690.786,335.464Zm-26.223-1.02h25.713V316.631c-.235-.221-.5-.452-.8-.7a.509.509,0,0,1-.149-.58l.951-2.4v-2.7l-.774-.446-3.08,3.871a.508.508,0,0,1-.584.158,13.628,13.628,0,0,0-2.8-.752.509.509,0,0,1-.422-.427l-.735-4.89H680l-.739,4.89a.509.509,0,0,1-.422.427,13.529,13.529,0,0,0-2.791.752.508.508,0,0,1-.585-.158L672.38,309.8l-1.64.944,1.812,4.6a.509.509,0,0,1-.151.581,13.989,13.989,0,0,0-2.049,2.049.508.508,0,0,1-.584.153l-4.6-1.809-.946,1.638,3.864,3.081a.509.509,0,0,1,.158.58,13.7,13.7,0,0,0-.745,2.8.51.51,0,0,1-.429.427l-4.89.73v1.52l4.89.731a.51.51,0,0,1,.429.427,13.752,13.752,0,0,0,.745,2.8.508.508,0,0,1-.158.579Z" transform="translate(-661.16 -306.742)" fill="#fff"/></g><g transform="translate(0 10.304)"><path d="M681.992,291.391H621.011a.51.51,0,0,1,0-1.02h60.981a.51.51,0,0,1,0,1.02Z" transform="translate(-620.502 -290.371)" fill="#fff"/></g><g transform="translate(4.423 3.305)"><path d="M628.389,285.927a2.243,2.243,0,1,1,2.247-2.238A2.244,2.244,0,0,1,628.389,285.927Zm0-3.466a1.223,1.223,0,1,0,1.227,1.228A1.227,1.227,0,0,0,628.389,282.461Z" transform="translate(-626.146 -281.441)" fill="#fff"/></g><g transform="translate(11.947 3.305)"><path d="M637.989,285.927a2.243,2.243,0,1,1,2.245-2.238A2.243,2.243,0,0,1,637.989,285.927Zm0-3.466a1.223,1.223,0,1,0,1.226,1.228A1.228,1.228,0,0,0,637.989,282.461Z" transform="translate(-635.746 -281.441)" fill="#fff"/></g><g transform="translate(27.102 5.042)"><path d="M689.472,284.678H655.593a.51.51,0,0,1,0-1.02h33.878a.51.51,0,0,1,0,1.02Z" transform="translate(-655.084 -283.658)" fill="#fff"/></g><g transform="translate(7.334 15.146)"><path d="M676.683,300.747H630.37a.51.51,0,0,1-.51-.509v-3.178a.51.51,0,0,1,.51-.509h46.313a.51.51,0,0,1,.51.509v3.178A.51.51,0,0,1,676.683,300.747Zm-45.8-1.019h45.294V297.57H630.88Z" transform="translate(-629.86 -296.55)" fill="#fff"/></g><g transform="translate(7.137 24.976)"><path d="M656.889,310.112h-26.77a.51.51,0,1,1,0-1.02h26.77a.51.51,0,0,1,0,1.02Z" transform="translate(-629.609 -309.092)" fill="#fff"/></g><g transform="translate(7.137 28.178)"><path d="M639.859,314.2h-9.74a.51.51,0,1,1,0-1.02h9.74a.51.51,0,1,1,0,1.02Z" transform="translate(-629.609 -313.178)" fill="#fff"/></g><g transform="translate(7.137 31.387)"><path d="M651.577,318.292H630.119a.509.509,0,1,1,0-1.019h21.457a.509.509,0,1,1,0,1.019Z" transform="translate(-629.609 -317.273)" fill="#fff"/></g><g transform="translate(7.137 34.589)"><path d="M645.83,322.378h-15.71a.51.51,0,1,1,0-1.02h15.71a.51.51,0,0,1,0,1.02Z" transform="translate(-629.609 -321.358)" fill="#fff"/></g><g transform="translate(7.137 37.79)"><path d="M651.464,326.463H630.119a.51.51,0,1,1,0-1.02h21.345a.51.51,0,0,1,0,1.02Z" transform="translate(-629.609 -325.443)" fill="#fff"/></g><g transform="translate(7.137 40.999)"><path d="M645.33,330.558h-15.21a.51.51,0,1,1,0-1.02h15.21a.51.51,0,0,1,0,1.02Z" transform="translate(-629.609 -329.538)" fill="#fff"/></g></g></g></g></svg>