<svg xmlns="http://www.w3.org/2000/svg" width="108" height="91" viewBox="0 0 108 91"><g transform="translate(-1128 -3303.007)"><path d="M5,0H108a0,0,0,0,1,0,0V91a0,0,0,0,1,0,0H5a5,5,0,0,1-5-5V5A5,5,0,0,1,5,0Z" transform="translate(1128 3303.007)" fill="#3abdea"/><g transform="translate(791.456 2661.724)"><path d="M394.4,696.385a3.942,3.942,0,0,1-2.185-.665,3.182,3.182,0,0,0-3.25.009,4.111,4.111,0,0,1-2.1.578,3.9,3.9,0,0,1-3.476-2.023,2.95,2.95,0,0,0-2.836-1.628c-.085.005-.16.007-.234.007a3.779,3.779,0,0,1-2.774-1.2,3.853,3.853,0,0,1-1.047-2.849,2.944,2.944,0,0,0-1.619-2.849,3.74,3.74,0,0,1-1.978-2.413,3.918,3.918,0,0,1,.536-3.178,3.091,3.091,0,0,0-.009-3.254,4.132,4.132,0,0,1-.426-3.211,3.8,3.8,0,0,1,1.867-2.369,2.963,2.963,0,0,0,1.629-2.833,3.838,3.838,0,0,1,4.045-4.059c.089.007.167.01.244.01a2.953,2.953,0,0,0,2.6-1.63,3.972,3.972,0,0,1,3.477-2.08,3.824,3.824,0,0,1,2.122.643,3.183,3.183,0,0,0,3.248-.01,4.094,4.094,0,0,1,2.106-.581,3.891,3.891,0,0,1,3.472,2.02,2.942,2.942,0,0,0,2.835,1.628c.086-.005.158-.007.229-.007a3.789,3.789,0,0,1,2.781,1.2A3.853,3.853,0,0,1,404.7,668.5a2.969,2.969,0,0,0,1.619,2.84,3.75,3.75,0,0,1,1.98,2.423,3.921,3.921,0,0,1-.543,3.177,3.119,3.119,0,0,0,.011,3.255,4.118,4.118,0,0,1,.43,3.207,3.784,3.784,0,0,1-1.868,2.365,2.949,2.949,0,0,0-1.63,2.842,3.831,3.831,0,0,1-4.044,4.05c-.084-.007-.159-.009-.232-.009a2.959,2.959,0,0,0-2.609,1.629A3.785,3.785,0,0,1,394.4,696.385Zm-3.8-1.967a4.013,4.013,0,0,1,2.071.584,3.116,3.116,0,0,0,1.731.534,2.943,2.943,0,0,0,2.654-1.64,3.786,3.786,0,0,1,3.66-2.086c.05,0,.109,0,.167,0a2.994,2.994,0,0,0,2.163-.938,2.948,2.948,0,0,0,.807-2.212,3.8,3.8,0,0,1,2.086-3.654,2.937,2.937,0,0,0,1.44-1.839,3.263,3.263,0,0,0-.34-2.543,3.962,3.962,0,0,1,0-4.146,3.085,3.085,0,0,0,.439-2.5,2.916,2.916,0,0,0-1.54-1.882,3.781,3.781,0,0,1-2.086-3.659,3,3,0,0,0-.815-2.211,2.935,2.935,0,0,0-2.334-.927c-.089.008-.191.012-.292.012a3.807,3.807,0,0,1-3.356-2.1,3.043,3.043,0,0,0-2.719-1.561,3.238,3.238,0,0,0-1.668.46,4.03,4.03,0,0,1-4.141,0,2.989,2.989,0,0,0-1.667-.511,3.109,3.109,0,0,0-2.723,1.621,3.785,3.785,0,0,1-3.656,2.076c-.045,0-.1,0-.159,0a3,3,0,0,0-2.168.938,2.963,2.963,0,0,0-.81,2.219,3.77,3.77,0,0,1-2.086,3.646,2.958,2.958,0,0,0-1.44,1.843,3.277,3.277,0,0,0,.336,2.546,3.931,3.931,0,0,1,0,4.146,3.083,3.083,0,0,0-.432,2.5,2.905,2.905,0,0,0,1.538,1.874,3.8,3.8,0,0,1,2.085,3.668,2.994,2.994,0,0,0,.817,2.206,2.94,2.94,0,0,0,2.334.925c.087-.007.185-.01.282-.01a3.813,3.813,0,0,1,3.365,2.1,3.05,3.05,0,0,0,2.723,1.564,3.251,3.251,0,0,0,1.666-.457A4.014,4.014,0,0,1,390.6,694.418Z" transform="translate(-0.425)" fill="#fff"/><path d="M393.373,693.923a12.609,12.609,0,1,1,12.608-12.609A12.624,12.624,0,0,1,393.373,693.923Zm0-24.369a11.76,11.76,0,1,0,11.759,11.761A11.774,11.774,0,0,0,393.373,669.553Z" transform="translate(-3.2 -2.76)" fill="#fff"/><path d="M400.441,691.473h-.466a.424.424,0,0,1-.212-.057l-3.615-2.084-3.573,1.948a.8.8,0,0,1-1.015-.057.749.749,0,0,1-.224-.872l.656-4.251-2.9-2.9c-.163-.077-.32-.269-.32-.722a.737.737,0,0,1,.374-.571.966.966,0,0,0,.1-.079.434.434,0,0,1,.236-.122l4.071-.655,1.873-3.863a.423.423,0,0,1,.084-.118.952.952,0,0,1,.644-.353.826.826,0,0,1,.753.524l1.848,3.809,4.051.652a.8.8,0,0,1,.727.776,1.037,1.037,0,0,1-.251.765l-2.966,2.974.657,4.306a1.115,1.115,0,0,1-.224.819A.423.423,0,0,1,400.441,691.473Zm-.353-.849h.041v-.04l-.684-4.454a.423.423,0,0,1,.12-.364l3.125-3.133a.591.591,0,0,1,0-.1l-4.283-.685a.424.424,0,0,1-.314-.233l-1.935-3.987-1.933,3.987a.423.423,0,0,1-.314.234l-4.17.671c-.021.018-.043.034-.066.051l3.073,3.079a.425.425,0,0,1,.12.365l-.7,4.52h0l3.785-2.063a.419.419,0,0,1,.415,0Z" transform="translate(-5.98 -5.54)" fill="#fff"/><path d="M381.4,728.928h-.015a.423.423,0,0,1-.377-.263l-2.514-6.151-6.419,1.711a.424.424,0,0,1-.494-.588l.05-.107,7.462-15.007a.428.428,0,0,1,.432-.232,2.943,2.943,0,0,0,.542.016c.087-.007.185-.01.281-.01a3.813,3.813,0,0,1,3.365,2.1,3.049,3.049,0,0,0,2.723,1.564h0a3.251,3.251,0,0,0,1.666-.457,3.929,3.929,0,0,1,1.8-.573.411.411,0,0,1,.381.188.427.427,0,0,1,.027.425l-8.531,17.154A.425.425,0,0,1,381.4,728.928Zm-2.655-7.345a.425.425,0,0,1,.393.264l2.3,5.628,7.729-15.546a3.162,3.162,0,0,0-.627.3,4.109,4.109,0,0,1-2.105.58h0a3.9,3.9,0,0,1-3.476-2.023,2.95,2.95,0,0,0-2.836-1.628,3.41,3.41,0,0,1-.4,0l-6.965,14.006,5.876-1.566A.419.419,0,0,1,378.748,721.583Z" transform="translate(0 -16.498)" fill="#fff"/><path d="M408.751,728.928a.424.424,0,0,1-.38-.236l-8.525-17.155a.427.427,0,0,1,.027-.425.446.446,0,0,1,.381-.187,3.963,3.963,0,0,1,1.8.577,3.115,3.115,0,0,0,1.728.532,2.943,2.943,0,0,0,2.654-1.64,3.786,3.786,0,0,1,3.66-2.086,3.191,3.191,0,0,0,.528-.018.423.423,0,0,1,.432.232l7.473,15.027a.425.425,0,0,1-.338.689.451.451,0,0,1-.116-.015l-6.42-1.711-2.514,6.151a.422.422,0,0,1-.377.263Zm-7.761-17,7.724,15.543,2.3-5.627a.426.426,0,0,1,.5-.249l5.878,1.566-6.967-14.006a3.616,3.616,0,0,1-.387,0c-.086-.007-.161-.01-.234-.01a2.959,2.959,0,0,0-2.609,1.629,3.785,3.785,0,0,1-3.412,2.108,3.942,3.942,0,0,1-2.185-.665A3.044,3.044,0,0,0,400.99,711.931Z" transform="translate(-9.808 -16.498)" fill="#fff"/></g></g></svg>