<svg id="Слой_1" xmlns="http://www.w3.org/2000/svg" viewBox="0 0 29.5 29.1"><style>.st0{fill:#3a475b}</style><path class="st0" d="M127.8 689h-27.4c-.1 0-.3-.2-.2-.3 0-.1.1-.2.2-.2h27.4c.1 0 .3.2.2.3 0 .1-.1.2-.2.2zM108.9 686.9h-7.8v-10.3c0-.4.3-.7.7-.7h6.5c.4 0 .7.3.7.7l-.1 10.3zm-7.1-.6h6.5v-9.7h-6.5v9.7zM118 686.9h-7.8v-14.2c0-.4.3-.7.7-.7h6.5c.4 0 .7.3.7.7l-.1 14.2zm-7.2-.6h6.5v-13.6h-6.5v13.6z" transform="translate(-100.141 -659.862)"/><path class="st0" d="M126.9 686.9h-7.8v-19.3h-1.6c-.4 0-.7-.1-.9-.4-.2-.3-.2-.7 0-.9l5.9-6.2c.3-.3.7-.3.9 0l6 6.3c.2.3.2.7 0 .9-.2.2-.4.3-.6.3h-1.9v19.3zm-7.2-.6h6.5V667h2.5c.1 0 .1 0 .2-.1v-.1l-6-6.3h-.1l-5.9 6.2v.1c.1.1.3.2.5.2h2.2l.1 19.3z" transform="translate(-100.141 -659.862)"/></svg>