<svg xmlns="http://www.w3.org/2000/svg" width="29.476" height="29.124" viewBox="0 0 29.476 29.124"><g transform="translate(-100.141 -659.862)"><path d="M127.812,739.132H100.369a.271.271,0,0,1,0-.536h27.443a.271.271,0,0,1,0,.536Z" transform="translate(0 -50.146)" fill="#3a475b"/><path d="M110.751,716.667h-7.773V706.384a.659.659,0,0,1,.659-.659h6.455a.659.659,0,0,1,.659.659Zm-7.158-.615h6.543v-9.669a.044.044,0,0,0-.044-.044h-6.455a.044.044,0,0,0-.044.044Z" transform="translate(-1.84 -29.752)" fill="#3a475b"/><path d="M136.562,709.4h-7.773V695.184a.659.659,0,0,1,.659-.659H135.9a.659.659,0,0,1,.659.659Zm-7.158-.615h6.543v-13.6a.044.044,0,0,0-.044-.044h-6.455a.044.044,0,0,0-.044.044Z" transform="translate(-18.584 -22.487)" fill="#3a475b"/><path d="M156.967,686.915h-7.773v-19.32h-1.587a1.3,1.3,0,0,1-.939-.4.7.7,0,0,1,0-.946l5.881-6.187a.662.662,0,0,1,.942,0l6,6.314h0a.693.693,0,0,1,0,.946.891.891,0,0,1-.644.277h-1.882Zm-7.158-.615h6.544V666.98h2.5a.276.276,0,0,0,.2-.085.077.077,0,0,0,0-.1h0l-6-6.313h-.051l-5.882,6.187a.078.078,0,0,0,0,.1.685.685,0,0,0,.494.212h2.2Z" transform="translate(-30.062 0)" fill="#3a475b"/></g></svg>