<svg xmlns="http://www.w3.org/2000/svg" width="755" height="10.295" viewBox="0 0 755 10.295"><path d="M340,1788.5a.5.5,0,0,0,0,1Zm378.345,9.28-.336-.37Zm-2.69,0-.337.37Zm-9.083-8.26-.336.37Zm20.856,0-.337-.37Zm367.072-1.02H728.773v1H1094.5Zm-389.273,0H340v1H705.227Zm21.864.65-9.082,8.26.673.74,9.082-8.26Zm-11.1,8.26-9.083-8.26-.672.74,9.082,8.26Zm2.018,0a1.5,1.5,0,0,1-2.018,0l-.673.74a2.516,2.516,0,0,0,3.364,0Zm-12.782-7.91a1.5,1.5,0,0,1,1.009.39l.672-.74a2.49,2.49,0,0,0-1.681-.65Zm23.546-1a2.494,2.494,0,0,0-1.682.65l.673.74a1.5,1.5,0,0,1,1.009-.39Z" transform="translate(-339.5 -1788.5)" fill="#e5e5e5"/></svg>