<svg xmlns="http://www.w3.org/2000/svg" width="45.469" height="29.008" viewBox="0 0 45.469 29.008"><g transform="translate(-56.846 -660.124)"><path d="M91.223,696.386a13.336,13.336,0,0,1-4.2-.906l-.437-.146.228-.342c.066-.1.133-.193.2-.283a3.85,3.85,0,0,0,.31-.484A2.3,2.3,0,0,0,85.5,691.08c-.525-.031-.736-.261-.726-.794a2.3,2.3,0,0,0-1.922-2.314.768.768,0,0,1-.747-.911,2.261,2.261,0,0,0-.9-1.835,2.171,2.171,0,0,0-1.919-.384,2.276,2.276,0,0,0-1.166,1.039c-.045.063-.085.114-.132.175l-.413.538-.207-.507a2.509,2.509,0,0,0-1.621-1.618,1.836,1.836,0,0,0-2.05.611l-.242.271-.7-.841c-.412-.5-.817-.984-1.231-1.466a.658.658,0,0,1-.044-.829q2.73-4.838,5.45-9.683a.611.611,0,0,1,.39-.348.525.525,0,0,1,.432.124,7.5,7.5,0,0,0,3.7,1.2c.2.03.409.06.614.092l.5.078-.662.951c-.268.383-.527.754-.783,1.129a20.585,20.585,0,0,0-1.271,2.041,2.455,2.455,0,0,0-.266.978,1.078,1.078,0,0,0,1.22,1.342,5.3,5.3,0,0,0,3.258-1.067,7.908,7.908,0,0,0,1.925-1.9,2.3,2.3,0,0,1,1.028-.748,2.658,2.658,0,0,1,2.5.242,74.341,74.341,0,0,1,13.024,8.771,2.231,2.231,0,0,1,.893,1.513,1.869,1.869,0,0,1-.495,1.4,2.029,2.029,0,0,1-2.548.351q-2.182-1.3-4.355-2.607l-1.916-1.15c-.145-.086-.29-.172-.433-.262-.174-.111-.235-.1-.237-.1s-.031.018-.063.074c-.042.074-.079.138.166.286q.859.521,1.723,1.035l4.194,2.5a1.453,1.453,0,0,1,.584,2.16,2.27,2.27,0,0,1-2.864.833q-1.871-1.078-3.739-2.161l-1.735-1c-.185-.105-.226-.038-.247,0a.176.176,0,0,0-.032.119.275.275,0,0,0,.134.131q1.018.586,2.032,1.18l1.283.747q.973.564,1.95,1.119a.752.752,0,0,1,.427.838,2.051,2.051,0,0,1-.914,1.608,2.6,2.6,0,0,1-2.275.01A25.507,25.507,0,0,1,91.4,692.8c-.387-.2-.773-.4-1.163-.585-.076-.037-.153-.07-.231-.1-.1-.043-.2-.087-.3-.135a.255.255,0,0,0-.167-.039.2.2,0,0,0-.084.105c-.024.053-.043.094.157.19l1.138.554c.754.368,1.507.736,2.266,1.093.539.254.895.421.943.765s-.252.611-.708,1.012a2.778,2.778,0,0,1-1.757.72C91.407,696.384,91.315,696.386,91.223,696.386ZM87.579,695a10.973,10.973,0,0,0,3.9.752,2.142,2.142,0,0,0,1.367-.564,5.055,5.055,0,0,0,.468-.446,4.975,4.975,0,0,0-.556-.289c-.762-.358-1.518-.727-2.275-1.1q-.567-.277-1.136-.552a.732.732,0,0,1-.455-1.017.776.776,0,0,1,.447-.438.823.823,0,0,1,.659.07c.085.043.174.081.263.119s.172.074.256.115c.394.191.785.391,1.176.591a25.125,25.125,0,0,0,2.6,1.209,2.023,2.023,0,0,0,1.73.04,1.472,1.472,0,0,0,.615-1.15c.017-.137.01-.141-.114-.212q-.98-.558-1.955-1.122-.643-.372-1.284-.748c-.675-.394-1.351-.788-2.029-1.177a.85.85,0,0,1-.429-.515.774.774,0,0,1,.1-.6.761.761,0,0,1,1.1-.226l.21.119,1.528.885q1.868,1.081,3.738,2.161a1.657,1.657,0,0,0,1.993-.579.85.85,0,0,0-.349-1.33l-4.195-2.5q-.864-.516-1.726-1.037c-.693-.42-.5-.933-.386-1.135a.729.729,0,0,1,.456-.373.931.931,0,0,1,.725.175c.138.087.278.171.419.254l1.919,1.152q2.174,1.306,4.352,2.605a1.411,1.411,0,0,0,1.752-.222,1.239,1.239,0,0,0,.343-.931,1.624,1.624,0,0,0-.664-1.08,73.72,73.72,0,0,0-12.915-8.7,2.009,2.009,0,0,0-1.948-.229,1.729,1.729,0,0,0-.778.541,8.541,8.541,0,0,1-2.077,2.056,5.946,5.946,0,0,1-3.633,1.18,1.689,1.689,0,0,1-1.832-2.016,3.069,3.069,0,0,1,.335-1.223,20.984,20.984,0,0,1,1.309-2.1c.257-.377.518-.75.787-1.136l.085-.122-.108-.016a8.281,8.281,0,0,1-3.9-1.259q-2.71,4.828-5.432,9.649a.653.653,0,0,0-.045.089l.018.021c.416.485.824.976,1.238,1.474l.245.295a2.394,2.394,0,0,1,2.446-.536,2.969,2.969,0,0,1,1.79,1.5,2.636,2.636,0,0,1,1.4-1.125,2.789,2.789,0,0,1,2.472.49,2.884,2.884,0,0,1,1.143,2.341.541.541,0,0,0,.021.228h0a.476.476,0,0,0,.194.054A2.926,2.926,0,0,1,85.4,690.3a.943.943,0,0,0,.005.139.883.883,0,0,0,.13.016,2.924,2.924,0,0,1,2.349,4.055A3.856,3.856,0,0,1,87.579,695Z" transform="translate(-9.297 -7.722)" fill="#4c3b7b"/><path d="M118.16,683.651a.958.958,0,0,1-.612-.253,71.585,71.585,0,0,0-13.808-9.063.721.721,0,0,0-.559-.039,4.134,4.134,0,0,0-2.7,1.688,5.54,5.54,0,0,1-2.776,2.057,4.773,4.773,0,0,1-1.658.287h-.008a1.019,1.019,0,0,1-.78-.239,1.032,1.032,0,0,1-.188-.821,3.247,3.247,0,0,1,.609-1.526l.063-.1c.671-1.089,1.43-2.135,2.165-3.147.3-.409.594-.818.886-1.23a1.911,1.911,0,0,1,1.022-.689,15.375,15.375,0,0,1,3.507-.612,22.821,22.821,0,0,1,2.7-.124,18.764,18.764,0,0,1,5.663.787,5.626,5.626,0,0,0,3.487-.021.592.592,0,0,1,.791.328l3.5,6.222q.286.508.568,1.017c.409.735.832,1.5,1.264,2.233a.682.682,0,0,1-.151.973c-.191.179-.377.363-.563.547a9.108,9.108,0,0,1-1.885,1.557A1.1,1.1,0,0,1,118.16,683.651Zm-14.721-10.019a1.274,1.274,0,0,1,.577.14,72.188,72.188,0,0,1,13.93,9.141c.175.143.224.145.44.023a8.505,8.505,0,0,0,1.752-1.456c.19-.189.38-.378.577-.561a.568.568,0,0,0,.09-.1s-.015-.035-.052-.1c-.435-.743-.86-1.507-1.271-2.246q-.282-.507-.566-1.014l-3.5-6.222-.026-.045a6.364,6.364,0,0,1-3.856.04,18.238,18.238,0,0,0-5.49-.768h-.028a21.947,21.947,0,0,0-2.636.122,14.849,14.849,0,0,0-3.366.583,1.276,1.276,0,0,0-.7.455c-.293.415-.592.826-.89,1.236-.727,1-1.48,2.039-2.138,3.107l-.064.1a2.728,2.728,0,0,0-.516,1.235c-.018.283.014.342.02.352s.064.056.328.04a4.149,4.149,0,0,0,1.441-.248,4.928,4.928,0,0,0,2.473-1.817,4.766,4.766,0,0,1,3.07-1.949A1.718,1.718,0,0,1,103.439,673.632Z" transform="translate(-24.49 -6.215)" fill="#4c3b7b"/><path d="M159.065,676.075a.544.544,0,0,1-.14-.018.793.793,0,0,1-.466-.425q-1.406-2.506-2.818-5.008l-1.458-2.59q-1.291-2.292-2.579-4.584c-.457-.814-.394-1.042.419-1.528l.432-.258c.705-.42,1.434-.855,2.131-1.308a.852.852,0,0,1,.662-.171.842.842,0,0,1,.5.449q1.588,2.842,3.189,5.678l3.747,6.655a.9.9,0,0,1,.168.524.634.634,0,0,1-.365.607q-1.513.919-3.019,1.848A.763.763,0,0,1,159.065,676.075Zm-3.975-15.281a1.49,1.49,0,0,0-.162.089c-.707.46-1.442.9-2.152,1.321l-.431.258a2.114,2.114,0,0,0-.4.278,4.422,4.422,0,0,0,.211.4q1.288,2.293,2.579,4.584l1.459,2.589q1.411,2.5,2.818,5.009a.758.758,0,0,0,.076.115.406.406,0,0,0,.051-.028q1.508-.932,3.024-1.851c.032-.019.051-.032.063-.041v-.052c0-.037-.021-.082-.077-.174l-.049-.083-3.708-6.59q-1.6-2.839-3.19-5.68A.506.506,0,0,0,155.09,660.794Z" transform="translate(-60.536 -0.028)" fill="#4c3b7b"/><path d="M60.62,676.029a.942.942,0,0,1-.5-.175c-1.013-.653-2.034-1.261-2.81-1.717a.774.774,0,0,1-.3-1.2q2.693-4.75,5.368-9.511l1.485-2.637c.052-.09.1-.181.153-.273a.63.63,0,0,1,.984-.258c.676.423,1.357.839,2.039,1.254l.888.542a.822.822,0,0,1,.476.672l.005.084-.091.188c-.047.1-.1.206-.156.309L63,672.465c-.577,1.024-1.155,2.048-1.724,3.075a.868.868,0,0,1-.51.471A.6.6,0,0,1,60.62,676.029ZM64.6,660.762a.523.523,0,0,0-.034.056c-.052.1-.107.193-.162.288l-1.483,2.633q-2.68,4.759-5.369,9.512c-.128.225-.12.23.075.345.781.459,1.809,1.071,2.831,1.73a.416.416,0,0,0,.158.075,1.137,1.137,0,0,0,.108-.164q.855-1.544,1.726-3.079L67.612,663c.05-.089.094-.183.135-.27l.01-.021a.516.516,0,0,0-.157-.116l-.89-.543c-.684-.417-1.367-.833-2.045-1.258A.482.482,0,0,0,64.6,660.762Z" transform="translate(0 0)" fill="#4c3b7b"/><path d="M84.7,715.566h-.071a1.992,1.992,0,0,1-1.742-1.155,1.754,1.754,0,0,1,.167-1.947c.551-.735,1.1-1.475,1.639-2.216q.6-.819,1.206-1.636a1.509,1.509,0,0,1,1.8-.536,2.113,2.113,0,0,1,1.315,1.4,1.835,1.835,0,0,1-.347,1.7c-.663.821-1.291,1.7-1.9,2.55q-.38.532-.763,1.061A1.6,1.6,0,0,1,84.7,715.566Zm-.038-.629c.319.02.551-.133.834-.52.255-.35.508-.7.76-1.056.612-.858,1.246-1.744,1.921-2.58a1.222,1.222,0,0,0,.231-1.131,1.5,1.5,0,0,0-.916-.979.9.9,0,0,0-1.089.316q-.605.815-1.2,1.633c-.545.742-1.09,1.484-1.643,2.221a1.119,1.119,0,0,0-.108,1.287A1.376,1.376,0,0,0,84.659,714.937Z" transform="translate(-16.544 -30.66)" fill="#4c3b7b"/><path d="M93.87,723.514c-.041,0-.081,0-.122,0a2,2,0,0,1-1.59-1.075,1.81,1.81,0,0,1,.175-2.083q.239-.318.481-.634c.515-.675,1.048-1.374,1.514-2.093a1.6,1.6,0,0,1,1.266-.786,1.935,1.935,0,0,1,1.555.684,1.757,1.757,0,0,1,.5,1.334,1.483,1.483,0,0,1-.312,1c-.358.489-.712.979-1.067,1.47-.375.519-.749,1.037-1.128,1.553A1.549,1.549,0,0,1,93.87,723.514Zm1.831-6.05-.066,0a.993.993,0,0,0-.781.5c-.478.738-1.019,1.447-1.541,2.132q-.24.315-.478.63a1.2,1.2,0,0,0-.124,1.409,1.374,1.374,0,0,0,1.081.745.934.934,0,0,0,.841-.38q.567-.771,1.125-1.549c.355-.492.71-.984,1.069-1.473a.854.854,0,0,0,.191-.6l0-.03,0-.03a1.144,1.144,0,0,0-.348-.884A1.327,1.327,0,0,0,95.7,717.464Z" transform="translate(-22.466 -36.339)" fill="#4c3b7b"/><path d="M103.934,731.019a1.235,1.235,0,0,1-.176-.013,1.833,1.833,0,0,1-1.73-1.028,1.715,1.715,0,0,1,.148-2.045c.3-.382.591-.787.871-1.179.131-.183.262-.366.394-.547a1.568,1.568,0,0,1,2.072-.525,2.181,2.181,0,0,1,1.164,1.456,1.722,1.722,0,0,1-.378,1.507c-.354.42-.683.881-1,1.327q-.149.209-.3.417A1.311,1.311,0,0,1,103.934,731.019Zm-.139-.644.035.006c.163.028.388.014.66-.361q.149-.206.3-.413c.326-.456.663-.927,1.033-1.366a1.091,1.091,0,0,0,.244-.967,1.531,1.531,0,0,0-.818-1.022.942.942,0,0,0-1.3.327c-.131.18-.261.361-.391.542-.285.4-.579.808-.888,1.2a1.089,1.089,0,0,0-.1,1.342,1.21,1.21,0,0,0,1.188.713Z" transform="translate(-28.778 -41.886)" fill="#4c3b7b"/><path d="M77.058,711.732H77a1.944,1.944,0,0,1-1.612-1.118,1.673,1.673,0,0,1,.151-1.948c.178-.223.344-.456.51-.689.1-.139.2-.279.3-.417a1.509,1.509,0,0,1,1.686-.579,2.145,2.145,0,0,1,1.467,1.45,1.662,1.662,0,0,1-.348,1.627,9.93,9.93,0,0,0-.808,1.071A1.429,1.429,0,0,1,77.058,711.732Zm-.033-.629a.774.774,0,0,0,.8-.33,10.562,10.562,0,0,1,.861-1.138,1.045,1.045,0,0,0,.212-1.026,1.527,1.527,0,0,0-1.024-1.021.882.882,0,0,0-1.022.345c-.1.135-.2.272-.295.408-.169.237-.343.482-.53.717a1.046,1.046,0,0,0-.088,1.26A1.345,1.345,0,0,0,77.025,711.1Z" transform="translate(-11.723 -29.984)" fill="#4c3b7b"/></g></svg>