<svg xmlns="http://www.w3.org/2000/svg" width="25.253" height="25.253" viewBox="0 0 25.253 25.253">
  <g id="Group_2923" data-name="Group 2923" transform="translate(-1041.031 -115.873)">
    <path id="Path_3650" data-name="Path 3650" d="M1.8,2.176l29.368-.162A1.525,1.525,0,0,1,32.7,3.552,1.566,1.566,0,0,1,31.15,5.106L1.782,5.268A1.525,1.525,0,0,1,.245,3.731,1.566,1.566,0,0,1,1.8,2.176Z" transform="translate(1044.583 114.276) rotate(45)" fill="#fff"/>
    <path id="Path_3651" data-name="Path 3651" d="M1.448-.09,30.816.072A1.566,1.566,0,0,1,32.37,1.627a1.525,1.525,0,0,1-1.537,1.537L1.465,3A1.566,1.566,0,0,1-.09,1.448,1.525,1.525,0,0,1,1.448-.09Z" transform="translate(1066.157 118.174) rotate(135)" fill="#fff"/>
  </g>
</svg>
