<svg xmlns="http://www.w3.org/2000/svg" width="25.696" height="29" viewBox="0 0 25.696 29"><g transform="translate(-625.009 -660.752)"><path d="M652.974,669.18a.24.24,0,0,1-.239-.238v-.99a.238.238,0,0,1,.095-.19.241.241,0,0,1,.209-.039,1.1,1.1,0,0,0,.3.045h4.172a1.087,1.087,0,0,0,.3-.046.241.241,0,0,1,.208.04.239.239,0,0,1,.095.19v.99a.238.238,0,0,1-.285.233,12.382,12.382,0,0,0-4.808,0A.227.227,0,0,1,652.974,669.18Zm2.451-.719a12.727,12.727,0,0,1,2.213.192v-.415c-.042,0-.083.006-.125.006h-4.172c-.043,0-.086,0-.129-.006v.415A12.708,12.708,0,0,1,655.425,668.462Z" transform="translate(-17.567 -4.412)" fill="#3a475b"/><path d="M631.7,677.32a.238.238,0,0,1-.169-.07l-.769-.769a1,1,0,0,1-.3-.717.987.987,0,0,1,.3-.7l.844-.85a1.029,1.029,0,0,1,1.42,0l.825.824a.239.239,0,0,1,.069.184.236.236,0,0,1-.093.174,12.847,12.847,0,0,0-1.948,1.845.235.235,0,0,1-.172.083Zm.62-2.928a.535.535,0,0,0-.376.155l-.844.85a.517.517,0,0,0-.158.369.527.527,0,0,0,.157.377l.59.59a13.294,13.294,0,0,1,1.637-1.553l-.635-.635A.519.519,0,0,0,632.322,674.393Z" transform="translate(-3.458 -8.347)" fill="#3a475b"/><path d="M637.858,695.456a12.851,12.851,0,1,1,12.848-12.848A12.863,12.863,0,0,1,637.858,695.456Zm0-25.225a12.374,12.374,0,1,0,12.371,12.377A12.388,12.388,0,0,0,637.858,670.231Z" transform="translate(0 -5.704)" fill="#3a475b"/><path d="M640.976,696.77a11.048,11.048,0,1,1,11.045-11.045A11.058,11.058,0,0,1,640.976,696.77Zm0-21.619a10.571,10.571,0,1,0,10.568,10.574A10.583,10.583,0,0,0,640.976,675.151Z" transform="translate(-3.118 -8.821)" fill="#3a475b"/><path d="M656.919,692.312a.239.239,0,0,1-.236-.271l.819-5.865a.428.428,0,0,1,.844-.011l.82,5.876a.238.238,0,0,1-.431.17.992.992,0,0,0-1.622,0A.238.238,0,0,1,656.919,692.312Zm1.006-1a1.461,1.461,0,0,1,.682.166l-.682-4.888-.682,4.888A1.461,1.461,0,0,1,657.925,691.313Z" transform="translate(-20.067 -15.879)" fill="#3a475b"/><path d="M657.533,703.757a1.467,1.467,0,1,1,1.47-1.464A1.469,1.469,0,0,1,657.533,703.757Zm0-2.457a.99.99,0,1,0,.993.993A.995.995,0,0,0,657.533,701.3Z" transform="translate(-19.676 -25.389)" fill="#3a475b"/><path d="M656.077,663.834H651.9a1.438,1.438,0,0,1-1.437-1.436v-.209a1.439,1.439,0,0,1,1.437-1.437h4.172a1.436,1.436,0,0,1,1.431,1.437v.209A1.435,1.435,0,0,1,656.077,663.834Zm-4.172-2.606a.961.961,0,0,0-.96.96v.209a.96.96,0,0,0,.96.96h4.172a.958.958,0,0,0,.955-.96v-.209a.958.958,0,0,0-.955-.96Z" transform="translate(-16.131)" fill="#3a475b"/><path d="M659.664,678.72a.238.238,0,0,1-.238-.238v-.869a.238.238,0,0,1,.477,0v.869A.238.238,0,0,1,659.664,678.72Z" transform="translate(-21.807 -10.532)" fill="#3a475b"/><path d="M671.874,682.19a.238.238,0,0,1-.206-.357l.434-.753a.238.238,0,1,1,.413.238l-.434.753A.239.239,0,0,1,671.874,682.19Z" transform="translate(-29.543 -12.804)" fill="#3a475b"/><path d="M680.817,691.689a.238.238,0,0,1-.121-.444l.753-.439a.238.238,0,1,1,.24.411l-.753.44A.243.243,0,0,1,680.817,691.689Z" transform="translate(-35.209 -19.021)" fill="#3a475b"/><path d="M684.965,704.66H684.1a.238.238,0,1,1,0-.476h.862a.238.238,0,1,1,0,.476Z" transform="translate(-37.29 -27.518)" fill="#3a475b"/><path d="M681.569,717.307a.237.237,0,0,1-.119-.032l-.753-.435a.238.238,0,0,1,.239-.412l.753.435a.238.238,0,0,1-.119.444Z" transform="translate(-35.209 -35.256)" fill="#3a475b"/><path d="M672.309,726.562a.237.237,0,0,1-.206-.119l-.434-.747a.238.238,0,0,1,.411-.239l.434.747a.239.239,0,0,1-.205.358Z" transform="translate(-29.543 -40.921)" fill="#3a475b"/><path d="M659.664,729.953a.238.238,0,0,1-.238-.238v-.869a.238.238,0,1,1,.477,0v.869A.238.238,0,0,1,659.664,729.953Z" transform="translate(-21.807 -42.993)" fill="#3a475b"/><path d="M646.266,726.562a.235.235,0,0,1-.119-.033.238.238,0,0,1-.086-.325l.434-.747a.238.238,0,0,1,.411.239l-.435.747A.237.237,0,0,1,646.266,726.562Z" transform="translate(-13.317 -40.921)" fill="#3a475b"/><path d="M636.454,717.307a.238.238,0,0,1-.119-.445l.754-.435a.238.238,0,0,1,.238.413l-.754.435A.241.241,0,0,1,636.454,717.307Z" transform="translate(-7.101 -35.256)" fill="#3a475b"/><path d="M633.737,704.66h-.868a.238.238,0,1,1,0-.476h.868a.238.238,0,1,1,0,.476Z" transform="translate(-4.829 -27.518)" fill="#3a475b"/><path d="M637.208,691.689a.239.239,0,0,1-.119-.032l-.754-.44a.238.238,0,0,1,.24-.411l.754.439a.238.238,0,0,1-.12.444Z" transform="translate(-7.101 -19.022)" fill="#3a475b"/><path d="M646.7,682.19a.239.239,0,0,1-.207-.119l-.435-.753a.238.238,0,1,1,.413-.238l.435.753a.238.238,0,0,1-.206.357Z" transform="translate(-13.317 -12.804)" fill="#3a475b"/></g></svg>