<svg id="Слой_1" xmlns="http://www.w3.org/2000/svg" viewBox="0 0 25.7 29"><style>.st0{fill:#3a475b}</style><path class="st0" d="M635.4 664.8c-.1 0-.2-.1-.2-.2v-1c0-.1 0-.1.1-.2.1 0 .1-.1.2 0h5c.1 0 .1.1.1.2v1c0 .1-.1.2-.2.2-1.7-.4-3.4-.4-5 0zm2.5-.8c.7 0 1.5.1 2.2.2v-.4h-4.3-.1v.4c.7-.1 1.4-.2 2.2-.2zM628.2 669c-.1 0-.1 0-.2-.1l-.8-.8c-.2-.2-.3-.4-.3-.7 0-.3.1-.5.3-.7l.8-.8c.4-.4 1-.4 1.4 0l.8.8s.1.1.1.2 0 .1-.1.2c-.7.5-1.4 1.2-1.9 1.8.1 0 0 .1-.1.1zm.7-3c-.1 0-.3.1-.4.2l-.8.8c-.1.1-.2.2-.2.4 0 .1.1.3.2.4l.6.6c.5-.6 1-1.1 1.6-1.6l-.6-.6c-.2-.1-.3-.2-.4-.2z" transform="translate(-625.009 -660.752)"/><path class="st0" d="M637.9 689.8c-7.1 0-12.9-5.8-12.9-12.8 0-7.1 5.8-12.9 12.8-12.9 7.1 0 12.9 5.8 12.9 12.8 0 7.1-5.7 12.8-12.8 12.9zm0-25.3c-6.8 0-12.4 5.5-12.4 12.4 0 6.8 5.5 12.4 12.4 12.4 6.8 0 12.4-5.5 12.4-12.4-.1-6.8-5.6-12.4-12.4-12.4z" transform="translate(-625.009 -660.752)"/><path class="st0" d="M637.9 687.9c-6.1 0-11-4.9-11.1-11s4.9-11 11-11.1 11 4.9 11.1 11c0 6.2-4.9 11.1-11 11.1zm0-21.6c-5.8 0-10.6 4.7-10.6 10.6 0 5.8 4.7 10.6 10.6 10.6 5.8 0 10.6-4.7 10.6-10.6-.1-5.8-4.8-10.6-10.6-10.6z" transform="translate(-625.009 -660.752)"/><path class="st0" d="M636.9 676.4c-.1 0-.2-.1-.2-.2l.8-5.9c0-.2.3-.4.5-.4s.3.2.4.3l.8 5.9c0 .1-.1.3-.2.3s-.2 0-.2-.1c-.3-.4-.9-.6-1.4-.2-.1.1-.2.1-.2.2-.2.1-.3.1-.3.1zm1-1c.2 0 .5.1.7.2l-.7-4.9-.7 4.9c.2-.1.4-.2.7-.2z" transform="translate(-625.009 -660.752)"/><path class="st0" d="M637.9 678.4c-.8 0-1.5-.7-1.5-1.5s.7-1.5 1.5-1.5 1.5.7 1.5 1.5c-.1.8-.7 1.5-1.5 1.5zm0-2.5c-.5 0-1 .4-1 1s.4 1 1 1c.5 0 1-.4 1-1-.1-.5-.5-1-1-1zM639.9 663.8h-4.2c-.8 0-1.4-.6-1.4-1.4v-.2c0-.8.6-1.4 1.4-1.4h4.2c.8 0 1.4.6 1.4 1.4v.2c.1.8-.6 1.4-1.4 1.4zm-4.1-2.6c-.5 0-1 .4-1 1v.2c0 .5.4 1 1 1h4.2c.5 0 1-.4 1-1v-.2c0-.5-.4-1-1-1h-4.2zM637.9 668.2c-.1 0-.2-.1-.2-.2v-.9c0-.1.1-.2.2-.2s.2.1.2.2v.9c0 .1-.1.2-.2.2zM642.3 669.4c-.1 0-.2-.1-.2-.2v-.1l.4-.8c.1-.1.2-.2.3-.1s.2.2.1.3l-.4.8s-.1.1-.2.1zM645.6 672.7c-.1 0-.2-.1-.2-.2s0-.2.1-.2l.8-.4c.1-.1.3 0 .3.1s0 .3-.1.3l-.8.4h-.1zM647.7 677.1h-.9c-.1 0-.2-.1-.2-.2s.1-.2.2-.2h.9c.1 0 .2.1.2.2s-.1.2-.2.2zM646.4 682.1h-.1l-.8-.4c-.1-.1-.2-.2-.1-.3s.2-.2.3-.1l.8.4c.1.1.2.2.1.3-.1 0-.2.1-.2.1zM642.8 685.6c-.1 0-.2 0-.2-.1l-.4-.7c-.1-.1 0-.3.1-.3.1-.1.2 0 .3.1l.4.7c.1.1 0 .3-.1.3h-.1zM637.9 687c-.1 0-.2-.1-.2-.2v-.9c0-.1.1-.2.2-.2s.2.1.2.2v.9c0 .1-.1.2-.2.2zM632.9 685.6h-.1c-.1-.1-.2-.2-.1-.3l.4-.7c.1-.1.2-.1.3-.1.1.1.1.2.1.3l-.4.7c0 .1-.1.1-.2.1zM629.4 682.1c-.1 0-.2-.1-.2-.2s0-.2.1-.2l.8-.4c.1-.1.3 0 .3.1s0 .3-.1.3l-.8.4c-.1-.1-.1 0-.1 0zM628.9 677.1h-.9c-.1 0-.2-.1-.2-.2s.1-.2.2-.2h.9c.1 0 .2.1.2.2s-.1.2-.2.2zM630.1 672.7h-.1l-.8-.4c-.1-.1-.1-.2-.1-.3.1-.1.2-.1.3-.1l.8.4c.1.1.2.2.1.3 0 0-.1.1-.2.1zM633.4 669.4c-.1 0-.2 0-.2-.1l-.4-.8c-.1-.1 0-.3.1-.3s.3 0 .3.1l.4.8c.1.1 0 .3-.1.3h-.1z" transform="translate(-625.009 -660.752)"/></svg>