<svg xmlns="http://www.w3.org/2000/svg" width="52.187" height="38.926" viewBox="0 0 52.187 38.926"><g transform="translate(-896 -1260)"><path d="M911.158,1275.009a3.539,3.539,0,1,1,3.546-3.546A3.554,3.554,0,0,1,911.158,1275.009Zm0-6.222a2.683,2.683,0,1,0,2.69,2.676A2.688,2.688,0,0,0,911.158,1268.786Z" transform="translate(3.927 2.682)" fill="#3a475b"/><path d="M917.592,1282.451a.425.425,0,0,1-.428-.428v-4.617a2.885,2.885,0,0,0-2.893-2.877h-4.784a2.893,2.893,0,0,0-2.893,2.877v4.617a.429.429,0,0,1-.858,0v-4.617a3.755,3.755,0,0,1,3.751-3.747h4.784a3.754,3.754,0,0,1,3.749,3.747v4.617A.424.424,0,0,1,917.592,1282.451Zm-2.075,0a.425.425,0,0,1-.428-.428v-2.516a.428.428,0,0,1,.856,0v2.516A.425.425,0,0,1,915.516,1282.451Zm-7.276,0a.425.425,0,0,1-.428-.428v-2.516a.428.428,0,1,1,.856,0v2.516A.425.425,0,0,1,908.241,1282.451Z" transform="translate(3.292 4.619)" fill="#3a475b"/><path d="M910.732,1280.336a.425.425,0,0,1-.428-.428v-4.2h-.751a.428.428,0,1,1,0-.856h2.359a.428.428,0,1,1,0,.856h-.751v4.2A.425.425,0,0,1,910.732,1280.336Z" transform="translate(4.438 5.021)" fill="#3a475b"/><path d="M917.592,1280.446H906.166a.426.426,0,0,1-.43-.428.434.434,0,0,1,.43-.428h11.426a.433.433,0,0,1,.428.428A.424.424,0,0,1,917.592,1280.446Z" transform="translate(3.292 6.624)" fill="#3a475b"/><path d="M921.5,1275.009a3.539,3.539,0,1,1,3.545-3.546A3.554,3.554,0,0,1,921.5,1275.009Zm0-6.222a2.683,2.683,0,1,0,2.688,2.676A2.689,2.689,0,0,0,921.5,1268.786Z" transform="translate(7.424 2.682)" fill="#3a475b"/><path d="M927.935,1282.451a.425.425,0,0,1-.43-.428v-4.617a2.885,2.885,0,0,0-2.893-2.877h-4.784a2.893,2.893,0,0,0-2.893,2.877v4.617a.428.428,0,0,1-.856,0v-4.617a3.755,3.755,0,0,1,3.75-3.747h4.784a3.755,3.755,0,0,1,3.751,3.747v4.617A.425.425,0,0,1,927.935,1282.451Zm-2.077,0a.425.425,0,0,1-.428-.428v-2.516a.428.428,0,1,1,.856,0v2.516A.425.425,0,0,1,925.858,1282.451Zm-7.275,0a.425.425,0,0,1-.428-.428v-2.516a.428.428,0,0,1,.856,0v2.516A.425.425,0,0,1,918.583,1282.451Z" transform="translate(6.789 4.619)" fill="#3a475b"/><path d="M921.075,1280.336a.424.424,0,0,1-.428-.428v-4.2H919.9a.428.428,0,0,1,0-.856h2.359a.428.428,0,1,1,0,.856H921.5v4.2A.425.425,0,0,1,921.075,1280.336Z" transform="translate(7.935 5.021)" fill="#3a475b"/><path d="M927.935,1280.446H916.507a.424.424,0,0,1-.428-.428.433.433,0,0,1,.428-.428h11.428a.434.434,0,0,1,.428.428A.425.425,0,0,1,927.935,1280.446Z" transform="translate(6.789 6.624)" fill="#3a475b"/><path d="M947.759,1286.456H896.428a.428.428,0,1,1,0-.856h51.331a.428.428,0,1,1,0,.856Z" transform="translate(0 8.656)" fill="#3a475b"/><path d="M947.759,1289.306H896.428a.428.428,0,0,1,0-.856h51.331a.428.428,0,0,1,0,.856Z" transform="translate(0 9.62)" fill="#3a475b"/><path d="M902.493,1273.74a.417.417,0,0,1-.289-.12c-.64-.575-1.187-1.057-1.654-1.459-2.821-2.462-2.874-2.6-2.834-6.865.013-.549.013-1.177.013-1.9a.415.415,0,0,1,.151-.321.436.436,0,0,1,.356-.094,5.229,5.229,0,0,0,4.02-.8.412.412,0,0,1,.514.04,4.888,4.888,0,0,0,3.968.763.4.4,0,0,1,.343.094.43.43,0,0,1,.145.321c0,.91.013,1.673.027,2.328.066,3.787.013,3.907-2.927,6.517-.44.388-.955.843-1.542,1.378A.417.417,0,0,1,902.493,1273.74Zm-3.907-9.849c0,.522-.007.99-.007,1.418-.034,3.961-.034,3.961,2.537,6.209.4.348.856.736,1.377,1.2q.712-.643,1.266-1.124c2.7-2.409,2.7-2.409,2.643-5.874-.007-.522-.02-1.138-.027-1.847a5.679,5.679,0,0,1-3.907-.816A6.02,6.02,0,0,1,898.585,1263.891Z" transform="translate(0.578 0.712)" fill="#3a475b"/><path d="M900.526,1268.086a.271.271,0,0,1-.146-.027.412.412,0,0,1-.25-.241l-.836-2.007a.433.433,0,0,1,.23-.562.425.425,0,0,1,.561.241l.652,1.579,3.823-2.007a.438.438,0,0,1,.579.174.443.443,0,0,1-.178.589l-4.236,2.221A.53.53,0,0,1,900.526,1268.086Z" transform="translate(1.102 1.695)" fill="#3a475b"/><path d="M901.781,1269.85h-.856v21.731h.856Z" transform="translate(1.665 3.331)" fill="#3a475b"/><path d="M937.908,1260H902.955a2.031,2.031,0,0,0-2.03,2.034v1.512h.856v-1.512a1.175,1.175,0,0,1,1.18-1.177h34.953a1.18,1.18,0,0,1,1.167,1.177v33.132h.856v-33.132A2.04,2.04,0,0,0,937.908,1260Z" transform="translate(1.665)" fill="#3a475b"/></g></svg>