<svg xmlns="http://www.w3.org/2000/svg" width="950.086" height="512.82" viewBox="0 0 950.086 512.82">
  <g id="Group_4616" data-name="Group 4616" transform="translate(1545.086 -410.5)">
    <path id="Path_1571" data-name="Path 1571" d="M1096.15,525.5A23.854,23.854,0,0,1,1120,549.361V1034.87H320.013V549.361A23.854,23.854,0,0,1,343.861,525.5Z" transform="translate(-1790 -114.5)" fill="#f5f6f7" stroke="#4c3b7b" stroke-width="1"/>
    <path id="Path_1572" data-name="Path 1572" d="M720.007,531.214a4.345,4.345,0,1,0-4.343-4.346A4.345,4.345,0,0,0,720.007,531.214Z" transform="translate(-1790 -93.5)" fill="#f5f6f7" stroke="#4c3b7b" stroke-width="1"/>
    <path id="Path_1573" data-name="Path 1573" d="M333.01,1037.32a426.67,426.67,0,0,1-44.781-2.45,184.44,184.44,0,0,1-25.468-4.46c-6.9-1.82-12.64-4.09-16.36-6.91h947c-3.72,2.82-9.47,5.09-16.36,6.92a186.2,186.2,0,0,1-25.47,4.46,428.779,428.779,0,0,1-44.78,2.44Z" transform="translate(-1790 -114.5)" fill="#f5f6f7" stroke="#4c3b7b" stroke-width="1"/>
    <path id="Path_1574" data-name="Path 1574" d="M1194.5,1022.65h0c0,.01-.01.01-.01.02l-.03.03a1.338,1.338,0,0,1-.29.24.906.906,0,0,0-.13.08,1.115,1.115,0,0,1-.11.06l-.01.01c-.08.04-.16.1-.24.15a2.782,2.782,0,0,0-.37.26H246.622c-.015-.01-.031-.02-.049-.03-.1-.05-.23-.12-.378-.21a7.289,7.289,0,0,1-.7-.48v-15.37c0-4.25,3.029-7.572,6.644-7.572H1187.87c3.6,0,6.63,3.322,6.63,7.572Z" transform="translate(-1790 -114.5)" fill="#f5f6f7" stroke="#4c3b7b" stroke-width="1"/>
    <path id="Path_1575" data-name="Path 1575" d="M624,1000H817v5a8,8,0,0,1-8,8H632a8,8,0,0,1-8-8Z" transform="translate(-1790 -114.5)" fill="#f5f6f7" stroke="#4c3b7b" stroke-width="1"/>
  </g>
</svg>
