<svg xmlns="http://www.w3.org/2000/svg" width="950.086" height="512.82" viewBox="0 0 950.086 512.82"><g transform="translate(1545.086 -410.5)"><path d="M1096.15,525.5A23.854,23.854,0,0,1,1120,549.361V1034.87H320.013V549.361A23.854,23.854,0,0,1,343.861,525.5Z" transform="translate(-1790 -114.5)" fill="#f5f6f7" stroke="#4c3b7b" stroke-width="1"/><path d="M720.007,531.214a4.345,4.345,0,1,0-4.343-4.346A4.345,4.345,0,0,0,720.007,531.214Z" transform="translate(-1790 -93.5)" fill="#f5f6f7" stroke="#4c3b7b" stroke-width="1"/><path d="M333.01,1037.32a426.67,426.67,0,0,1-44.781-2.45,184.44,184.44,0,0,1-25.468-4.46c-6.9-1.82-12.64-4.09-16.36-6.91h947c-3.72,2.82-9.47,5.09-16.36,6.92a186.2,186.2,0,0,1-25.47,4.46,428.779,428.779,0,0,1-44.78,2.44Z" transform="translate(-1790 -114.5)" fill="#f5f6f7" stroke="#4c3b7b" stroke-width="1"/><path d="M1194.5,1022.65h0c0,.01-.01.01-.01.02l-.03.03a1.338,1.338,0,0,1-.29.24.906.906,0,0,0-.13.08,1.115,1.115,0,0,1-.11.06l-.01.01c-.08.04-.16.1-.24.15a2.782,2.782,0,0,0-.37.26H246.622c-.015-.01-.031-.02-.049-.03-.1-.05-.23-.12-.378-.21a7.289,7.289,0,0,1-.7-.48v-15.37c0-4.25,3.029-7.572,6.644-7.572H1187.87c3.6,0,6.63,3.322,6.63,7.572Z" transform="translate(-1790 -114.5)" fill="#f5f6f7" stroke="#4c3b7b" stroke-width="1"/><path d="M624,1000H817v5a8,8,0,0,1-8,8H632a8,8,0,0,1-8-8Z" transform="translate(-1790 -114.5)" fill="#f5f6f7" stroke="#4c3b7b" stroke-width="1"/><path d="M1080.63,545.893H359.38V956.925h721.25Z" transform="translate(-1790 -90.893)" fill="none" stroke="#4c3b7b" stroke-width="1"/><text transform="translate(-1070 714)" fill="#fff" font-size="16" font-family="Ubuntu"><tspan x="-70.552" y="0">Посмотреть ролик</tspan></text><g transform="translate(-1382.797 543.009)"><path d="M306.091,152.732q-2.774,0-5.535-.039c-1.228-.019-2.458-.03-3.687-.042-3.921-.037-7.975-.075-11.983-.336-4.465-.291-10.581-.688-15.626-2.738-9.845-4-10.317-15.779-10.63-23.574-.24-5.967-.229-11.893-.193-18.466,0-.737,0-1.488,0-2.249-.005-6.455-.012-13.77,2.818-19.839,3.708-7.956,11.585-9.224,19.336-9.841,5.82-.463,11.729-.6,17.443-.722,11.091-.247,22.555-.5,33.9-.069,6.044.231,11.533.632,16.783,1.226,4.6.521,9.8,1.427,13.263,5.623,3.708,4.488,4.44,10.41,4.914,16.593.092,1.215.16,2.458.206,3.8.1,3,.081,6.042.06,8.98-.01,1.369-.02,2.737-.018,4.1,0,.953.009,1.906.016,2.861a100.421,100.421,0,0,1-.652,15.051c-.97,6.74-2.924,13.958-10.07,16.4-7.328,2.5-15.055,2.652-22.526,2.8l-.636.013q-3.709.074-7.418.164C319.376,152.578,312.723,152.732,306.091,152.732Zm12.454-74.089c-6.86,0-13.706.153-20.413.3-5.661.126-11.511.256-17.215.71-7.09.564-13.187,1.519-15.979,7.509-2.448,5.252-2.442,12.089-2.437,18.121,0,.77,0,1.53,0,2.275-.036,6.522-.046,12.4.19,18.281.3,7.557.68,16.961,8.1,19.976,4.437,1.8,10.173,2.176,14.362,2.448,3.9.253,7.893.291,11.758.328,1.236.012,2.472.024,3.708.042,8.372.125,16.9-.073,25.146-.264q3.716-.086,7.431-.164l.637-.012c7.161-.14,14.565-.285,21.3-2.582,5.057-1.725,6.527-7.331,7.362-13.132a97.458,97.458,0,0,0,.61-14.444c-.007-.962-.014-1.923-.016-2.883,0-1.38.008-2.76.018-4.141.021-2.9.042-5.891-.058-8.812h0c-.044-1.286-.108-2.474-.2-3.631-.422-5.506-1.045-10.745-3.995-14.317-2.5-3.029-6.6-3.723-10.59-4.174-5.148-.582-10.539-.976-16.481-1.2C327.384,78.706,322.962,78.643,318.545,78.643Z" fill="#f5f6f7"/><path d="M360.993,130.221,333.884,114.3v31.853Z" transform="translate(-31.696 -16.681)" fill="#f5f6f7"/></g></g></svg>