<svg xmlns="http://www.w3.org/2000/svg" width="366" height="728.667" viewBox="0 0 366 728.667"><g transform="translate(-537 -2173)"><g transform="translate(1095.244 -15)"><path d="M590.31,2308.56l123.33-5.43-.145.28-48.94,95.31-.162-.21Zm122.7-5.03-122.056,5.3,73.495,89.27Z" transform="translate(-1072.619 -22.289)" fill="#4c3b7b"/><path d="M664.217,2398.6l.136-.26,48.959-95.36.151.27,52.453,96.22-.3.02Zm49.108-94.91L664.8,2398.23l100.548.91Z" transform="translate(-1072.619 -22.289)" fill="#4c3b7b"/><path d="M765.625,2399.63l-.143-.25-52.545-96.37.441.15,57.03,47.48-.108.18Zm-51.908-95.98,51.93,95.31,4.252-48.12Z" transform="translate(-1072.619 -22.289)" fill="#4c3b7b"/><path d="M710.044,2507.59l-.177-.28-45.661-109.05.3-.02,101.394.88-.1.24ZM664.81,2398.57l45.153,108.26,55.413-107.36Z" transform="translate(-1072.619 -22.289)" fill="#4c3b7b"/><path d="M589.259,2492.69l.153-.27,75.076-94.34,45.8,109.31-.3.01Zm75.251-93.93-74.644,93.57,119.822,14.74Z" transform="translate(-1072.619 -22.289)" fill="#4c3b7b"/><path d="M550.828,2416.14l.1-.28,39.655-107.5.2.23,73.96,90.02-.3.05Zm39.865-107.1-39.361,106.67,112.733-17.34Z" transform="translate(-1072.619 -22.289)" fill="#4c3b7b"/><path d="M523.763,2370.11l.167-.1,67.055-61.71-.165.47-39.672,107.5-.2-.23Zm66.546-61.01-66.034,61.09,26.755,45.38Z" transform="translate(-1072.619 -22.289)" fill="#4c3b7b"/><path d="M516.114,2474.11l7.675-104.48.358.43,27.164,45.87-.055.12Zm8.117-103.42-7.879,102.34,34.524-57.1Z" transform="translate(-1072.619 -22.289)" fill="#4c3b7b"/><path d="M515.983,2473.66l35.117-58.08.143.26,38.727,77.03-.466-.21Zm35.1-57.4-34.6,57.23,72.691,18.66Z" transform="translate(-1072.619 -22.289)" fill="#4c3b7b"/><path d="M515.585,2473.1l.708.3,73.5,19.01-.072.16,7,34.65-.179-.19Zm73.737,19.49-72.449-18.56,79.746,52.57Z" transform="translate(-1072.619 -22.289)" fill="#4c3b7b"/><path d="M596.41,2527.07l.091-.22-7.157-34.48.171.13,82.087,72.75-.676-.11Zm-6.946-34.18,7.457,33.89,73.395,37.9Z" transform="translate(-1072.619 -22.289)" fill="#4c3b7b"/><path d="M523.544,2370.65l35.035-105.29,32.319,43.39-.167.1Zm35.076-104.67-34.152,103.67,65.91-61Z" transform="translate(-1072.619 -22.289)" fill="#4c3b7b"/><path d="M590.642,2308.98l-32.319-43.39.227-.07,88.127-27.57Zm-31.757-43.21,31.75,42.65,55.082-69.82Z" transform="translate(-1072.619 -22.289)" fill="#4c3b7b"/><path d="M558.658,2265.84l-.116-.34,58.484-51.97h.044l29.977,24.65Zm58.4-51.97-55.125,50.57,83.4-26.09Z" transform="translate(-1072.619 -22.289)" fill="#4c3b7b"/><path d="M590.243,2308.91l.258-.32,55.67-70.57.138.1,67.464,65.33-.427.05Zm55.989-70.4-55.207,69.96,121.848-5.28Z" transform="translate(-1072.619 -22.289)" fill="#4c3b7b"/><path d="M589.561,2492.87l-.152-.28-38.592-76.79.244-.03,113.684-17.47-.171.32Zm-38.209-76.8,38.213,76.08,74.528-93.41Z" transform="translate(-1072.619 -22.289)" fill="#4c3b7b"/><path d="M589.083,2492.36l.461-.02,120.567,14.94-.319.33-38.815,57.6-.112-.1Zm120.133,15.3-119.19-14.99,80.924,72.07Z" transform="translate(-1072.619 -22.289)" fill="#4c3b7b"/><path d="M670.407,2565.91l39.632-58.96L779,2552.81l.04.17Zm39.579-58.44-38.374,57.76,107.09-12.54Z" transform="translate(-1072.619 -22.289)" fill="#4c3b7b"/><path d="M709.253,2508.06l.264-.67L765.6,2398.91l19.7,68.64-.107.1Zm56.415-108.38-55.584,107.18,74.761-39.37Z" transform="translate(-1072.619 -22.289)" fill="#4c3b7b"/><path d="M778.74,2553.04l-68.958-45.86,75.814-40.33Zm-68.5-45.8,68.414,45.13,5.9-84.16Z" transform="translate(-1072.619 -22.289)" fill="#4c3b7b"/><path d="M777.967,2553.86l.58-1.23,6.6-85.67,62.342,14.5-.053.07Zm7.023-85.75-5.561,83.43,67.691-70.18Z" transform="translate(-1072.619 -22.289)" fill="#4c3b7b"/><path d="M713.044,2303.32l.177-.12,64.649-48.37-7.847,96.36Zm64.42-47.76-63.854,47.77,56.148,47.16Z" transform="translate(-1072.619 -22.289)" fill="#4c3b7b"/><path d="M645.92,2238.44l64.012-26.24.013.25,3.57,91.32-.317-.3Zm63.689-25.75-63.073,25.87,66.594,64.36Z" transform="translate(-1072.619 -22.289)" fill="#4c3b7b"/><path d="M713.168,2303.67l-3.592-91.54.276.17,68.124,42.89Zm-3.2-90.91,3.521,90.22,63.872-47.78Z" transform="translate(-1072.619 -22.289)" fill="#4c3b7b"/><path d="M616.6,2213.71h.453l93.612-1.43-64.477,26.44-.077-.07Zm92.275-1.07-91.341,1.4,28.723,24.28Z" transform="translate(-1072.619 -22.289)" fill="#4c3b7b"/><path d="M765.437,2399.47l4.3-48.92,79.91,51.28Zm4.6-48.33-4.224,47.99,82.611,2.31Z" transform="translate(-1072.619 -22.289)" fill="#4c3b7b"/><path d="M765.209,2399.12l84.29,2.35-64.344,65.72-.12-.11Zm83.405,2.66-82.542-2.29,19.092,67.23Z" transform="translate(-1072.619 -22.289)" fill="#4c3b7b"/><path d="M784.907,2466.95l.133-.13,64.2-65.62v.41l-1.932,80.15Zm63.955-64.92-63.468,64.94,61.551,13.97Z" transform="translate(-1072.619 -22.289)" fill="#4c3b7b"/><path d="M671.535,2567.5a2.46,2.46,0,0,1-2.12-4.44,2.46,2.46,0,1,1,2.12,4.44Z" transform="translate(-1072.619 -22.289)" fill="#4c3b7b"/><path d="M786.385,2470.32a3.351,3.351,0,1,1,1.58-4.47A3.359,3.359,0,0,1,786.385,2470.32Z" transform="translate(-1072.619 -22.289)" fill="#4c3b7b"/><path d="M766.7,2402.12a3.346,3.346,0,1,1,1.58-4.46A3.35,3.35,0,0,1,766.7,2402.12Z" transform="translate(-1072.619 -22.289)" fill="#4c3b7b"/><path d="M711.645,2510.45a3.346,3.346,0,1,1,1.58-4.46A3.342,3.342,0,0,1,711.645,2510.45Z" transform="translate(-1072.619 -22.289)" fill="#4c3b7b"/><path d="M665.524,2401.34a3.35,3.35,0,1,1,1.58-4.47A3.359,3.359,0,0,1,665.524,2401.34Z" transform="translate(-1072.619 -22.289)" fill="#4c3b7b"/><path d="M714.7,2306.89a3.346,3.346,0,1,1,1.58-4.46A3.35,3.35,0,0,1,714.7,2306.89Z" transform="translate(-1072.619 -22.289)" fill="#4c3b7b"/><path d="M647.243,2241.21a3.346,3.346,0,1,1,1.58-4.46A3.341,3.341,0,0,1,647.243,2241.21Z" transform="translate(-1072.619 -22.289)" fill="#4c3b7b"/><path d="M591.952,2312a3.346,3.346,0,1,1,1.58-4.46A3.349,3.349,0,0,1,591.952,2312Z" transform="translate(-1072.619 -22.289)" fill="#4c3b7b"/><path d="M552.378,2419.39a3.346,3.346,0,1,1,1.58-4.46A3.342,3.342,0,0,1,552.378,2419.39Z" transform="translate(-1072.619 -22.289)" fill="#4c3b7b"/><path d="M591.033,2495.14a3.346,3.346,0,1,1,1.58-4.46A3.342,3.342,0,0,1,591.033,2495.14Z" transform="translate(-1072.619 -22.289)" fill="#4c3b7b"/><path d="M780.1,2555.13a2.475,2.475,0,1,1,1.166-3.3A2.494,2.494,0,0,1,780.1,2555.13Z" transform="translate(-1072.619 -22.289)" fill="#4c3b7b"/><path d="M847.821,2483.46a2.471,2.471,0,1,1,1.166-3.3A2.465,2.465,0,0,1,847.821,2483.46Z" transform="translate(-1072.619 -22.289)" fill="#4c3b7b"/><path d="M849.85,2403.65a2.46,2.46,0,1,1,1.167-3.29A2.468,2.468,0,0,1,849.85,2403.65Z" transform="translate(-1072.619 -22.289)" fill="#4c3b7b"/><path d="M770.833,2352.57a2.221,2.221,0,1,1,1.047-2.96A2.214,2.214,0,0,1,770.833,2352.57Z" transform="translate(-1072.619 -22.289)" fill="#4c3b7b"/><path d="M778.324,2258a2.471,2.471,0,1,1,1.167-3.3A2.482,2.482,0,0,1,778.324,2258Z" transform="translate(-1072.619 -22.289)" fill="#4c3b7b"/><path d="M710.716,2214.97a2.46,2.46,0,1,1-2.12-4.44,2.46,2.46,0,0,1,2.12,4.44Z" transform="translate(-1072.619 -22.289)" fill="#4c3b7b"/><path d="M617.66,2215.94a2.46,2.46,0,1,1,1.175-3.28A2.472,2.472,0,0,1,617.66,2215.94Z" transform="translate(-1072.619 -22.289)" fill="#4c3b7b"/><path d="M559.83,2268.29a2.46,2.46,0,1,1,1.149-3.28A2.468,2.468,0,0,1,559.83,2268.29Z" transform="translate(-1072.619 -22.289)" fill="#4c3b7b"/><path d="M524.986,2372.68a2.46,2.46,0,1,1,1.175-3.28A2.478,2.478,0,0,1,524.986,2372.68Z" transform="translate(-1072.619 -22.289)" fill="#4c3b7b"/><path d="M517.907,2475.98a2.464,2.464,0,1,1,1.167-3.3A2.481,2.481,0,0,1,517.907,2475.98Z" transform="translate(-1072.619 -22.289)" fill="#4c3b7b"/><path d="M597.793,2529.02a2.083,2.083,0,1,1,.983-2.78A2.088,2.088,0,0,1,597.793,2529.02Z" transform="translate(-1072.619 -22.289)" fill="#4c3b7b"/><path d="M664.248,2398.05l-54.671-35-.221.35,54.672,34.99Z" transform="translate(-1072.619 -22.289)" fill="#4c3b7b"/><path d="M742.637,2312.53l-133.2,50.43.144.38,133.2-50.42Z" transform="translate(-1072.619 -22.289)" fill="#4c3b7b"/><path d="M609.313,2363.22l-19.2-54.59.385-.14,19.2,54.59Z" transform="translate(-1072.619 -22.289)" fill="#4c3b7b"/><path d="M609.315,2363.09,645.6,2238.14l.407.13-36.3,124.93Z" transform="translate(-1072.619 -22.289)" fill="#4c3b7b"/><path d="M609.33,2363.25l.352-.21,54.641,100.68-.352.21Z" transform="translate(-1072.619 -22.289)" fill="#4c3b7b"/><path d="M548.278,2455.99l61.056-92.96.344.23-61.056,92.96Z" transform="translate(-1072.619 -22.289)" fill="#4c3b7b"/><path d="M548.429,2456.31l.034-.43,115.705,7.74-.042.41Z" transform="translate(-1072.619 -22.289)" fill="#4c3b7b"/><path d="M664.037,2463.66l101.238-64.35.211.35L664.265,2464Z" transform="translate(-1072.619 -22.289)" fill="#4c3b7b"/><path d="M523.961,2369.57l-.393.11,24.655,86.49.392-.11Z" transform="translate(-1072.619 -22.289)" fill="#4c3b7b"/><path d="M548.241,2456.1l10.325-190.05.4.03-10.307,190.03Z" transform="translate(-1072.619 -22.289)" fill="#4c3b7b"/><path d="M548.317,2456.25l.267-.3,41.115,36.03-.276.33Z" transform="translate(-1072.619 -22.289)" fill="#4c3b7b"/><path d="M589.631,2492.34l-.14-.39,74.581-28.31.141.39Z" transform="translate(-1072.619 -22.289)" fill="#4c3b7b"/><path d="M665.029,2532.58l-1.083-68.75.4-.02,1.091,68.77Z" transform="translate(-1072.619 -22.289)" fill="#4c3b7b"/><path d="M596.4,2527.27l.034-.43,68.827,5.54-.043.41Z" transform="translate(-1072.619 -22.289)" fill="#4c3b7b"/><path d="M670.115,2564.71l-5.087-32.09.419-.07,5.07,32.1Z" transform="translate(-1072.619 -22.289)" fill="#4c3b7b"/><path d="M665.2,2532.8l.077-.42,114.191,18.97-.086.41Z" transform="translate(-1072.619 -22.289)" fill="#4c3b7b"/><path d="M748.394,2502.12l-83.232,30.29.14.39,83.231-30.29Z" transform="translate(-1072.619 -22.289)" fill="#4c3b7b"/><path d="M765.583,2399.51l-.4-.06-16.92,102.81.4.07Z" transform="translate(-1072.619 -22.289)" fill="#4c3b7b"/><path d="M664.056,2464.02l.164-.38,84.316,38.46-.163.38Z" transform="translate(-1072.619 -22.289)" fill="#4c3b7b"/><path d="M847.285,2481.88l-98.937,19.93.081.4,98.936-19.93Z" transform="translate(-1072.619 -22.289)" fill="#4c3b7b"/><path d="M748.27,2502.4l.352-.21,30.974,49.25-.352.21Z" transform="translate(-1072.619 -22.289)" fill="#4c3b7b"/><path d="M765.234,2399.63l.293-.29,81.9,82.3-.293.29Z" transform="translate(-1072.619 -22.289)" fill="#4c3b7b"/><path d="M696.513,2254.3v-.41l80.761,1.68v.41Z" transform="translate(-1072.619 -22.289)" fill="#4c3b7b"/><path d="M696.578,2253.83l-50.735-15.79-.122.39,50.736,15.79Z" transform="translate(-1072.619 -22.289)" fill="#4c3b7b"/><path d="M742.9,2312.63l-46.235-58.67-.321.26,46.236,58.67Z" transform="translate(-1072.619 -22.289)" fill="#4c3b7b"/><path d="M777.439,2255.88l-.349-.21-34.529,56.98.349.21Z" transform="translate(-1072.619 -22.289)" fill="#4c3b7b"/><path d="M712.208,2375.1l30.341-62.44.371.19-30.332,62.41Z" transform="translate(-1072.619 -22.289)" fill="#4c3b7b"/><path d="M712.316,2375.37l.164-.38,52.986,24.31-.172.36Z" transform="translate(-1072.619 -22.289)" fill="#4c3b7b"/><path d="M769.969,2351l-57.651,23.98.156.38,57.652-23.98Z" transform="translate(-1072.619 -22.289)" fill="#4c3b7b"/><path d="M663.991,2398.12l48.315-23.13.184.39-48.323,23.11Z" transform="translate(-1072.619 -22.289)" fill="#4c3b7b"/><path d="M696.583,2253.92,616.7,2213.51l-.184.37,79.881,40.41Z" transform="translate(-1072.619 -22.289)" fill="#4c3b7b"/><path d="M558.78,2266.27l-.027-.41,137.733-11.98.045.41Z" transform="translate(-1072.619 -22.289)" fill="#4c3b7b"/><path d="M742.562,2312.87l.344-.23,27.294,38.42-.335.25Z" transform="translate(-1072.619 -22.289)" fill="#4c3b7b"/><path d="M802.552,2438.63l-32.713-87.38.386-.14,32.712,87.38Z" transform="translate(-1072.619 -22.289)" fill="#4c3b7b"/><path d="M802.608,2438.39l46.746-37.09.246.34-46.728,37.08Z" transform="translate(-1072.619 -22.289)" fill="#4c3b7b"/><path d="M802.926,2438.65l-.348-.21L784.4,2468.1l.349.21Z" transform="translate(-1072.619 -22.289)" fill="#4c3b7b"/><path d="M516,2473.93l32.259-18.06.211.35-32.259,18.06Z" transform="translate(-1072.619 -22.289)" fill="#4c3b7b"/><path d="M713.4,2376.69a1.751,1.751,0,1,1,.827-2.34A1.763,1.763,0,0,1,713.4,2376.69Z" transform="translate(-1072.619 -22.289)" fill="#4c3b7b"/><path d="M743.233,2314.28a1.755,1.755,0,1,1,.826-2.34A1.752,1.752,0,0,1,743.233,2314.28Z" transform="translate(-1072.619 -22.289)" fill="#4c3b7b"/><path d="M697.321,2255.81a1.751,1.751,0,1,1,.826-2.34A1.743,1.743,0,0,1,697.321,2255.81Z" transform="translate(-1072.619 -22.289)" fill="#4c3b7b"/><path d="M610.176,2365.03a1.755,1.755,0,1,1,.826-2.34A1.752,1.752,0,0,1,610.176,2365.03Z" transform="translate(-1072.619 -22.289)" fill="#4c3b7b"/><path d="M549.019,2457.32a1.756,1.756,0,0,1-2.334-.83,1.752,1.752,0,1,1,2.334.83Z" transform="translate(-1072.619 -22.289)" fill="#4c3b7b"/><path d="M615.648,2462.19a1.755,1.755,0,1,1,.827-2.34A1.75,1.75,0,0,1,615.648,2462.19Z" transform="translate(-1072.619 -22.289)" fill="#4c3b7b"/><path d="M643.685,2426.82a1.751,1.751,0,1,1,.826-2.33A1.748,1.748,0,0,1,643.685,2426.82Z" transform="translate(-1072.619 -22.289)" fill="#4c3b7b"/><path d="M665,2465.59a1.751,1.751,0,1,1,.826-2.33A1.744,1.744,0,0,1,665,2465.59Z" transform="translate(-1072.619 -22.289)" fill="#4c3b7b"/><path d="M665.323,2503.59a1.751,1.751,0,1,1,.827-2.33A1.764,1.764,0,0,1,665.323,2503.59Z" transform="translate(-1072.619 -22.289)" fill="#4c3b7b"/><path d="M666.1,2533.92a1.75,1.75,0,1,1,.827-2.33A1.752,1.752,0,0,1,666.1,2533.92Z" transform="translate(-1072.619 -22.289)" fill="#4c3b7b"/><path d="M749.218,2503.85a1.751,1.751,0,1,1,.826-2.34A1.743,1.743,0,0,1,749.218,2503.85Z" transform="translate(-1072.619 -22.289)" fill="#4c3b7b"/><path d="M803.113,2439.81a1.751,1.751,0,1,1,.827-2.34A1.743,1.743,0,0,1,803.113,2439.81Z" transform="translate(-1072.619 -22.289)" fill="#4c3b7b"/><path d="M632.1,2405.08a1.755,1.755,0,1,1,.827-2.34A1.751,1.751,0,0,1,632.1,2405.08Z" transform="translate(-1072.619 -22.289)" fill="#4c3b7b"/></g><g transform="translate(1056.756 -11)"><path d="M697.985,2888.98l-43.991-115.34.315.04,105.869,16.44-.142.22ZM654.576,2774.1l43.465,114.18,61.581-97.87Z" transform="translate(-1072.619 -22.289)" fill="#4c3b7b"/><path d="M760.171,2790.48l-.288-.05-105.924-16.44.211-.23,74.809-80.08.1.28Zm-105.547-16.72,105.019,16.28-30.8-95.72Z" transform="translate(-1072.619 -22.289)" fill="#4c3b7b"/><path d="M729.222,2693.91l-.2.21L654.1,2774.34l.009-.47,27.1-69.07.206.04Zm-74.756,79.49,74.1-79.3-47.01,11.12Z" transform="translate(-1072.619 -22.289)" fill="#4c3b7b"/><path d="M849.191,2712.66l-.212.26-89.127,77.68-.1-.28-31.1-96.51.261.02Zm-89.229,77.27,88.534-76.95-119.349-18.79Z" transform="translate(-1072.619 -22.289)" fill="#4c3b7b"/><path d="M873.08,2832l-.3-.07-113.183-41.54,89.324-77.9.1.28Zm-112.848-41.85,112.321,41.38-23.744-118.37Z" transform="translate(-1072.619 -22.289)" fill="#4c3b7b"/><path d="M812.532,2892.58l-.3-.01-114.515-3.79.157-.25,62.145-98.55.146.27Zm-114.206-4.11,113.635,3.76L760,2790.7Z" transform="translate(-1072.619 -22.289)" fill="#4c3b7b"/><path d="M777.368,2932.76l-.149-.13-79.69-44.21.495.01,114.529,3.8-.157.26Zm-78.87-43.95,78.784,43.44,34.645-39.69Z" transform="translate(-1072.619 -22.289)" fill="#4c3b7b"/><path d="M878.486,2907.27,776.9,2932.89l.3-.48,34.986-40.23.124.02Zm-100.72,24.86,99.617-24.75-65.072-14.78Z" transform="translate(-1072.619 -22.289)" fill="#4c3b7b"/><path d="M878.095,2907.53l-66.181-15.04.2-.21,60.915-61.02-.052.51Zm-65.53-15.23,65.209,14.82-5.181-74.87Z" transform="translate(-1072.619 -22.289)" fill="#4c3b7b"/><path d="M877.685,2908.09l.071-.77-5.108-75.75.179.02,30.68-17.55-.129.23Zm-4.714-76.12,5.2,74.6,24.781-92.24Z" transform="translate(-1072.619 -22.289)" fill="#4c3b7b"/><path d="M903.459,2814.38l-.234-.02-30.476,17.66.073-.21,43.2-100.82.11.68Zm-30.25,17.36,29.817-17.75,12.858-81.6Z" transform="translate(-1072.619 -22.289)" fill="#4c3b7b"/><path d="M777.945,2932.8l-110.969-.1,31.008-44.34.149.13Zm-110.387-.33,109.146-.23-78.648-43.35Z" transform="translate(-1072.619 -22.289)" fill="#4c3b7b"/><path d="M698.283,2888.53l-31.008,44.34-.134-.19-53.921-74.96Zm-31.01,43.75,30.484-43.56-83.615-30.3Z" transform="translate(-1072.619 -22.289)" fill="#4c3b7b"/><path d="M667.407,2932.48l-.28.21-67.75-39.14-.013-.04,13.961-36.22ZM599.7,2893.41l65.356,36.39-51.029-70.94Z" transform="translate(-1072.619 -22.289)" fill="#4c3b7b"/><path d="M698.344,2888.93l-.382-.14-84.517-30.61.058-.17,40.757-84.6.185.39Zm-84.455-30.97,83.793,30.37L654.3,2774.35Z" transform="translate(-1072.619 -22.289)" fill="#4c3b7b"/><path d="M873.156,2831.65l-.211.23-60.732,60.81-.105-.22-52.383-102.4.356.07Zm-60.862,60.45,60.183-60.23-112.129-41.32Z" transform="translate(-1072.619 -22.289)" fill="#4c3b7b"/><path d="M872.827,2832.27l-.17-.43L848.874,2712.7l.408.2,66.893,18.7-.058.14ZM849.52,2713.42l23.3,117.85,42.926-99.5Z" transform="translate(-1072.619 -22.289)" fill="#4c3b7b"/><path d="M917.022,2731.92l-68.441-19.05,21.81-79.89.153-.09Zm-67.929-19.16,66.9,18.23-45.623-97.69Z" transform="translate(-1072.619 -22.289)" fill="#4c3b7b"/><path d="M849.881,2713.27l-.715-.04-120.623-19.08,58.946-40.31.122.07ZM729.25,2693.85l119.235,19-60.909-58.56Z" transform="translate(-1072.619 -22.289)" fill="#4c3b7b"/><path d="M870.69,2633.15l-21.81,79.89-62.147-59.26Zm-21.9,79.43,21.286-79.14-81.733,20.9Z" transform="translate(-1072.619 -22.289)" fill="#4c3b7b"/><path d="M871.713,2633.63l-1.346-.17-83.394,20.71-5.87-63.73.082.03Zm-83.594,20.33,80.937-20.99-87.933-42.15Z" transform="translate(-1072.619 -22.289)" fill="#4c3b7b"/><path d="M654.369,2774.14l-.176-.13-66.263-46.13,93.924-22.89Zm-65.616-46.1L654.2,2773.6l27.08-68.14Z" transform="translate(-1072.619 -22.289)" fill="#4c3b7b"/><path d="M613.924,2858.28l-45.067-52.49.236-.09,85.549-32.15-.187.4Zm-44.492-52.34,44.408,51.72,40.115-83.47Z" transform="translate(-1072.619 -22.289)" fill="#4c3b7b"/><path d="M654.663,2773.91l-85.758,32.24.075-.31,19.257-78.17Zm-85.278,31.67,84.522-31.75-65.461-45.58Z" transform="translate(-1072.619 -22.289)" fill="#4c3b7b"/><path d="M599.686,2893.9l-.143-.43-30.836-88.4,45.4,52.87-.043.1Zm-30.075-87.24,30.095,86.25,14-34.91Z" transform="translate(-1072.619 -22.289)" fill="#4c3b7b"/><path d="M729.121,2694.14l-47.785,11.32,23.51-91.99ZM681.8,2704.99l46.887-11.11-23.825-79.13Z" transform="translate(-1072.619 -22.289)" fill="#4c3b7b"/><path d="M728.867,2694.46l-24.315-80.74,82.643,40.37-.072.15Zm-23.739-80,23.812,79.07,57.8-39.29Z" transform="translate(-1072.619 -22.289)" fill="#4c3b7b"/><path d="M787.037,2654.41l-.163-.09-82.494-40.27.388-.13,76.677-23.41Zm-81.751-40.26,81.623,39.79-6.123-62.82Z" transform="translate(-1072.619 -22.289)" fill="#4c3b7b"/><path d="M918.181,2730.35a2.461,2.461,0,1,1-3.494-.07A2.458,2.458,0,0,1,918.181,2730.35Z" transform="translate(-1072.619 -22.289)" fill="#4c3b7b"/><path d="M789.77,2651.94a3.348,3.348,0,1,1-4.732-.09A3.357,3.357,0,0,1,789.77,2651.94Z" transform="translate(-1072.619 -22.289)" fill="#4c3b7b"/><path d="M731.24,2692.1a3.348,3.348,0,1,1-4.732-.09A3.345,3.345,0,0,1,731.24,2692.1Z" transform="translate(-1072.619 -22.289)" fill="#4c3b7b"/><path d="M851.4,2710.24a3.348,3.348,0,1,1-4.732-.09A3.345,3.345,0,0,1,851.4,2710.24Z" transform="translate(-1072.619 -22.289)" fill="#4c3b7b"/><path d="M762.359,2788.38a3.347,3.347,0,1,1-4.732-.1A3.344,3.344,0,0,1,762.359,2788.38Z" transform="translate(-1072.619 -22.289)" fill="#4c3b7b"/><path d="M657.23,2771.45a3.344,3.344,0,1,1-4.732-.1A3.344,3.344,0,0,1,657.23,2771.45Z" transform="translate(-1072.619 -22.289)" fill="#4c3b7b"/><path d="M616.141,2856.15a3.347,3.347,0,1,1-4.732-.09A3.344,3.344,0,0,1,616.141,2856.15Z" transform="translate(-1072.619 -22.289)" fill="#4c3b7b"/><path d="M700.735,2886.34a3.347,3.347,0,1,1-4.732-.09A3.344,3.344,0,0,1,700.735,2886.34Z" transform="translate(-1072.619 -22.289)" fill="#4c3b7b"/><path d="M815.128,2890.08a3.348,3.348,0,1,1-4.732-.09A3.345,3.345,0,0,1,815.128,2890.08Z" transform="translate(-1072.619 -22.289)" fill="#4c3b7b"/><path d="M874.849,2829.54a3.347,3.347,0,1,1-4.732-.09A3.344,3.344,0,0,1,874.849,2829.54Z" transform="translate(-1072.619 -22.289)" fill="#4c3b7b"/><path d="M872.243,2631.2a2.47,2.47,0,1,1-3.494-.07A2.489,2.489,0,0,1,872.243,2631.2Z" transform="translate(-1072.619 -22.289)" fill="#4c3b7b"/><path d="M782.9,2589.5a2.47,2.47,0,1,1-3.494-.07A2.458,2.458,0,0,1,782.9,2589.5Z" transform="translate(-1072.619 -22.289)" fill="#4c3b7b"/><path d="M706.512,2612.7a2.461,2.461,0,1,1-3.494-.07A2.469,2.469,0,0,1,706.512,2612.7Z" transform="translate(-1072.619 -22.289)" fill="#4c3b7b"/><path d="M682.91,2703.78a2.22,2.22,0,1,1-3.136-.06A2.221,2.221,0,0,1,682.91,2703.78Z" transform="translate(-1072.619 -22.289)" fill="#4c3b7b"/><path d="M590.794,2726.45a2.473,2.473,0,1,1-3.494-.07A2.458,2.458,0,0,1,590.794,2726.45Z" transform="translate(-1072.619 -22.289)" fill="#4c3b7b"/><path d="M571.243,2804.17a2.461,2.461,0,1,1-3.467-.07A2.47,2.47,0,0,1,571.243,2804.17Z" transform="translate(-1072.619 -22.289)" fill="#4c3b7b"/><path d="M601.468,2892.19a2.461,2.461,0,1,1-3.48-.08A2.47,2.47,0,0,1,601.468,2892.19Z" transform="translate(-1072.619 -22.289)" fill="#4c3b7b"/><path d="M669.371,2930.59a2.461,2.461,0,1,1-3.481-.06A2.47,2.47,0,0,1,669.371,2930.59Z" transform="translate(-1072.619 -22.289)" fill="#4c3b7b"/><path d="M779.416,2930.79a2.461,2.461,0,1,1-3.479-.08A2.47,2.47,0,0,1,779.416,2930.79Z" transform="translate(-1072.619 -22.289)" fill="#4c3b7b"/><path d="M879.688,2904.98a2.461,2.461,0,1,1-3.494-.07A2.471,2.471,0,0,1,879.688,2904.98Z" transform="translate(-1072.619 -22.289)" fill="#4c3b7b"/><path d="M904.873,2812.46a2.08,2.08,0,1,1-2.944-.06A2.08,2.08,0,0,1,904.873,2812.46Z" transform="translate(-1072.619 -22.289)" fill="#4c3b7b"/><path d="M759.638,2790.62l-16,62.91.4.11,16-62.91Z" transform="translate(-1072.619 -22.289)" fill="#4c3b7b"/><path d="M653.792,2743.15l89.8,110.55.317-.26-89.8-110.54Z" transform="translate(-1072.619 -22.289)" fill="#4c3b7b"/><path d="M743.881,2853.73l-45.761,35.42-.255-.32,45.761-35.42Z" transform="translate(-1072.619 -22.289)" fill="#4c3b7b"/><path d="M743.756,2853.77l-130.019,4.91-.005-.43,130.005-4.89Z" transform="translate(-1072.619 -22.289)" fill="#4c3b7b"/><path d="M743.909,2853.71l-.311-.27,78.346-83.57.311.27Z" transform="translate(-1072.619 -22.289)" fill="#4c3b7b"/><path d="M851.156,2882.45,743.7,2853.77l.105-.4,107.454,28.68Z" transform="translate(-1072.619 -22.289)" fill="#4c3b7b"/><path d="M851.408,2882.2l-.414.11-29.1-112.26.4-.09Z" transform="translate(-1072.619 -22.289)" fill="#4c3b7b"/><path d="M821.979,2770.16l-92.958-75.82.267-.31,92.946,75.81Z" transform="translate(-1072.619 -22.289)" fill="#4c3b7b"/><path d="M776.79,2932.74l.23.34,74.321-50.64-.23-.33Z" transform="translate(-1072.619 -22.289)" fill="#4c3b7b"/><path d="M851.266,2882.45,667.64,2932.5l-.1-.39,183.612-50.06Z" transform="translate(-1072.619 -22.289)" fill="#4c3b7b"/><path d="M851.392,2882.33l-.368-.16,21.248-50.37.4.16Z" transform="translate(-1072.619 -22.289)" fill="#4c3b7b"/><path d="M872.631,2831.75l-.322.26-50.357-61.87.322-.26Z" transform="translate(-1072.619 -22.289)" fill="#4c3b7b"/><path d="M887.082,2747.52l-64.911,22.68-.144-.38,64.925-22.69Z" transform="translate(-1072.619 -22.289)" fill="#4c3b7b"/><path d="M903.652,2814.33l-.414.1-16.414-67.07.4-.09Z" transform="translate(-1072.619 -22.289)" fill="#4c3b7b"/><path d="M915.976,2732.57l-28.852,14.94-.2-.38,28.866-14.92Z" transform="translate(-1072.619 -22.289)" fill="#4c3b7b"/><path d="M887.238,2747.29l-.428.06-17.947-114.36.414-.05Z" transform="translate(-1072.619 -22.289)" fill="#4c3b7b"/><path d="M831.922,2677.99l54.961,69.45.32-.25-54.96-69.46Z" transform="translate(-1072.619 -22.289)" fill="#4c3b7b"/><path d="M729.121,2693.98l.064.41L832.1,2678.07l-.064-.4Z" transform="translate(-1072.619 -22.289)" fill="#4c3b7b"/><path d="M822.312,2770.03l-.412-.03,9.958-92.14.412.03Z" transform="translate(-1072.619 -22.289)" fill="#4c3b7b"/><path d="M781.57,2590.5l50.073,87.63.355-.21-50.074-87.62Z" transform="translate(-1072.619 -22.289)" fill="#4c3b7b"/><path d="M832.226,2678.02l-.311-.27,36.992-44.91.311.27Z" transform="translate(-1072.619 -22.289)" fill="#4c3b7b"/><path d="M729.338,2694.28l-.367-.19,52.324-103.65.368.19Z" transform="translate(-1072.619 -22.289)" fill="#4c3b7b"/><path d="M613.042,2805.27l-.388.13-23.836-77.18.388-.13Z" transform="translate(-1072.619 -22.289)" fill="#4c3b7b"/><path d="M612.579,2805.35l.988,53.13.409-.01-.989-53.12Z" transform="translate(-1072.619 -22.289)" fill="#4c3b7b"/><path d="M653.8,2742.87l-41.125,62.36.341.23,41.125-62.36Z" transform="translate(-1072.619 -22.289)" fill="#4c3b7b"/><path d="M589.059,2727.96l-.091.4,64.954,14.83.091-.4Z" transform="translate(-1072.619 -22.289)" fill="#4c3b7b"/><path d="M722.758,2752.33l-68.817-9.13.063-.42,68.79,9.14Z" transform="translate(-1072.619 -22.289)" fill="#4c3b7b"/><path d="M722.982,2752.14l-.412-.03,6.385-57.95.4.05Z" transform="translate(-1072.619 -22.289)" fill="#4c3b7b"/><path d="M681.7,2705.1l40.914,47.16.309-.26-40.914-47.17Z" transform="translate(-1072.619 -22.289)" fill="#4c3b7b"/><path d="M759.792,2790.84l-37.171-38.57.309-.29,37.156,38.58Z" transform="translate(-1072.619 -22.289)" fill="#4c3b7b"/><path d="M612.667,2805.32l-13.2,88.54.4.06,13.2-88.54Z" transform="translate(-1072.619 -22.289)" fill="#4c3b7b"/><path d="M667.783,2932.22l-.388.16-54.742-126.95.375-.17Z" transform="translate(-1072.619 -22.289)" fill="#4c3b7b"/><path d="M654.135,2743.12l-.325-.26,27.868-38,.339.24Z" transform="translate(-1072.619 -22.289)" fill="#4c3b7b"/><path d="M754.607,2646.58l-72.632,58.56-.255-.32,72.631-58.56Z" transform="translate(-1072.619 -22.289)" fill="#4c3b7b"/><path d="M754.358,2646.6l-49.92-32.69.24-.34,49.908,32.68Z" transform="translate(-1072.619 -22.289)" fill="#4c3b7b"/><path d="M754.507,2646.22l-.092.39,33.878,7.92.093-.4Z" transform="translate(-1072.619 -22.289)" fill="#4c3b7b"/><path d="M878.345,2907.43l-27.3-24.93.267-.31,27.3,24.93Z" transform="translate(-1072.619 -22.289)" fill="#4c3b7b"/><path d="M723.891,2750.7a1.752,1.752,0,1,1-2.476-.05A1.749,1.749,0,0,1,723.891,2750.7Z" transform="translate(-1072.619 -22.289)" fill="#4c3b7b"/><path d="M655.257,2742.04a1.752,1.752,0,1,1-2.476-.05A1.749,1.749,0,0,1,655.257,2742.04Z" transform="translate(-1072.619 -22.289)" fill="#4c3b7b"/><path d="M614.223,2804.03a1.749,1.749,0,1,1-2.477-.05A1.736,1.736,0,0,1,614.223,2804.03Z" transform="translate(-1072.619 -22.289)" fill="#4c3b7b"/><path d="M745.326,2852.34a1.752,1.752,0,1,1-2.476-.04A1.749,1.749,0,0,1,745.326,2852.34Z" transform="translate(-1072.619 -22.289)" fill="#4c3b7b"/><path d="M852.183,2881.33a1.749,1.749,0,1,1-2.476-.05A1.749,1.749,0,0,1,852.183,2881.33Z" transform="translate(-1072.619 -22.289)" fill="#4c3b7b"/><path d="M835.82,2816.55a1.753,1.753,0,1,1-2.477-.05A1.748,1.748,0,0,1,835.82,2816.55Z" transform="translate(-1072.619 -22.289)" fill="#4c3b7b"/><path d="M793.427,2801.08a1.753,1.753,0,1,1-2.476-.05A1.748,1.748,0,0,1,793.427,2801.08Z" transform="translate(-1072.619 -22.289)" fill="#4c3b7b"/><path d="M823.51,2768.64a1.753,1.753,0,1,1-2.476-.05A1.749,1.749,0,0,1,823.51,2768.64Z" transform="translate(-1072.619 -22.289)" fill="#4c3b7b"/><path d="M859.479,2756.37a1.749,1.749,0,1,1-2.476-.05A1.767,1.767,0,0,1,859.479,2756.37Z" transform="translate(-1072.619 -22.289)" fill="#4c3b7b"/><path d="M888.019,2746.08a1.749,1.749,0,0,1-.049,2.47,1.731,1.731,0,0,1-2.476-.05,1.749,1.749,0,1,1,2.525-2.42Z" transform="translate(-1072.619 -22.289)" fill="#4c3b7b"/><path d="M833.3,2676.66a1.752,1.752,0,1,1-2.476-.05A1.749,1.749,0,0,1,833.3,2676.66Z" transform="translate(-1072.619 -22.289)" fill="#4c3b7b"/><path d="M755.547,2645.67a1.753,1.753,0,1,1-2.477-.05A1.748,1.748,0,0,1,755.547,2645.67Z" transform="translate(-1072.619 -22.289)" fill="#4c3b7b"/><path d="M776.433,2818.92a1.752,1.752,0,1,1-2.476-.05A1.749,1.749,0,0,1,776.433,2818.92Z" transform="translate(-1072.619 -22.289)" fill="#4c3b7b"/></g><g transform="translate(1005.385 -83.767)"><path d="M-160.848,2949.747H-409.921a37.462,37.462,0,0,1-37.464-37.46v-603.06a37.474,37.474,0,0,1,37.464-37.46h249.073a37.474,37.474,0,0,1,37.463,37.46v603.06A37.461,37.461,0,0,1-160.848,2949.747Z" fill="#f5f6f7" stroke="#4c3b7b" stroke-width="1"/><path d="M-311.885,2305.767h53a8.5,8.5,0,0,1,8.5,8.5h0a8.5,8.5,0,0,1-8.5,8.5h-53a8.5,8.5,0,0,1-8.5-8.5h0A8.5,8.5,0,0,1-311.885,2305.767Z" fill="#f5f6f7" stroke="#4c3b7b" stroke-width="1"/><path d="M-255.6,2929.858h-59.567a3.9,3.9,0,0,1-3.889-3.891v-35.44a3.9,3.9,0,0,1,3.889-3.889H-255.6a3.9,3.9,0,0,1,3.888,3.889v35.44A3.886,3.886,0,0,1-255.6,2929.858Z" fill="#f5f6f7" stroke="#4c3b7b" stroke-width="1"/><path d="M-429.832,2868.318V2353.047h288.867v515.271Z" fill="none" stroke="#4c3b7b" stroke-width="1"/></g></g></svg>