<svg xmlns="http://www.w3.org/2000/svg" width="57" height="30.493" viewBox="0 0 57 30.493"><g transform="translate(-840.881 -3842.104)"><path d="M919.333,3862.35l-4.385-14.87a.462.462,0,0,1,.312-.575l12.146-3.579a29.425,29.425,0,0,1,17.969.381l1.572.55c.14.07.235.117.321.165a2.157,2.157,0,0,1,.835,2.849c-.038.076-.086.165-.14.254l-1,1.464a29.647,29.647,0,0,1-14.78,10.052l-12.268,3.617A.459.459,0,0,1,919.333,3862.35Zm-3.371-14.689,4.124,13.987,11.826-3.487a28.715,28.715,0,0,0,14.3-9.715l.972-1.417c.025-.044.063-.114.1-.184a1.193,1.193,0,0,0-.464-1.623c-.079-.041-.152-.086-.219-.118l-1.525-.527a28.518,28.518,0,0,0-17.4-.372Z" transform="translate(-50.53)" fill="#ff9300"/><path d="M922.04,3905.89l-1.1-3.719a.459.459,0,0,1,.311-.571l7.436-2.192a.456.456,0,0,1,.488.153.469.469,0,0,1,.047.508l-2.615,4.812a.464.464,0,0,1-.274.222l-3.718,1.1A.455.455,0,0,1,922.04,3905.89Zm-.082-3.538.836,2.836,3.092-.911,2-3.671Z" transform="translate(-54.622 -39.091)" fill="#ff9300"/><path d="M892.851,3883.057l0-.013-2.924-9.919a.46.46,0,0,1,.312-.572,5.1,5.1,0,0,1,2.706-.118l1.588.248a.464.464,0,0,1,.37.327l2.192,7.435a.462.462,0,0,1-.133.477l-1.227,1.1a5.734,5.734,0,0,1-2.2,1.3.78.78,0,0,1-.111.048A.464.464,0,0,1,892.851,3883.057Zm-1.91-9.734,2.651,8.991a4.892,4.892,0,0,0,1.507-.975l1.016-.915-2.026-6.87-1.342-.219A3.971,3.971,0,0,0,890.941,3873.323Z" transform="translate(-33.453 -20.609)" fill="#ff9300"/><path d="M904.787,3849.73l-1.094-3.713a.459.459,0,0,1,.311-.572l3.718-1.1a.466.466,0,0,1,.351.038l4.8,2.617a.455.455,0,0,1,.238.454.463.463,0,0,1-.328.391l-7.436,2.195A.459.459,0,0,1,904.787,3849.73Zm-.08-3.532.834,2.83,5.927-1.75-3.668-1.991Z" transform="translate(-42.85 -1.52)" fill="#ff9300"/><path d="M942.714,3862.283a5.046,5.046,0,1,1,2.433,2.992A5.032,5.032,0,0,1,942.714,3862.283Zm8.8-2.595a4.131,4.131,0,1,0-.354,3.135A4.076,4.076,0,0,0,951.516,3859.688Zm-7.05,2.071a3.276,3.276,0,0,1,2.188-4,3.2,3.2,0,0,1,3.719,4.621,3.216,3.216,0,0,1-1.9,1.563,3.291,3.291,0,0,1-4.011-2.179Zm5.295-1.559a2.346,2.346,0,0,0-2.851-1.553,2.285,2.285,0,1,0,2.851,1.553Z" transform="translate(-69.352 -9.353)" fill="#ff9300"/><path d="M903.946,3873.241l-3.874-13.139a1.348,1.348,0,0,1,.92-1.69l4.092-1.2a.459.459,0,0,1,.572.311l4.385,14.87a.46.46,0,0,1-.312.572l-4.092,1.207A1.338,1.338,0,0,1,903.946,3873.241Zm.955-15.025-3.65,1.073a.422.422,0,0,0-.3.546l3.874,13.139a.415.415,0,0,0,.546.3l3.65-1.074Z" transform="translate(-40.352 -10.294)" fill="#ff9300"/><path d="M986.161,3854.791l-3.505-11.888a.461.461,0,0,1,.46-.594,28.083,28.083,0,0,1,8.465,1.547l1.651.591a.181.181,0,0,1,.067.032l.07.038c.054.029.108.057.159.086a2.174,2.174,0,0,1,.816,2.944l-.133.245-1.061,1.369a31.268,31.268,0,0,1-6.272,5.885.468.468,0,0,1-.419.057A.473.473,0,0,1,986.161,3854.791Zm-2.439-11.529,3.14,10.649a30.874,30.874,0,0,0,5.558-5.333l1.083-1.436a1.225,1.225,0,0,0-.407-1.734,1.258,1.258,0,0,1-.178-.1l-.035-.019-1.617-.572A26.6,26.6,0,0,0,983.722,3843.262Z" transform="translate(-96.734 -0.139)" fill="#ff9300"/><path d="M856.077,3883.6a.457.457,0,0,1,.3-.569l9.381-2.887a.466.466,0,0,1,.577.3l0,.006a.457.457,0,0,1-.3.569l-9.379,2.893a.465.465,0,0,1-.581-.317Z" transform="translate(-10.357 -25.943)" fill="#ff9300"/><path d="M840.9,3867.762a.639.639,0,0,1-.018-.111.46.46,0,0,1,.443-.48l14.258-.5a.461.461,0,0,1,.035.921l-14.258.5A.454.454,0,0,1,840.9,3867.762Z" transform="translate(0 -16.763)" fill="#ff9300"/><path d="M860.644,3920.089a.464.464,0,0,1,.207-.524l12.25-7.314a.46.46,0,0,1,.47.791l-12.25,7.314a.458.458,0,0,1-.631-.162A.282.282,0,0,1,860.644,3920.089Z" transform="translate(-13.474 -47.824)" fill="#ff9300"/><path d="M858.854,3893a.459.459,0,0,1,.3-.572l9.379-2.89a.463.463,0,0,1,.577.3l0,.006a.46.46,0,0,1-.3.572l-9.379,2.89a.456.456,0,0,1-.579-.308Z" transform="translate(-12.251 -32.355)" fill="#ff9300"/><path d="M861.623,3902.405a.457.457,0,0,1,.3-.569l9.381-2.887a.466.466,0,0,1,.577.3l0,.006a.457.457,0,0,1-.3.569l-9.379,2.893a.465.465,0,0,1-.581-.317Z" transform="translate(-14.141 -38.779)" fill="#ff9300"/></g></svg>