<svg xmlns="http://www.w3.org/2000/svg" width="179.471" height="96.011" viewBox="0 0 179.471 96.011"><g transform="translate(-840.881 -3842.104)"><path d="M928.795,3905.85l-13.806-46.82a1.454,1.454,0,0,1,.981-1.81l38.242-11.27a92.647,92.647,0,0,1,56.578,1.2l4.95,1.73c.44.22.74.37,1.01.52a6.791,6.791,0,0,1,2.63,8.97c-.12.24-.27.52-.44.8l-3.16,4.61a93.347,93.347,0,0,1-46.535,31.65l-38.627,11.39A1.445,1.445,0,0,1,928.795,3905.85Zm-10.614-46.25,12.986,44.04,37.236-10.98a90.41,90.41,0,0,0,45.037-30.59l3.06-4.46c.08-.14.2-.36.32-.58a3.755,3.755,0,0,0-1.46-5.11c-.25-.13-.48-.27-.69-.37l-4.8-1.66a89.786,89.786,0,0,0-54.795-1.17Z" fill="#ff9300"/><path d="M924.436,3919.86l-3.451-11.71a1.446,1.446,0,0,1,.98-1.8l23.412-6.9a1.436,1.436,0,0,1,1.537.48,1.477,1.477,0,0,1,.148,1.6l-8.233,15.15a1.459,1.459,0,0,1-.864.7l-11.706,3.45A1.433,1.433,0,0,1,924.436,3919.86Zm-.259-11.14,2.631,8.93,9.737-2.87,6.293-11.56Z" fill="#ff9300"/><path d="M899.183,3906.16s-.006-.02-.013-.04l-9.206-31.23a1.448,1.448,0,0,1,.981-1.8,16.043,16.043,0,0,1,8.52-.37l5,.78a1.459,1.459,0,0,1,1.164,1.03l6.9,23.41a1.455,1.455,0,0,1-.419,1.5l-3.863,3.46a18.053,18.053,0,0,1-6.914,4.09,2.425,2.425,0,0,1-.351.15A1.462,1.462,0,0,1,899.183,3906.16Zm-6.014-30.65,8.348,28.31a15.417,15.417,0,0,0,4.746-3.07l3.2-2.88-6.379-21.63-4.226-.69A12.507,12.507,0,0,0,893.169,3875.51Z" fill="#ff9300"/><path d="M907.179,3861.33l-3.445-11.69a1.446,1.446,0,0,1,.98-1.8l11.706-3.45a1.468,1.468,0,0,1,1.105.12l15.129,8.24a1.43,1.43,0,0,1,.748,1.43,1.459,1.459,0,0,1-1.032,1.23l-23.412,6.91A1.445,1.445,0,0,1,907.179,3861.33Zm-.253-11.12,2.625,8.91,18.661-5.51-11.549-6.27Z" fill="#ff9300"/><path d="M943.149,3876.19a15.887,15.887,0,1,1,7.662,9.42A15.843,15.843,0,0,1,943.149,3876.19Zm27.714-8.17a13.007,13.007,0,1,0-1.116,9.87A12.962,12.962,0,0,0,970.863,3868.02Zm-22.2,6.52a10.316,10.316,0,0,1,6.888-12.61,10.08,10.08,0,0,1,11.71,14.55,10.13,10.13,0,0,1-5.968,4.92,10.363,10.363,0,0,1-12.63-6.86Zm16.671-4.91a7.386,7.386,0,0,0-8.978-4.89,7.193,7.193,0,1,0,8.978,4.89Z" fill="#ff9300"/><path d="M912.393,3907.73l-12.2-41.37a4.246,4.246,0,0,1,2.9-5.32l12.883-3.79a1.445,1.445,0,0,1,1.8.98l13.806,46.82a1.448,1.448,0,0,1-.981,1.8l-12.883,3.8A4.213,4.213,0,0,1,912.393,3907.73Zm3.007-47.31-11.492,3.38a1.328,1.328,0,0,0-.936,1.72l12.2,41.37a1.305,1.305,0,0,0,1.718.93l11.492-3.38Z" fill="#ff9300"/><path d="M993.733,3881.61,982.7,3844.18a1.451,1.451,0,0,1,1.449-1.87,88.434,88.434,0,0,1,26.654,4.87l5.2,1.86a.584.584,0,0,1,.21.1l.22.12c.17.09.34.18.5.27a6.845,6.845,0,0,1,2.57,9.27l-.42.77-3.34,4.31a98.458,98.458,0,0,1-19.748,18.53,1.474,1.474,0,0,1-1.319.18A1.491,1.491,0,0,1,993.733,3881.61Zm-7.68-36.3,9.888,33.53a97.217,97.217,0,0,0,17.5-16.79l3.41-4.52c1.2-2.24.52-4.48-1.28-5.46a3.96,3.96,0,0,1-.56-.3l-.11-.06-5.09-1.8A83.747,83.747,0,0,0,986.053,3845.31Z" fill="#ff9300"/><path d="M856.118,3891.06a1.438,1.438,0,0,1,.96-1.79l29.538-9.09a1.467,1.467,0,0,1,1.816.96l.007.02a1.438,1.438,0,0,1-.96,1.79l-29.532,9.11a1.464,1.464,0,0,1-1.829-1Z" fill="#ff9300"/><path d="M840.94,3870.11a2.03,2.03,0,0,1-.058-.35,1.447,1.447,0,0,1,1.394-1.51l44.892-1.58a1.451,1.451,0,0,1,.11,2.9l-44.892,1.58A1.43,1.43,0,0,1,840.94,3870.11Z" fill="#ff9300"/><path d="M860.683,3937.07a1.461,1.461,0,0,1,.652-1.65l38.569-23.03a1.449,1.449,0,0,1,1.987.51,1.434,1.434,0,0,1-.507,1.98l-38.57,23.03a1.44,1.44,0,0,1-1.987-.51A.888.888,0,0,1,860.683,3937.07Z" fill="#ff9300"/><path d="M858.9,3900.48a1.447,1.447,0,0,1,.959-1.8l29.532-9.1a1.46,1.46,0,0,1,1.816.95l.007.02a1.449,1.449,0,0,1-.96,1.8l-29.532,9.1a1.435,1.435,0,0,1-1.822-.97Z" fill="#ff9300"/><path d="M861.664,3909.87a1.438,1.438,0,0,1,.96-1.79l29.538-9.09a1.468,1.468,0,0,1,1.817.96l.006.02a1.438,1.438,0,0,1-.96,1.79l-29.532,9.11a1.464,1.464,0,0,1-1.829-1Z" fill="#ff9300"/></g></svg>